<?xml version="1.0" encoding="UTF-8" standalone="no"?>
<!-- Created with Inkscape (http://www.inkscape.org/) -->

<svg
   width="30mm"
   height="34mm"
   viewBox="0 0 30 34"
   version="1.1"
   id="svg1"
   xmlns:xlink="http://www.w3.org/1999/xlink"
   xmlns="http://www.w3.org/2000/svg"
   xmlns:svg="http://www.w3.org/2000/svg">
  <defs
     id="defs1">
    <linearGradient
       id="linearGradient22">
      <stop
         style="stop-color:#ffdba6;stop-opacity:1;"
         offset="0"
         id="stop21" />
      <stop
         style="stop-color:#f2c478;stop-opacity:1;"
         offset="1"
         id="stop22" />
    </linearGradient>
    <clipPath
       clipPathUnits="userSpaceOnUse"
       id="clipPath1316-22">
      <path
         d="M 0,2834.646 H 2834.646 V 0 H 0 Z"
         transform="translate(-531.98141,-1560.2174)"
         id="path1316-6" />
    </clipPath>
    <linearGradient
       xlink:href="#linearGradient22"
       id="linearGradient21"
       gradientUnits="userSpaceOnUse"
       gradientTransform="translate(-311.81167,-212.60334)"
       x1="289.06915"
       y1="220.19536"
       x2="289.06967"
       y2="143.72234" />
  </defs>
  <g
     id="layer1"
     transform="translate(-504)">
    <g
       id="path3169"
       clip-path="url(#clipPath1316-22)"
       transform="matrix(0.35277776,0,0,-0.35277776,526.67115,6.5899251)">
      <path
         style="color:#000000;fill:url(#linearGradient21);stroke-miterlimit:10;-inkscape-stroke:none"
         d="m 0,0 -21.223,7.255 c -0.337,0.115 -0.707,0.115 -1.044,0 L -43.49,0 c -0.512,-0.175 -0.879,-0.593 -0.956,-1.088 L -54.328,-64.8 c -0.128,-0.823 0.569,-1.559 1.477,-1.559 h 31.106 31.106 c 0.907,0 1.605,0.736 1.477,1.559 L 0.955,-1.088 C 0.879,-0.593 0.512,-0.175 0,0"
         id="path105" />
      <path
         style="color:#000000;fill:#4d3608;stroke-miterlimit:10;-inkscape-stroke:none"
         d="m -52.851562,-67.208984 c -1.367537,0 -2.528283,1.176762 -2.316407,2.539062 l 9.88086,63.71289075 c 0.128904,0.82867416 0.735013,1.49290547 1.521484,1.76171875 l 21.224609,7.2558594 c 0.517057,0.1764437 1.07474,0.1764437 1.591797,0 h 0.002 L 0.27539063,0.8046875 C 1.0612847,0.53607135 1.6668921,-0.12796836 1.7949219,-0.95703125 v -0.001953 L 11.677734,-64.669922 c 0.21198,-1.362964 -0.949363,-2.539062 -2.3164059,-2.539062 H -21.744141 Z m 0,1.701172 h 31.107421 31.1054691 c 0.4469549,0 0.6807389,0.293137 0.6367188,0.576171 v 0.002 L 0.11523437,-1.2167969 c -0.02457878,0.1600856 -0.15309689,0.33092303 -0.390625,0.4121094 L -21.498047,6.4511719 v -0.00195 c -0.156942,0.053556 -0.337198,0.053556 -0.49414,0 v 0.00195 l -21.222657,-7.2558594 c -0.237528,-0.0811864 -0.36553,-0.2527376 -0.390625,-0.4140625 l -9.882812,-63.710937 v -0.002 c -0.04412,-0.283698 0.188257,-0.576171 0.636719,-0.576171 z"
         id="path106" />
    </g>
    <path
       style="fill:#ff0000;stroke-width:0.352777"
       d="M 518.40467,11.226743 V 8.944711 h 0.7276 v 2.282032 h 1.5875 q 0,0.826823 0.0331,1.289844 l 0.85989,-0.79375 0.52917,0.496094 -0.69453,0.595313 0.85989,0.330729 -0.33072,0.628386 q -0.0661,-0.03307 -0.42995,-0.165365 -0.33073,-0.165365 -0.66146,-0.297656 0.26458,0.628385 0.59531,0.992188 0.26458,0.264583 0.3638,0.264583 0.0331,0 0.0992,-0.06615 0.0992,-0.165364 0.19844,-0.56224 0.16536,0.132292 0.62839,0.396876 -0.16537,0.595312 -0.36381,0.760677 -0.19843,0.198438 -0.42994,0.198438 -0.36381,0 -0.89297,-0.363803 -0.46303,-0.330729 -0.72761,-0.992188 -0.29765,-0.727604 -0.33073,-2.017448 h -0.89297 v 3.406511 h -0.7276 v -3.406511 h -1.12448 q -0.0661,1.025261 -0.16537,1.389063 -0.16536,0.529167 -0.33072,0.826823 -0.39688,0.529167 -0.42995,0.595313 -0.0661,0.09922 -0.69453,0.628385 -0.33073,-0.463021 -0.52917,-0.628385 0.56224,-0.429948 0.79375,-0.727605 0.29766,-0.429948 0.42995,-0.826823 0.13229,-0.429948 0.19843,-1.256771 h -1.28984 v -0.694532 h 1.28984 v -1.058334 q -0.19843,0.06615 -1.12448,0.297657 -0.19843,-0.463021 -0.33072,-0.6945317 0.69453,-0.099219 1.0914,-0.1984376 0.33073,-0.099219 1.52136,-0.4960939 l 0.3638,0.5953127 q -0.39688,0.1653646 -0.76068,0.2976564 v 1.2567711 z m 1.65365,-2.4804695 h -4.59714 V 8.0517419 h 5.29167 q -0.0331,0.2976564 0.0331,0.9921879 0.19844,-0.2315105 0.42995,-0.463021 0.23151,-0.2645834 0.46302,-0.4960939 l 0.52917,0.5291668 q -0.23151,0.1984376 -0.46303,0.3968752 -0.19843,0.1653646 -0.39687,0.3307293 0.0992,0.033073 0.33073,0.1322917 0.26458,0.066146 0.69453,0.1984376 l -0.29766,0.5953125 -1.15755,-0.4299479 q 0.26458,0.4960939 0.66146,0.8929689 0.23151,0.231511 0.39688,0.231511 0.0331,0 0.0992,-0.06615 0,0 0.16537,-0.463021 0.23151,0.23151 0.66146,0.396875 -0.26459,0.628386 -0.36381,0.727604 -0.16536,0.165365 -0.33072,0.165365 -0.36381,0 -0.92605,-0.363802 -0.59531,-0.363802 -0.82682,-0.892969 -0.29766,-0.5291671 -0.39687,-1.7197925 z"
       id="text3201"
       aria-label="飛" />
    <path
       style="color:#000000;fill:#ff0000;stroke-miterlimit:10;-inkscape-stroke:none"
       d="M -0.63867187,0 V 23.693359 H 0.63867187 V 0 Z"
       id="path1317-3"
       transform="matrix(0.35277776,0,0,-0.35277776,519.00041,26.015871)" />
    <path
       style="color:#000000;fill:#ff0000;stroke-miterlimit:10;-inkscape-stroke:none"
       d="M 0.45117188,-0.45117188 -0.45117188,0.45117188 2.3925781,3.2949219 5.2382812,0.45117188 4.3359375,-0.45117188 2.3925781,1.4902344 Z"
       id="path1319-7"
       transform="matrix(0.35277776,0,0,-0.35277776,518.15608,18.501705)" />
    <path
       style="color:#000000;fill:#ff0000;stroke-miterlimit:10;-inkscape-stroke:none"
       d="m -2.3925781,-3.2949219 -2.8457031,2.84375002 0.9023437,0.90234376 1.9433594,-1.94140628 1.94140622,1.94140628 0.90234376,-0.90234376 z"
       id="path1321-6"
       transform="matrix(0.35277776,0,0,-0.35277776,519.84475,25.171507)" />
    <path
       style="color:#000000;fill:#ff0000;stroke-miterlimit:10;-inkscape-stroke:none"
       d="M -23.693359,-0.63867187 V 0.63867187 H 0 v -1.27734374 z"
       id="path1323-0"
       transform="matrix(0.35277776,0,0,-0.35277776,523.1797,21.836619)" />
    <path
       style="color:#000000;fill:#ff0000;stroke-miterlimit:10;-inkscape-stroke:none"
       d="M -0.45117188,-0.45117188 -3.2949219,2.3925781 -0.45117188,5.2382812 0.45117188,4.3359375 -1.4902344,2.3925781 0.45117188,0.45117188 Z"
       id="path1325-2"
       transform="matrix(0.35277776,0,0,-0.35277776,515.66546,22.680957)" />
    <path
       style="color:#000000;fill:#ff0000;stroke-miterlimit:10;-inkscape-stroke:none"
       d="M 0.45117188,-5.2382812 -0.45117188,-4.3359375 1.4902344,-2.3925781 -0.45117188,-0.45117188 0.45117188,0.45117188 3.2949219,-2.3925781 Z"
       id="path1327-5"
       transform="matrix(0.35277776,0,0,-0.35277776,522.33537,20.992281)" />
  </g>
</svg>
