<?xml version="1.0" encoding="UTF-8" standalone="no"?>
<!-- Created with Inkscape (http://www.inkscape.org/) -->

<svg
   width="30mm"
   height="34mm"
   viewBox="0 0 30 34"
   version="1.1"
   id="svg1"
   xmlns:xlink="http://www.w3.org/1999/xlink"
   xmlns="http://www.w3.org/2000/svg"
   xmlns:svg="http://www.w3.org/2000/svg">
  <defs
     id="defs1">
    <linearGradient
       id="linearGradient22">
      <stop
         style="stop-color:#ffdba6;stop-opacity:1;"
         offset="0"
         id="stop21" />
      <stop
         style="stop-color:#f2c478;stop-opacity:1;"
         offset="1"
         id="stop22" />
    </linearGradient>
    <linearGradient
       xlink:href="#linearGradient22"
       id="linearGradient2815"
       gradientUnits="userSpaceOnUse"
       gradientTransform="translate(-311.81167,-212.60334)"
       x1="289.06915"
       y1="220.19536"
       x2="289.06967"
       y2="143.72234" />
    <clipPath
       clipPathUnits="userSpaceOnUse"
       id="clipPath1288-08">
      <path
         d="M 0,2834.646 H 2834.646 V 0 H 0 Z"
         transform="translate(-318.37961,-1559.11)"
         id="path1288-3" />
    </clipPath>
  </defs>
  <g
     id="layer1"
     transform="translate(-360)">
    <g
       id="path2813"
       clip-path="url(#clipPath1288-08)"
       transform="matrix(0.35277776,0,0,-0.35277776,382.31727,6.9806706)">
      <path
         style="color:#000000;fill:url(#linearGradient2815);stroke-miterlimit:10;-inkscape-stroke:none"
         d="m 0,0 -20.266,6.952 c -0.309,0.106 -0.643,0.106 -0.952,0 L -41.484,0 c -0.545,-0.187 -0.946,-0.679 -1.038,-1.274 l -9.381,-60.689 c -0.151,-0.981 0.569,-1.871 1.515,-1.871 h 29.646 29.647 c 0.945,0 1.666,0.89 1.514,1.871 L 1.038,-1.274 C 0.946,-0.679 0.546,-0.187 0,0"
         id="path101" />
      <path
         style="color:#000000;fill:#4d3608;stroke-miterlimit:10;-inkscape-stroke:none"
         d="m -50.388672,-64.683594 c -1.479368,0 -2.580071,1.39044 -2.355469,2.84961 l 9.38086,60.6894528 c 0.138203,0.89381631 0.746532,1.65517134 1.603515,1.9492187 l 20.265625,6.9511719 c 0.486906,0.1670289 1.017001,0.1670289 1.503907,0 L 0.27539063,0.8046875 C 1.133505,0.51079119 1.7408449,-0.25163454 1.8789062,-1.1445312 L 11.259766,-61.832031 c 0.22622,-1.460013 -0.876537,-2.851563 -2.3554691,-2.851563 H -20.742187 Z m 0,1.699219 h 29.646485 29.6464839 c 0.4110655,0 0.7516077,0.38864 0.6738281,0.890625 L 0.19726562,-1.4042969 c -0.0459385,0.2971021 -0.23877171,0.51950609 -0.47265625,0.5996094 L -20.541016,6.1484375 c -0.131094,0.044971 -0.269296,0.044971 -0.40039,0 l -20.265625,-6.953125 c -0.233016,-0.0799523 -0.428813,-0.3034269 -0.47461,-0.5996094 L -51.0625,-62.09375 c -0.07608,-0.501766 0.261798,-0.890625 0.673828,-0.890625 z"
         id="path102" />
    </g>
    <path
       style="fill:#ff0000;stroke-width:0.352777"
       d="m 374.55349,12.628229 v -0.959115 h 0.79375 v 0.959115 h 2.48047 v 0.694532 h -2.48047 v 1.124479 h 3.27422 v 0.727605 h -7.24297 V 14.44724 h 3.175 v -1.124479 h -2.4474 v -0.694532 z m 0,-3.5718761 V 7.9649462 h 0.79375 v 1.0914067 h 2.48047 v 0.6614586 h -2.48047 v 1.0583335 h 3.27422 v 0.661459 h -7.2099 v -0.661459 h 3.14193 V 9.7178115 h -2.4474 V 9.0563529 Z"
       id="text2814"
       aria-label="圭" />
    <path
       style="color:#000000;fill:#ff0000;stroke-miterlimit:10;-inkscape-stroke:none"
       d="M -0.63867187,0 V 25.111328 H 0.63867187 V 0 Z"
       id="path2817"
       transform="matrix(0.35277776,0,0,-0.35277776,375.00097,26.429425)" />
    <path
       style="color:#000000;fill:#ff0000;stroke-miterlimit:10;-inkscape-stroke:none"
       d="m -2.5371094,-3.4394531 -2.9863281,2.98828122 0.9023438,0.90234376 2.0839843,-2.08593748 2.08593752,2.08593748 0.90234376,-0.90234376 z"
       id="path2831"
       transform="matrix(0.35277776,0,0,-0.35277776,375.89584,25.534551)" />
    <path
       style="color:#000000;fill:#ff0000;stroke-miterlimit:10;-inkscape-stroke:none"
       d="M -25.111328,-0.63867187 V 0.63867187 H 0 v -1.27734374 z"
       id="path2973"
       transform="matrix(0.35277776,0,0,-0.35277776,379.43028,22.000141)" />
    <path
       style="color:#000000;fill:#ff0000;stroke-miterlimit:10;-inkscape-stroke:none"
       d="m -9.328125,8.4277344 -8.878906,8.8769526 0.902344,0.902344 8.8769526,-8.878906 z"
       id="path2983"
       transform="matrix(0.35277776,0,0,-0.35277776,378.13297,25.132067)" />
    <path
       style="color:#000000;fill:#ff0000;stroke-miterlimit:10;-inkscape-stroke:none"
       d="m -8.4277344,-9.328125 -0.9003906,0.9003906 8.87695312,8.87890628 0.90234376,-0.90234376 z"
       id="path2987"
       transform="matrix(0.35277776,0,0,-0.35277776,378.13297,18.868189)" />
  </g>
</svg>
