<?xml version="1.0" encoding="UTF-8" standalone="no"?>
<!-- Created with Inkscape (http://www.inkscape.org/) -->

<svg
   width="30mm"
   height="34mm"
   viewBox="0 0 30 34"
   version="1.1"
   id="svg1"
   xmlns:xlink="http://www.w3.org/1999/xlink"
   xmlns="http://www.w3.org/2000/svg"
   xmlns:svg="http://www.w3.org/2000/svg">
  <defs
     id="defs1">
    <linearGradient
       id="linearGradient22">
      <stop
         style="stop-color:#ffdba6;stop-opacity:1;"
         offset="0"
         id="stop21" />
      <stop
         style="stop-color:#f2c478;stop-opacity:1;"
         offset="1"
         id="stop22" />
    </linearGradient>
    <clipPath
       clipPathUnits="userSpaceOnUse"
       id="clipPath1288-08">
      <path
         d="M 0,2834.646 H 2834.646 V 0 H 0 Z"
         transform="translate(-318.37961,-1559.11)"
         id="path1288-3" />
    </clipPath>
    <linearGradient
       xlink:href="#linearGradient22"
       id="linearGradient20"
       gradientUnits="userSpaceOnUse"
       gradientTransform="translate(-311.81167,-212.60334)"
       x1="289.06915"
       y1="220.19536"
       x2="289.06967"
       y2="143.72234" />
  </defs>
  <g
     id="layer1"
     transform="translate(-288)">
    <g
       id="path2815"
       clip-path="url(#clipPath1288-08)"
       transform="matrix(0.35277776,0,0,-0.35277776,310.31728,6.9806706)">
      <path
         style="color:#000000;fill:url(#linearGradient20);stroke-miterlimit:10;-inkscape-stroke:none"
         d="m 0,0 -20.266,6.952 c -0.309,0.106 -0.643,0.106 -0.952,0 L -41.484,0 c -0.545,-0.187 -0.946,-0.679 -1.038,-1.274 l -9.381,-60.689 c -0.151,-0.981 0.569,-1.871 1.515,-1.871 h 29.646 29.647 c 0.945,0 1.666,0.89 1.514,1.871 L 1.038,-1.274 C 0.946,-0.679 0.546,-0.187 0,0"
         id="path107" />
      <path
         style="color:#000000;fill:#4d3608;stroke-miterlimit:10;-inkscape-stroke:none"
         d="m -50.388672,-64.683594 c -1.479368,0 -2.580071,1.39044 -2.355469,2.84961 l 9.38086,60.6894528 c 0.138203,0.89381631 0.746532,1.65517134 1.603515,1.9492187 l 20.265625,6.9511719 c 0.486906,0.1670289 1.017001,0.1670289 1.503907,0 L 0.27539063,0.8046875 C 1.133505,0.51079119 1.7408449,-0.25163454 1.8789062,-1.1445312 L 11.259766,-61.832031 c 0.22622,-1.460013 -0.876537,-2.851563 -2.3554691,-2.851563 H -20.742187 Z m 0,1.699219 h 29.646485 29.6464839 c 0.4110655,0 0.7516077,0.38864 0.6738281,0.890625 L 0.19726562,-1.4042969 c -0.0459385,0.2971021 -0.23877171,0.51950609 -0.47265625,0.5996094 L -20.541016,6.1484375 c -0.131094,0.044971 -0.269296,0.044971 -0.40039,0 l -20.265625,-6.953125 c -0.233016,-0.0799523 -0.428813,-0.3034269 -0.47461,-0.5996094 L -51.0625,-62.09375 c -0.07608,-0.501766 0.261798,-0.890625 0.673828,-0.890625 z"
         id="path108" />
    </g>
    <path
       style="fill:#000000 icc-color(sRGB-IEC61966-2, 0.1, 0, 0, 0);stroke-width:0.352777"
       d="m 304.07485,12.661279 v -1.02526 h 0.76068 v 1.02526 h 1.68672 v 0.694532 h -1.68672 v 1.157552 h 1.98437 v 0.694532 h -4.96093 v -0.694532 h 2.21588 v -1.157552 h -1.55443 v -0.694532 z m 0,-3.7041678 V 7.8987775 h 0.76068 v 1.0583337 h 1.71979 v 0.6945316 h -1.71979 v 1.0583342 h 1.98437 v 0.727604 h -4.59713 v -0.727604 h 1.85208 V 9.6516428 h -1.55443 V 8.9571112 Z m -3.5388,0.5291669 V 7.8657046 h 0.76068 v 1.6205735 h 0.76067 V 10.18081 h -0.76067 v 0.760677 q 0.49609,0.529167 0.99218,0.992188 -0.13229,0.132292 -0.46302,0.595313 -0.3638,-0.363803 -0.52916,-0.595313 v 3.50573 h -0.76068 v -3.307292 q -0.46302,0.992187 -1.02526,1.719792 -0.13229,-0.56224 -0.33073,-0.926042 0.42995,-0.56224 0.7276,-1.091407 0.33073,-0.694531 0.62839,-1.653646 H 299.3785 V 9.4862781 Z"
       id="text2973"
       aria-label="桂" />
    <path
       style="color:#000000;fill:#000000 icc-color(sRGB-IEC61966-2, 0.1, 0, 0, 0);stroke-miterlimit:10;-inkscape-stroke:none"
       d="m 0.578125,0 c 0,6.7776916 -1.23200038,10.01371 -2.6210938,11.490234 -1.3890933,1.476524 -3.0090873,1.410754 -4.3984374,1.337891 l -0.066406,1.273438 c 1.4136471,0.07414 3.6392713,0.129409 5.3945313,-1.736329 C 0.64197868,10.499497 1.8535156,6.9292947 1.8535156,0 Z"
       id="path1345-30"
       transform="matrix(0.35277776,0,0,-0.35277776,302.57095,25.749683)" />
    <path
       style="color:#000000;fill:#000000 icc-color(sRGB-IEC61966-2, 0.1, 0, 0, 0);stroke-miterlimit:10;-inkscape-stroke:none"
       d="m -1.8535156,0 c 0,6.929302 1.21141543,10.499497 2.9667968,12.365234 1.7553815,1.865738 3.9808795,1.810466 5.3945313,1.736329 L 6.4414062,12.828125 C 5.0520609,12.900988 3.4321752,12.966777 2.0429688,11.490234 0.65376227,10.013692 -0.578125,6.7776843 -0.578125,0 Z"
       id="path1347-1"
       transform="matrix(0.35277776,0,0,-0.35277776,303.42923,25.749683)" />
    <path
       style="color:#000000;fill:#000000 icc-color(sRGB-IEC61966-2, 0.1, 0, 0, 0);stroke-miterlimit:10;-inkscape-stroke:none"
       d="M -0.63867187,-4.6210937 V 16.785156 H 0.63867187 V -4.6210937 Z"
       id="path1283-9"
       transform="matrix(0.35277776,0,0,-0.35277776,303.00011,24.1194)" />
    <path
       style="color:#000000;fill:#000000 icc-color(sRGB-IEC61966-2, 0.1, 0, 0, 0);stroke-miterlimit:10;-inkscape-stroke:none"
       d="M 0.45117188,-0.45117188 -0.45117188,0.45117188 2.25,3.1464844 4.9511719,0.45117188 4.0488281,-0.45117188 2.25,1.3457031 Z"
       id="path1285-47"
       transform="matrix(0.35277776,0,0,-0.35277776,302.20626,18.99032)" />
  </g>
</svg>
