<?xml version="1.0" encoding="UTF-8" standalone="no"?>
<!-- Created with Inkscape (http://www.inkscape.org/) -->

<svg
   width="30mm"
   height="34mm"
   viewBox="0 0 30 34"
   version="1.1"
   id="svg1"
   xmlns:xlink="http://www.w3.org/1999/xlink"
   xmlns="http://www.w3.org/2000/svg"
   xmlns:svg="http://www.w3.org/2000/svg">
  <defs
     id="defs1">
    <linearGradient
       id="linearGradient22">
      <stop
         style="stop-color:#ffdba6;stop-opacity:1;"
         offset="0"
         id="stop21" />
      <stop
         style="stop-color:#f2c478;stop-opacity:1;"
         offset="1"
         id="stop22" />
    </linearGradient>
    <clipPath
       clipPathUnits="userSpaceOnUse"
       id="clipPath1288-08">
      <path
         d="M 0,2834.646 H 2834.646 V 0 H 0 Z"
         transform="translate(-318.37961,-1559.11)"
         id="path1288-3" />
    </clipPath>
    <linearGradient
       xlink:href="#linearGradient22"
       id="linearGradient16"
       gradientUnits="userSpaceOnUse"
       gradientTransform="translate(-311.81167,-212.60334)"
       x1="289.06915"
       y1="220.19536"
       x2="289.06967"
       y2="143.72234" />
  </defs>
  <g
     id="layer1"
     transform="translate(-144)">
    <g
       id="path1287-95"
       clip-path="url(#clipPath1288-08)"
       transform="matrix(0.35277776,0,0,-0.35277776,166.31728,6.9806706)">
      <path
         style="color:#000000;fill:url(#linearGradient16);stroke-miterlimit:10;-inkscape-stroke:none"
         d="m 0,0 -20.266,6.952 c -0.309,0.106 -0.643,0.106 -0.952,0 L -41.484,0 c -0.545,-0.187 -0.946,-0.679 -1.038,-1.274 l -9.381,-60.689 c -0.151,-0.981 0.569,-1.871 1.515,-1.871 h 29.646 29.647 c 0.945,0 1.666,0.89 1.514,1.871 L 1.038,-1.274 C 0.946,-0.679 0.546,-0.187 0,0"
         id="path115" />
      <path
         style="color:#000000;fill:#4d3608;stroke-miterlimit:10;-inkscape-stroke:none"
         d="m -50.388672,-64.683594 c -1.479368,0 -2.580071,1.39044 -2.355469,2.84961 l 9.38086,60.6894528 c 0.138203,0.89381631 0.746532,1.65517134 1.603515,1.9492187 l 20.265625,6.9511719 c 0.486906,0.1670289 1.017001,0.1670289 1.503907,0 L 0.27539063,0.8046875 C 1.133505,0.51079119 1.7408449,-0.25163454 1.8789062,-1.1445312 L 11.259766,-61.832031 c 0.22622,-1.460013 -0.876537,-2.851563 -2.3554691,-2.851563 H -20.742187 Z m 0,1.699219 h 29.646485 29.6464839 c 0.4110655,0 0.7516077,0.38864 0.6738281,0.890625 L 0.19726562,-1.4042969 c -0.0459385,0.2971021 -0.23877171,0.51950609 -0.47265625,0.5996094 L -20.541016,6.1484375 c -0.131094,0.044971 -0.269296,0.044971 -0.40039,0 l -20.265625,-6.953125 c -0.233016,-0.0799523 -0.428813,-0.3034269 -0.47461,-0.5996094 L -51.0625,-62.09375 c -0.07608,-0.501766 0.261798,-0.890625 0.673828,-0.890625 z"
         id="path116" />
    </g>
    <path
       style="fill:#000000 icc-color(sRGB-IEC61966-2, 0.1, 0, 0, 0);stroke-width:0.352777"
       d="m 158.04089,7.7003666 0.79375,0.2315105 -0.39688,0.5622398 h 2.21589 l 0.13229,-0.066146 0.46302,0.4960939 q -0.0661,0.033073 -1.05833,1.0252608 h 2.3151 v 4.6632834 q 0,0.330729 -0.26458,0.595313 -0.29766,0.264583 -1.28984,0.297656 0,-0.264583 -0.0331,-0.330729 0,-0.03307 -0.0661,-0.165365 -0.0661,-0.06615 -0.16537,-0.264583 h 0.8599 q 0.0662,0 0.0992,-0.03307 0.0331,-0.03307 0.0331,-0.09922 v -0.992188 h -4.23333 q -0.0661,0.231511 -0.42995,1.025261 -0.19844,0.297656 -0.66146,0.760677 -0.23151,-0.330729 -0.59531,-0.595312 0.62838,-0.628386 0.79375,-1.025261 0.16536,-0.496094 0.23151,-0.926042 0.0661,-0.859897 0.0661,-2.579689 -0.52916,0.496094 -0.82682,0.661459 -0.19844,-0.33073 -0.52917,-0.595313 0.72761,-0.4630212 1.25677,-0.9921881 0.59532,-0.6614586 1.28985,-1.6536465 z m -0.8599,2.2489592 h 2.11667 l 0.69453,-0.7937503 h -2.08359 q -0.26459,0.2645835 -0.42995,0.463021 -0.16537,0.1984376 -0.29766,0.3307293 z m 2.77813,1.4882822 h 1.71979 v -0.826824 h -1.71979 z m -0.76068,-0.826824 h -1.5875 v 0.826824 h 1.5875 z m 0.76068,2.348178 h 1.71979 V 12.03292 h -1.71979 z m -2.38125,0 h 1.62057 V 12.03292 h -1.5875 q -0.0331,0.297657 -0.0331,0.926042 z"
       id="text1294-1"
       aria-label="角" />
    <path
       style="color:#000000;fill:#000000 icc-color(sRGB-IEC61966-2, 0.1, 0, 0, 0);stroke-miterlimit:10;-inkscape-stroke:none"
       d="m -0.63867187,12.554688 v 12.55664 h 1.27734374 v -12.55664 z"
       id="path2977"
       transform="matrix(0.35277776,0,0,-0.35277776,159.00143,26.429318)" />
    <path
       style="color:#000000;fill:#000000 icc-color(sRGB-IEC61966-2, 0.1, 0, 0, 0);stroke-miterlimit:10;-inkscape-stroke:none"
       d="M 0.45117188,-0.45117188 -0.45117188,0.45117188 2.5371094,3.4394531 5.5234375,0.45117188 4.6210937,-0.45117188 2.5371094,1.6347656 Z"
       id="path2979"
       transform="matrix(0.35277776,0,0,-0.35277776,158.10659,18.465624)" />
    <path
       style="color:#000000;fill:#000000 icc-color(sRGB-IEC61966-2, 0.1, 0, 0, 0);stroke-miterlimit:10;-inkscape-stroke:none"
       d="m -9.328125,8.4277344 -8.878906,8.8769526 0.902344,0.902344 8.8769526,-8.878906 z"
       id="path3019"
       transform="matrix(0.35277776,0,0,-0.35277776,162.13344,25.13196)" />
    <path
       style="color:#000000;fill:#000000 icc-color(sRGB-IEC61966-2, 0.1, 0, 0, 0);stroke-miterlimit:10;-inkscape-stroke:none"
       d="m -8.4277344,-9.328125 -0.9003906,0.9003906 8.87695312,8.87890628 0.90234376,-0.90234376 z"
       id="path3029"
       transform="matrix(0.35277776,0,0,-0.35277776,162.13344,18.868082)" />
  </g>
</svg>
