<?xml version="1.0" encoding="UTF-8" standalone="no"?>
<!-- Created with Inkscape (http://www.inkscape.org/) -->

<svg
   width="30mm"
   height="34mm"
   viewBox="0 0 30 34"
   version="1.1"
   id="svg1"
   xmlns:xlink="http://www.w3.org/1999/xlink"
   xmlns="http://www.w3.org/2000/svg"
   xmlns:svg="http://www.w3.org/2000/svg">
  <defs
     id="defs1">
    <linearGradient
       id="linearGradient22">
      <stop
         style="stop-color:#ffdba6;stop-opacity:1;"
         offset="0"
         id="stop21" />
      <stop
         style="stop-color:#f2c478;stop-opacity:1;"
         offset="1"
         id="stop22" />
    </linearGradient>
    <clipPath
       clipPathUnits="userSpaceOnUse"
       id="clipPath1278-2">
      <path
         d="M 0,2834.646 H 2834.646 V 0 H 0 Z"
         transform="translate(-101.8765,-1555.7911)"
         id="path1278-5" />
    </clipPath>
    <linearGradient
       xlink:href="#linearGradient22"
       id="linearGradient19"
       gradientUnits="userSpaceOnUse"
       gradientTransform="translate(-311.81167,-212.60334)"
       x1="289.06915"
       y1="220.19536"
       x2="289.06967"
       y2="143.72234" />
  </defs>
  <g
     id="layer1"
     transform="translate(-72)">
    <g
       id="path2811"
       clip-path="url(#clipPath1278-2)"
       transform="matrix(0.35277776,0,0,-0.35277776,92.939751,8.15154)">
      <path
         style="color:#000000;fill:url(#linearGradient19);stroke-miterlimit:10;-inkscape-stroke:none"
         d="m 0,0 -16.217,5.989 c -0.397,0.146 -0.844,0.146 -1.241,0 L -33.674,0 c -0.531,-0.196 -0.903,-0.627 -0.975,-1.131 l -7.687,-53.534 c -0.122,-0.848 0.627,-1.598 1.595,-1.598 h 23.904 23.903 c 0.969,0 1.717,0.75 1.596,1.598 L 0.975,-1.131 C 0.902,-0.627 0.531,-0.196 0,0"
         id="path109" />
      <path
         style="color:#000000;fill:#4d3608;stroke-miterlimit:10;-inkscape-stroke:none"
         d="m -40.740234,-57.113281 c -1.406573,0 -2.637944,1.165724 -2.4375,2.568359 l 7.6875,53.5351564 c 0.120395,0.84276505 0.731595,1.5150809 1.521484,1.8066406 l 16.216797,5.9902344 c 0.591076,0.2173731 1.237049,0.2173731 1.828125,0 L 0.29492188,0.796875 C 1.085136,0.50519519 1.6946732,-0.16930742 1.8164062,-1.0097656 L 9.5039063,-54.544922 c 0.2001345,-1.402596 -1.0297011,-2.568359 -2.4375001,-2.568359 H -16.837891 Z m 0,1.701172 h 23.902343 23.9042972 c 0.5301992,0 0.7957715,0.333551 0.7539063,0.626953 l -7.6875,53.5332029 c -0.0242668,0.1675408 -0.1559496,0.3547583 -0.42773438,0.4550781 L -16.511719,5.1914062 c -0.202585,0.07396 -0.450026,0.074404 -0.652343,0 L -33.378906,-0.796875 c -0.27211,-0.1004399 -0.40413,-0.2898442 -0.427735,-0.4550781 l -7.6875,-53.5332029 c -0.04208,-0.292456 0.225161,-0.626953 0.753907,-0.626953 z"
         id="path110" />
    </g>
    <path
       style="fill:#ff000f;stroke-width:0.35424"
       d="m 83.622509,13.703897 0.625792,-0.197619 q 0.3623,0.889283 0.395237,1.185711 l -0.592856,0.263491 q -0.131745,-0.526982 -0.428173,-1.251583 z m 2.56904,-0.230555 0.625792,0.263491 -0.526983,1.119838 q -0.131746,-0.03294 -0.263491,-0.131746 -0.06587,-0.03294 -0.131746,-0.06587 -0.06587,-0.03294 -0.164682,-0.03294 0.09881,-0.230555 0.197619,-0.494046 0.131745,-0.263491 0.263491,-0.658728 z m 3.75475,-1.515075 V 11.20073 h -1.943248 v 0.757537 z m 0,-1.383329 V 9.8174009 h -1.943248 v 0.7575371 z m -2.700785,4.973397 V 9.1257364 H 90.6709 v 3.5241956 h -1.218647 q 0.06587,0.625791 0.06587,0.658728 0.03294,0.131745 0.09881,0.46111 l 1.152774,-0.856347 0.46111,0.658728 q -0.395237,0.230555 -1.350393,0.856347 0.131746,0.329364 0.329364,0.559919 0.263492,0.329364 0.395237,0.461109 0.131746,0.06587 0.263491,0.164682 0.131746,0.06587 0.428174,0.263491 -0.197619,0.197619 -0.296428,0.263492 -0.06587,0.06587 -0.131746,0.131745 -0.03294,0.03294 -0.09881,0.09881 -0.03294,0.06587 -0.09881,0.131745 -0.724601,-0.559919 -0.988092,-0.922219 -0.428173,-0.494046 -0.625792,-1.086902 -0.296428,-0.856346 -0.329364,-1.844438 h -0.724601 v 2.700785 q 0.296428,-0.09881 0.559919,-0.164682 0.263491,-0.06587 0.526983,-0.131746 l 0.03294,0.724601 q -2.042057,0.592856 -2.272612,0.658728 L 86.652659,15.680081 Z M 85.071711,8.7304995 85.763376,9.0928 l -0.09881,0.164682 0.592856,0.4611097 q 0.06587,0.032936 0.230554,0.1976184 l 0.494047,0.3952369 -0.526983,0.625792 q -0.856346,-0.790474 -0.856346,-0.790474 -0.09881,-0.09881 -0.197619,-0.1646821 -0.06587,-0.065873 -0.131746,-0.098809 -0.559918,0.8892831 -0.922219,1.2515831 h 2.074994 v 0.625792 h -0.82341 v 0.691664 h 1.021028 v 0.625792 h -1.021028 v 2.10793 q 0.658728,-0.131746 0.988092,-0.230555 v 0.691665 q -0.691665,0.197618 -1.580948,0.395236 l -1.251583,0.296428 -0.197619,-0.790474 1.350393,-0.197618 v -2.272612 h -1.152774 v -0.625792 h 1.152774 v -0.691664 h -0.658728 v -0.494046 l -0.395237,0.428173 q -0.263491,-0.46111 -0.428173,-0.691665 0.922219,-0.922219 1.64682,-2.2726115 z"
       id="text2813"
       transform="scale(0.99587063,1.0041465)"
       aria-label="銀" />
    <path
       style="color:#000000;fill:#ff0000;stroke-miterlimit:10;-inkscape-stroke:none"
       d="M -0.63867187,0 V 25.111328 H 0.63867187 V 0 Z"
       id="path1937-0"
       transform="matrix(0.35277776,0,0,-0.35277776,87.000051,26.429485)" />
    <path
       style="color:#000000;fill:#ff0000;stroke-miterlimit:10;-inkscape-stroke:none"
       d="m -2.5371094,-3.4394531 -2.9863281,2.98828122 0.9023438,0.90234376 2.0839843,-2.08593748 2.08593752,2.08593748 0.90234376,-0.90234376 z"
       id="path1941-07"
       transform="matrix(0.35277776,0,0,-0.35277776,87.894921,25.534612)" />
    <path
       style="color:#000000;fill:#ff0000;stroke-miterlimit:10;-inkscape-stroke:none"
       d="m -9.328125,8.4277344 -8.878906,8.8769526 0.902344,0.902344 8.8769526,-8.878906 z"
       id="path1949-0"
       transform="matrix(0.35277776,0,0,-0.35277776,90.132051,25.132128)" />
    <path
       style="color:#000000;fill:#ff0000;stroke-miterlimit:10;-inkscape-stroke:none"
       d="m -8.4277344,-9.328125 -0.9003906,0.9003906 8.87695312,8.87890628 0.90234376,-0.90234376 z"
       id="path1955-39"
       transform="matrix(0.35277776,0,0,-0.35277776,90.132051,18.86825)" />
  </g>
</svg>
