<?xml version="1.0" encoding="UTF-8" standalone="no"?>
<!-- Created with Inkscape (http://www.inkscape.org/) -->

<svg
   width="30mm"
   height="34mm"
   viewBox="0 0 30 34"
   version="1.1"
   id="svg1"
   xmlns:xlink="http://www.w3.org/1999/xlink"
   xmlns="http://www.w3.org/2000/svg"
   xmlns:svg="http://www.w3.org/2000/svg">
  <defs
     id="defs1">
    <linearGradient
       id="linearGradient22">
      <stop
         style="stop-color:#ffdba6;stop-opacity:1;"
         offset="0"
         id="stop21" />
      <stop
         style="stop-color:#f2c478;stop-opacity:1;"
         offset="1"
         id="stop22" />
    </linearGradient>
    <clipPath
       clipPathUnits="userSpaceOnUse"
       id="clipPath1416-81">
      <path
         d="M 0,2834.646 H 2834.646 V 0 H 0 Z"
         transform="translate(-674.71072,-1561.3219)"
         id="path1416-354" />
    </clipPath>
    <linearGradient
       xlink:href="#linearGradient22"
       id="linearGradient76"
       gradientUnits="userSpaceOnUse"
       gradientTransform="translate(-311.81167,-212.60334)"
       x1="289.06915"
       y1="220.19536"
       x2="289.06967"
       y2="143.72234" />
  </defs>
  <g
     id="layer1"
     transform="translate(-700)">
    <g
       id="path72"
       clip-path="url(#clipPath1416-81)"
       transform="matrix(-0.35277776,0,0,0.35277776,706.97699,27.799674)">
      <path
         style="color:#000000;fill:url(#linearGradient76);stroke-miterlimit:10;-inkscape-stroke:none"
         d="m 0,0 -22.28,7.578 c -0.3,0.102 -0.625,0.102 -0.924,0 L -45.484,0 c -0.502,-0.171 -0.868,-0.604 -0.949,-1.125 l -10.308,-66.12 c -0.134,-0.86 0.535,-1.636 1.411,-1.636 h 32.588 32.588 c 0.875,0 1.545,0.776 1.41,1.636 L 0.948,-1.125 C 0.867,-0.604 0.502,-0.171 0,0"
         id="path77" />
      <path
         style="color:#000000;fill:#4d3608;stroke-miterlimit:10;-inkscape-stroke:none"
         d="m -55.330078,-69.730469 c -1.378211,0 -2.464222,1.254866 -2.251953,2.617188 l 10.308594,66.11914037 c 0.129751,0.83457398 0.718286,1.52722488 1.515625,1.79882813 l 22.279296,7.578125 c 0.47722,0.1627972 0.995439,0.1622539 1.472657,0 L 0.2734375,0.8046875 C 1.071102,0.5329731 1.6594743,-0.16061651 1.7890625,-0.99414063 L 12.095703,-67.113281 c 0.214001,-1.363263 -0.872215,-2.617188 -2.2499999,-2.617188 H -22.742187 Z m 0,1.699219 h 32.587891 32.5878901 c 0.3722139,0 0.6263119,0.297562 0.5703129,0.654297 L 0.10742187,-1.2558594 c -0.03241163,0.2084749 -0.17452486,0.38088664 -0.38085937,0.4511719 l -22.2812495,7.578125 c -0.122782,0.041746 -0.25422,0.041203 -0.375,0 l -22.279297,-7.578125 c -0.206661,-0.0703964 -0.350564,-0.2437469 -0.382813,-0.4511719 L -55.900391,-67.376953 c -0.05459,-0.356865 0.197159,-0.654297 0.570313,-0.654297 z"
         id="path78" />
    </g>
    <path
       style="fill:#000000 icc-color(sRGB-IEC61966-2, 0.1, 0, 0, 0);stroke-width:0.352777"
       d="m -712.15573,-20.788867 -0.59531,0.529167 q -0.72761,-0.926042 -1.05834,-1.223698 l 0.56224,-0.463021 q 0.42995,0.429948 1.09141,1.157552 z m -5.9862,-4.101043 v -0.727604 h 6.31693 v 0.727604 h -2.84427 v 1.91823 h 2.54661 v 0.727604 h -2.54661 v 2.348178 h 3.30729 v 0.793751 h -7.30912 v -0.793751 h 3.20808 v -2.348178 h -2.28204 v -0.727604 h 2.28204 v -1.91823 z"
       id="text72"
       transform="scale(-1)"
       aria-label="玉" />
    <path
       style="color:#000000;fill:#000000 icc-color(sRGB-IEC61966-2, 0.1, 0, 0, 0);stroke-miterlimit:10;-inkscape-stroke:none"
       d="M -0.63867187,0 V 25.511719 H 0.63867187 V 0 Z"
       id="path73"
       transform="matrix(-0.35277776,0,0,0.35277776,714.99993,6.5000279)" />
    <path
       style="color:#000000;fill:#000000 icc-color(sRGB-IEC61966-2, 0.1, 0, 0, 0);stroke-miterlimit:10;-inkscape-stroke:none"
       d="M -25.511719,-0.63867187 V 0.63867187 H 0 v -1.27734374 z"
       id="path74"
       transform="matrix(-0.35277776,0,0,0.35277776,710.49995,11.000034)" />
    <path
       style="color:#000000;fill:#000000 icc-color(sRGB-IEC61966-2, 0.1, 0, 0, 0);stroke-miterlimit:10;-inkscape-stroke:none"
       d="M -0.45117188,-0.45117188 -18.490234,17.587891 -17.589844,18.490234 0.45117188,0.45117188 Z"
       id="path75"
       transform="matrix(-0.35277776,0,0,0.35277776,711.81794,7.8180499)" />
    <path
       style="color:#000000;fill:#000000 icc-color(sRGB-IEC61966-2, 0.1, 0, 0, 0);stroke-miterlimit:10;-inkscape-stroke:none"
       d="m -17.589844,-18.490234 -0.90039,0.902343 18.03906212,18.03906288 0.90234376,-0.90234376 z"
       id="path76"
       transform="matrix(-0.35277776,0,0,0.35277776,711.81794,14.181993)" />
  </g>
</svg>
