<?xml version="1.0" encoding="UTF-8" standalone="no"?>
<!-- Created with Inkscape (http://www.inkscape.org/) -->

<svg
   width="30mm"
   height="34mm"
   viewBox="0 0 30 34"
   version="1.1"
   id="svg1"
   xmlns:xlink="http://www.w3.org/1999/xlink"
   xmlns="http://www.w3.org/2000/svg"
   xmlns:svg="http://www.w3.org/2000/svg">
  <defs
     id="defs1">
    <linearGradient
       id="linearGradient22">
      <stop
         style="stop-color:#ffdba6;stop-opacity:1;"
         offset="0"
         id="stop21" />
      <stop
         style="stop-color:#f2c478;stop-opacity:1;"
         offset="1"
         id="stop22" />
    </linearGradient>
    <clipPath
       clipPathUnits="userSpaceOnUse"
       id="clipPath1316-22">
      <path
         d="M 0,2834.646 H 2834.646 V 0 H 0 Z"
         transform="translate(-531.98141,-1560.2174)"
         id="path1316-6" />
    </clipPath>
    <linearGradient
       xlink:href="#linearGradient22"
       id="linearGradient58"
       gradientUnits="userSpaceOnUse"
       gradientTransform="translate(-311.81167,-212.60334)"
       x1="289.06915"
       y1="220.19536"
       x2="289.06967"
       y2="143.72234" />
  </defs>
  <g
     id="layer1"
     transform="translate(-468)">
    <g
       id="path53"
       clip-path="url(#clipPath1316-22)"
       transform="matrix(-0.35277776,0,0,0.35277776,475.32884,27.410075)">
      <path
         style="color:#000000;fill:url(#linearGradient58);stroke-miterlimit:10;-inkscape-stroke:none"
         d="m 0,0 -21.223,7.255 c -0.337,0.115 -0.707,0.115 -1.044,0 L -43.49,0 c -0.512,-0.175 -0.879,-0.593 -0.956,-1.088 L -54.328,-64.8 c -0.128,-0.823 0.569,-1.559 1.477,-1.559 h 31.106 31.106 c 0.907,0 1.605,0.736 1.477,1.559 L 0.955,-1.088 C 0.879,-0.593 0.512,-0.175 0,0"
         id="path87" />
      <path
         style="color:#000000;fill:#4d3608;stroke-miterlimit:10;-inkscape-stroke:none"
         d="m -52.851562,-67.208984 c -1.367537,0 -2.528283,1.176762 -2.316407,2.539062 l 9.88086,63.71289075 c 0.128904,0.82867416 0.735013,1.49290547 1.521484,1.76171875 l 21.224609,7.2558594 c 0.517057,0.1764437 1.07474,0.1764437 1.591797,0 h 0.002 L 0.27539063,0.8046875 C 1.0612847,0.53607135 1.6668921,-0.12796836 1.7949219,-0.95703125 v -0.001953 L 11.677734,-64.669922 c 0.21198,-1.362964 -0.949363,-2.539062 -2.3164059,-2.539062 H -21.744141 Z m 0,1.701172 h 31.107421 31.1054691 c 0.4469549,0 0.6807389,0.293137 0.6367188,0.576171 v 0.002 L 0.11523437,-1.2167969 c -0.02457878,0.1600856 -0.15309689,0.33092303 -0.390625,0.4121094 L -21.498047,6.4511719 v -0.00195 c -0.156942,0.053556 -0.337198,0.053556 -0.49414,0 v 0.00195 l -21.222657,-7.2558594 c -0.237528,-0.0811864 -0.36553,-0.2527376 -0.390625,-0.4140625 l -9.882812,-63.710937 v -0.002 c -0.04412,-0.283698 0.188257,-0.576171 0.636719,-0.576171 z"
         id="path88" />
    </g>
    <path
       style="color:#000000;fill:#000000 icc-color(sRGB-IEC61966-2, 0.1, 0, 0, 0);stroke-miterlimit:10;-inkscape-stroke:none"
       d="m -0.63867187,12.554688 v 12.55664 h 1.27734374 v -12.55664 z"
       id="path54"
       transform="matrix(-0.35277776,0,0,0.35277776,482.99857,7.5706908)" />
    <path
       style="color:#000000;fill:#000000 icc-color(sRGB-IEC61966-2, 0.1, 0, 0, 0);stroke-miterlimit:10;-inkscape-stroke:none"
       d="M 0.45117188,-0.45117188 -0.45117188,0.45117188 2.5371094,3.4394531 5.5234375,0.45117188 4.6210937,-0.45117188 2.5371094,1.6347656 Z"
       id="path55"
       transform="matrix(-0.35277776,0,0,0.35277776,483.89342,15.534384)" />
    <path
       style="color:#000000;fill:#000000 icc-color(sRGB-IEC61966-2, 0.1, 0, 0, 0);stroke-miterlimit:10;-inkscape-stroke:none"
       d="M -25.111328,-0.63867187 V 0.63867187 H 0 v -1.27734374 z"
       id="path56"
       transform="matrix(-0.35277776,0,0,0.35277776,478.56926,11.999975)" />
    <path
       style="color:#000000;fill:#000000 icc-color(sRGB-IEC61966-2, 0.1, 0, 0, 0);stroke-miterlimit:10;-inkscape-stroke:none"
       d="M -0.45117188,-0.45117188 -3.4394531,2.5371094 -0.45117188,5.5234375 0.45117188,4.6210937 -1.6347656,2.5371094 0.45117188,0.45117188 Z"
       id="path57"
       transform="matrix(-0.35277776,0,0,0.35277776,486.533,11.105101)" />
    <path
       style="color:#000000;fill:#000000 icc-color(sRGB-IEC61966-2, 0.1, 0, 0, 0);stroke-miterlimit:10;-inkscape-stroke:none"
       d="M 0.45117188,-5.5234375 -0.45117188,-4.6210937 1.6347656,-2.5371094 -0.45117188,-0.45117188 0.45117188,0.45117188 3.4394531,-2.5371094 Z"
       id="path58"
       transform="matrix(-0.35277776,0,0,0.35277776,479.4641,12.894822)" />
    <path
       style="stroke-width:0.352777"
       d="m -483.39687,-21.582646 v -0.628385 h -1.55443 v 0.628385 z m 2.34818,0 v -0.628385 h -1.55443 v 0.628385 z m 0,-1.289844 v -0.628386 h -1.55443 v 0.628386 z m -2.34818,0 v -0.628386 h -1.55443 v 0.628386 z m 0,-2.546615 v -0.793751 h 0.79375 v 0.793751 h 3.07578 v 0.661458 h -3.07578 v 0.628386 h 2.38125 v 3.175001 h -2.38125 v 0.529167 h 3.30729 v 0.694531 h -3.30729 v 1.091407 h -0.79375 v -1.091407 h -3.30729 v -0.694531 h 3.30729 v -0.529167 h -2.3151 v -3.175001 h 2.3151 v -0.628386 h -3.07578 v -0.661458 z"
       id="text58"
       transform="scale(-1)"
       aria-label="車" />
  </g>
</svg>
