<?xml version="1.0" encoding="UTF-8" standalone="no"?>
<!-- Created with Inkscape (http://www.inkscape.org/) -->

<svg
   width="30mm"
   height="34mm"
   viewBox="0 0 30 34"
   version="1.1"
   id="svg1"
   xmlns:xlink="http://www.w3.org/1999/xlink"
   xmlns="http://www.w3.org/2000/svg"
   xmlns:svg="http://www.w3.org/2000/svg">
  <defs
     id="defs1">
    <linearGradient
       id="linearGradient22">
      <stop
         style="stop-color:#ffdba6;stop-opacity:1;"
         offset="0"
         id="stop21" />
      <stop
         style="stop-color:#f2c478;stop-opacity:1;"
         offset="1"
         id="stop22" />
    </linearGradient>
    <clipPath
       clipPathUnits="userSpaceOnUse"
       id="clipPath1278-2">
      <path
         d="M 0,2834.646 H 2834.646 V 0 H 0 Z"
         transform="translate(-101.8765,-1555.7911)"
         id="path1278-5" />
    </clipPath>
    <linearGradient
       xlink:href="#linearGradient22"
       id="linearGradient30"
       gradientUnits="userSpaceOnUse"
       gradientTransform="translate(-311.81167,-212.60334)"
       x1="289.06915"
       y1="220.19536"
       x2="289.06967"
       y2="143.72234" />
  </defs>
  <g
     id="layer1"
     transform="translate(-108)">
    <g
       id="path26"
       clip-path="url(#clipPath1278-2)"
       transform="matrix(-0.35277776,0,0,0.35277776,117.06025,25.84846)">
      <path
         style="color:#000000;fill:url(#linearGradient30);stroke-miterlimit:10;-inkscape-stroke:none"
         d="m 0,0 -16.217,5.989 c -0.397,0.146 -0.844,0.146 -1.241,0 L -33.674,0 c -0.531,-0.196 -0.903,-0.627 -0.975,-1.131 l -7.687,-53.534 c -0.122,-0.848 0.627,-1.598 1.595,-1.598 h 23.904 23.903 c 0.969,0 1.717,0.75 1.596,1.598 L 0.975,-1.131 C 0.902,-0.627 0.531,-0.196 0,0"
         id="path97" />
      <path
         style="color:#000000;fill:#4d3608;stroke-miterlimit:10;-inkscape-stroke:none"
         d="m -40.740234,-57.113281 c -1.406573,0 -2.637944,1.165724 -2.4375,2.568359 l 7.6875,53.5351564 c 0.120395,0.84276505 0.731595,1.5150809 1.521484,1.8066406 l 16.216797,5.9902344 c 0.591076,0.2173731 1.237049,0.2173731 1.828125,0 L 0.29492188,0.796875 C 1.085136,0.50519519 1.6946732,-0.16930742 1.8164062,-1.0097656 L 9.5039063,-54.544922 c 0.2001345,-1.402596 -1.0297011,-2.568359 -2.4375001,-2.568359 H -16.837891 Z m 0,1.701172 h 23.902343 23.9042972 c 0.5301992,0 0.7957715,0.333551 0.7539063,0.626953 l -7.6875,53.5332029 c -0.0242668,0.1675408 -0.1559496,0.3547583 -0.42773438,0.4550781 L -16.511719,5.1914062 c -0.202585,0.07396 -0.450026,0.074404 -0.652343,0 L -33.378906,-0.796875 c -0.27211,-0.1004399 -0.40413,-0.2898442 -0.427735,-0.4550781 l -7.6875,-53.5332029 c -0.04208,-0.292456 0.225161,-0.626953 0.753907,-0.626953 z"
         id="path98" />
    </g>
    <path
       style="fill:#ff000f;stroke-width:0.35424"
       d="m -127.24825,-20.155705 0.62579,-0.197619 q 0.3623,0.889283 0.39524,1.185711 l -0.59286,0.263491 q -0.13174,-0.526982 -0.42817,-1.251583 z m 2.56904,-0.230555 0.62579,0.263491 -0.52698,1.119838 q -0.13175,-0.03294 -0.26349,-0.131746 -0.0659,-0.03294 -0.13175,-0.06587 -0.0659,-0.03294 -0.16468,-0.03294 0.0988,-0.230555 0.19762,-0.494046 0.13175,-0.263491 0.26349,-0.658728 z m 3.75475,-1.515075 v -0.757537 h -1.94325 v 0.757537 z m 0,-1.383329 v -0.757537 h -1.94325 v 0.757537 z m -2.70078,4.973397 v -6.422599 h 3.42538 v 3.524196 h -1.21865 q 0.0659,0.625791 0.0659,0.658728 0.0329,0.131745 0.0988,0.46111 l 1.15277,-0.856347 0.46111,0.658728 q -0.39524,0.230555 -1.35039,0.856347 0.13174,0.329364 0.32936,0.559919 0.26349,0.329364 0.39524,0.461109 0.13174,0.06587 0.26349,0.164682 0.13175,0.06587 0.42817,0.263491 -0.19761,0.197619 -0.29642,0.263492 -0.0659,0.06587 -0.13175,0.131745 -0.0329,0.03294 -0.0988,0.09881 -0.0329,0.06587 -0.0988,0.131745 -0.7246,-0.559919 -0.98809,-0.922219 -0.42817,-0.494046 -0.62579,-1.086902 -0.29643,-0.856346 -0.32937,-1.844438 h -0.7246 v 2.700785 q 0.29643,-0.09881 0.55992,-0.164682 0.26349,-0.06587 0.52698,-0.131746 l 0.0329,0.724601 q -2.04206,0.592856 -2.27261,0.658728 l -0.19762,-0.757537 z m -2.17381,-6.817835 0.69167,0.3623 -0.0988,0.164682 0.59285,0.46111 q 0.0659,0.03294 0.23056,0.197618 l 0.49404,0.395237 -0.52698,0.625792 q -0.85634,-0.790474 -0.85634,-0.790474 -0.0988,-0.09881 -0.19762,-0.164682 -0.0659,-0.06587 -0.13175,-0.09881 -0.55992,0.889283 -0.92222,1.251583 h 2.075 v 0.625792 h -0.82341 v 0.691664 h 1.02102 v 0.625792 h -1.02102 v 2.10793 q 0.65872,-0.131746 0.98809,-0.230555 v 0.691665 q -0.69167,0.197618 -1.58095,0.395237 l -1.25158,0.296427 -0.19762,-0.790474 1.35039,-0.197618 v -2.272612 h -1.15277 v -0.625792 h 1.15277 v -0.691664 h -0.65873 V -22.593 l -0.39523,0.428173 q -0.2635,-0.46111 -0.42818,-0.691665 0.92222,-0.922219 1.64682,-2.272611 z"
       id="text26"
       transform="scale(-0.99587063,-1.0041465)"
       aria-label="銀" />
    <path
       style="color:#000000;fill:#ff0000;stroke-miterlimit:10;-inkscape-stroke:none"
       d="M -0.63867187,0 V 25.111328 H 0.63867187 V 0 Z"
       id="path27"
       transform="matrix(-0.35277776,0,0,0.35277776,122.99995,7.5705148)" />
    <path
       style="color:#000000;fill:#ff0000;stroke-miterlimit:10;-inkscape-stroke:none"
       d="m -2.5371094,-3.4394531 -2.9863281,2.98828122 0.9023438,0.90234376 2.0839843,-2.08593748 2.08593752,2.08593748 0.90234376,-0.90234376 z"
       id="path28"
       transform="matrix(-0.35277776,0,0,0.35277776,122.10508,8.4653878)" />
    <path
       style="color:#000000;fill:#ff0000;stroke-miterlimit:10;-inkscape-stroke:none"
       d="m -9.328125,8.4277344 -8.878906,8.8769526 0.902344,0.902344 8.8769526,-8.878906 z"
       id="path29"
       transform="matrix(-0.35277776,0,0,0.35277776,119.86795,8.8678718)" />
    <path
       style="color:#000000;fill:#ff0000;stroke-miterlimit:10;-inkscape-stroke:none"
       d="m -8.4277344,-9.328125 -0.9003906,0.9003906 8.87695312,8.87890628 0.90234376,-0.90234376 z"
       id="path30"
       transform="matrix(-0.35277776,0,0,0.35277776,119.86795,15.13175)" />
  </g>
</svg>
