<?xml version="1.0" encoding="UTF-8" standalone="no"?>
<svg
   xmlns:dc="http://purl.org/dc/elements/1.1/"
   xmlns:cc="http://creativecommons.org/ns#"
   xmlns:rdf="http://www.w3.org/1999/02/22-rdf-syntax-ns#"
   xmlns:svg="http://www.w3.org/2000/svg"
   xmlns="http://www.w3.org/2000/svg"
   xmlns:sodipodi="http://sodipodi.sourceforge.net/DTD/sodipodi-0.dtd"
   xmlns:inkscape="http://www.inkscape.org/namespaces/inkscape"
   width="92"
   height="92"
   id="svg2"
   version="1.1"
   inkscape:version="1.0.2 (e86c870879, 2021-01-15)"
   sodipodi:docname="GOrca_H.svg">
  <metadata
     id="metadata12">
    <rdf:RDF>
      <cc:Work
         rdf:about="">
        <dc:format>image/svg+xml</dc:format>
        <dc:type
           rdf:resource="http://purl.org/dc/dcmitype/StillImage" />
        <dc:title></dc:title>
      </cc:Work>
    </rdf:RDF>
  </metadata>
  <defs
     id="defs10">
    <filter
       height="1.5"
       width="1.5"
       y="0"
       x="0"
       id="f1"
       color-interpolation-filters="sRGB">
      <feOffset
         id="feOffset3039"
         dy="0"
         dx="1"
         in="SourceAlpha"
         result="offOut" />
      <feGaussianBlur
         id="feGaussianBlur3041"
         stdDeviation="1"
         in="offOut"
         result="blurOut" />
      <!--
      <feBlend in="SourceGraphic" in2="blurOut" mode="normal" />
-->
    </filter>
    <linearGradient
       y2="1"
       x2="0"
       y1="0"
       x1="0"
       id="grad1">
      <stop
         id="stop3034"
         style="stop-color:rgb(255,255,255);stop-opacity:0.6"
         offset="20%" />
      <stop
         id="stop3036"
         style="stop-color:rgb(220,0,0);stop-opacity:0.5"
         offset="50%" />
    </linearGradient>
    <linearGradient
       y2="1"
       x2="0"
       y1="0"
       x1="0"
       id="grad0">
      <stop
         id="stop3029"
         style="stop-color:rgb(0,0,0);stop-opacity:0.3"
         offset="20%" />
      <stop
         id="stop3031"
         style="stop-color:rgb(0,0,0);stop-opacity:0.6"
         offset="100%" />
    </linearGradient>
    <inkscape:path-effect
       effect="mirror_symmetry"
       start_point="274.21267,350.55066"
       end_point="273.50284,477.30227"
       center_point="273.85776,413.92646"
       id="path-effect4557-0-4"
       is_visible="true"
       mode="free"
       discard_orig_path="false"
       fuse_paths="true"
       oposite_fuse="false" />
    <filter
       style="color-interpolation-filters:sRGB;"
       inkscape:label="Drop Shadow"
       id="filter19739">
      <feFlood
         flood-opacity="1"
         flood-color="rgb(91,93,90)"
         result="flood"
         id="feFlood19729" />
      <feComposite
         in="flood"
         in2="SourceGraphic"
         operator="in"
         result="composite1"
         id="feComposite19731" />
      <feGaussianBlur
         in="composite1"
         stdDeviation="0"
         result="blur"
         id="feGaussianBlur19733" />
      <feOffset
         dx="0"
         dy="4"
         result="offset"
         id="feOffset19735" />
      <feComposite
         in="SourceGraphic"
         in2="offset"
         operator="over"
         result="composite2"
         id="feComposite19737" />
    </filter>
  </defs>
  <sodipodi:namedview
     pagecolor="#ffffff"
     bordercolor="#666666"
     borderopacity="1"
     objecttolerance="10"
     gridtolerance="10"
     guidetolerance="10"
     inkscape:pageopacity="0"
     inkscape:pageshadow="2"
     inkscape:window-width="1366"
     inkscape:window-height="741"
     id="namedview8"
     showgrid="false"
     inkscape:zoom="4.6462674"
     inkscape:cx="44.533579"
     inkscape:cy="53.566673"
     inkscape:window-x="0"
     inkscape:window-y="0"
     inkscape:window-maximized="1"
     inkscape:current-layer="layer1"
     fit-margin-top="0"
     fit-margin-left="0"
     fit-margin-right="0"
     fit-margin-bottom="0"
     inkscape:pagecheckerboard="false"
     inkscape:document-rotation="0" />
  <g
     inkscape:groupmode="layer"
     id="layer1"
     inkscape:label="Background"
     style="display:inline">
    <path
       id="path2631"
       style="display:inline;opacity:0.658683;fill:#5aa02c;fill-opacity:1;stroke:none;stroke-width:0.765036;stroke-linecap:round;stroke-linejoin:round;paint-order:stroke fill markers"
       d="M 46.000005,5.8613281 34.351565,17.509766 a 30.780178,30.780178 0 0 0 -16.8418,16.841797 L 5.861325,46 17.507815,57.646484 a 30.780178,30.780178 0 0 0 16.8457,16.845704 l 11.64649,11.646484 11.64648,-11.646484 a 30.780178,30.780178 0 0 0 16.8418,-16.841797 L 86.138675,46 74.492185,34.353516 A 30.780178,30.780178 0 0 0 57.650395,17.511719 Z" />
    <g
       id="g2029"
       transform="rotate(-21.628179,45.638788,45.668474)">
      <path
         class="fil0"
         d="m 44.882278,49.797888 c -0.270111,-0.518501 -0.530451,-0.904806 -0.450738,-1.614928 0.234392,-2.089732 1.924103,-2.705671 3.908641,-2.860355 3.362974,-0.262261 4.928571,0.585183 7.714056,1.817527 1.616736,0.715326 5.802195,2.554816 6.745926,3.597207 0.465862,0.514623 0.363812,1.115775 -0.36378,1.289383 -1.105684,0.263785 -4.353679,-1.015564 -5.859272,-0.736424 -0.30066,0.500606 -0.301041,1.420652 -0.203946,1.885642 1.016804,0.315043 2.156799,0.676402 3.103737,1.100964 0.87454,0.392073 1.768171,0.889363 2.590821,1.323312 1.721301,0.908145 3.427994,1.75323 5.155125,2.678656 2.213911,1.18628 4.803466,2.991682 7.085038,4.359099 1.311924,0.786269 1.439183,1.09481 2.479696,0.551923 0.274711,0.159663 1.058949,1.575503 1.105365,1.77244 -0.756221,-0.257284 -4.583648,-2.114859 -5.55704,-2.588223 -1.783039,-0.867168 -3.284276,-1.89669 -4.983504,-2.866672 -1.691365,-0.96547 -3.345223,-1.905364 -5.065554,-2.83034 -2.422187,-1.302328 -3.142901,-1.5723 -5.748122,-2.450236 C 54.413492,53.510719 52.299795,52.78838 50.087539,52.201628 48.87123,51.878981 45.443525,51.38616 43.859128,51.089157 43.470357,51.016339 31.490698,48.279831 30.947795,48.078979 l -0.243507,-1.162553 c 2.347334,0.711515 4.87072,1.217961 7.260042,1.723675 2.177145,0.460801 3.198415,0.604163 5.233432,0.934119 z M 7.5580326,33.287791 c 1.1701394,-0.218069 3.8334984,0.40221 5.2497804,0.682424 1.043165,0.206438 1.729194,0.249152 2.588766,0.785825 2.070114,1.292319 3.538823,2.685881 5.047736,4.551439 0.545017,0.673745 0.642995,1.025864 0.800012,2.003495 0.08902,0.554554 0.228231,1.690838 0.226846,2.246965 -0.405448,-0.175894 -1.405971,-0.985505 -1.807128,-1.273573 -0.6033,-0.43331 -1.20773,-0.811792 -1.849062,-1.214447 C 15.566931,39.658486 12.172872,37.769966 10.191453,36.32874 9.3399925,35.70937 7.1903991,34.301223 7.5580326,33.287791 Z M 19.500578,32.029943 c 0.712716,0.110929 1.576291,0.392911 2.129661,0.807159 0.449934,0.336827 0.975159,0.9572 0.353713,1.548531 -0.692473,0.658934 -2.341544,0.792184 -3.636141,0.56175 -4.249168,-0.756415 -3.446363,-3.633007 1.152767,-2.91744 z M 7.1181277,30.904625 c -0.2086075,0.721211 -0.2413218,1.314768 -0.06937,2.012643 0.06176,0.250466 0.1332867,0.251013 0.1965615,0.463295 0.2043808,0.685092 0.06588,0.835474 0.9566766,1.655292 2.0900522,1.923486 5.1258722,3.589704 7.6422982,5.091105 1.108399,0.661274 2.25982,1.345532 3.314492,2.071254 0.610793,0.420389 1.111789,0.819776 1.720856,1.234397 0.864346,0.5883 0.688297,0.723489 0.994745,2.153886 l 0.254965,0.950735 c 0.17545,0.650591 0.46966,1.227535 0.724201,1.835308 0.08448,0.201594 0.09725,0.255316 0.20953,0.456144 1.060825,1.897227 3.761061,5.256522 5.799784,5.846215 0.479851,0.138795 1.707269,-0.572814 1.923122,-1.319074 0.315666,-1.091342 0.436238,-4.102894 0.245318,-5.019223 1.380067,0.399179 3.357826,0.690989 4.711105,1.09592 0.445098,0.133155 0.702003,0.131004 1.192321,0.276797 1.200696,0.356904 2.375265,0.478184 3.579043,0.834169 l 4.724365,1.025614 c 0.711287,0.134845 1.531604,0.265129 2.282658,0.368811 0.404392,0.05575 0.735591,0.128446 1.143455,0.188162 1.931995,0.283048 4.284935,1.218536 6.166513,1.754761 0.525636,0.149726 0.767546,0.292758 1.28029,0.437891 0.52069,0.147361 0.839883,0.311226 1.278763,0.438676 2.923717,0.849284 5.595234,2.558265 8.22695,3.989782 l 4.506066,2.661868 c 1.798938,1.153386 7.76596,3.69567 8.181621,4.014714 0.66033,0.506694 1.240417,1.248624 1.737076,1.900873 0.209263,0.274866 0.422802,0.532705 0.631315,0.795442 1.0304,1.29833 2.215452,2.398684 3.789829,3.060534 0.335727,0.141145 0.23026,0.05302 0.577757,0.14524 0.09658,-0.364354 -0.115155,-0.538579 -0.278275,-0.833956 -0.362679,-0.656954 -0.797372,-1.30904 -1.073176,-2.006777 -0.289068,-0.731246 -0.613861,-1.169763 -0.891026,-2.107139 -0.33776,-1.141952 -0.441237,-2.447946 0.647086,-3.218774 0.199743,-0.141475 0.766308,-0.378842 1.046674,-0.36402 0.171641,-0.853474 -1.336863,-1.659208 -2.319951,-1.943562 -1.351487,-0.390913 -2.508464,-0.46394 -3.668594,-0.525317 -0.142101,-0.682023 -0.604293,-1.527306 -0.892899,-2.158071 l -0.518981,-1.013096 c -0.568506,-1.030307 -1.137727,-2.037937 -1.822262,-2.997056 -1.382754,-1.937571 -2.891714,-3.797729 -4.592292,-5.472118 -2.36552,-2.329109 -4.686285,-4.595317 -7.407302,-6.571433 -1.403308,-1.019172 -2.923671,-2.014015 -4.404565,-2.925681 -0.353757,-0.217831 -0.748121,-0.463 -1.074491,-0.707128 l -2.10372,-1.491111 c -0.482238,-0.350935 -1.588264,-1.088551 -1.85166,-1.630014 -0.872911,-1.794145 -0.480021,-3.258546 0.07767,-5.186615 0.275375,-0.952044 0.598426,-1.760929 1.015518,-2.681294 1.0407,-2.296375 0.397897,-2.450105 2.13572,-5.172909 0.327507,-0.513055 2.116392,-3.146586 0.748383,-3.542277 -0.544139,-0.15739 -0.621615,-0.153596 -1.125782,0.126365 l -1.95657,1.258503 c -0.221191,0.16321 -0.398504,0.299766 -0.613958,0.48882 -0.183632,0.16115 -0.411926,0.329451 -0.609487,0.496826 l -1.197129,1.127532 c -0.372516,0.393119 -0.730793,0.748485 -1.12115,1.171095 -0.202292,0.218921 -0.34717,0.422541 -0.537735,0.626878 -1.312848,1.407303 -2.506775,3.006959 -3.787708,4.439952 -0.203752,0.227957 -0.319663,0.417791 -0.537688,0.626964 -0.195013,0.187025 -0.425402,0.319635 -0.626173,0.46666 -0.810246,0.593393 -2.096668,0.881784 -3.098781,0.884087 -1.256045,0.0029 -2.649493,-0.19575 -3.897651,-0.563778 -3.121873,-0.920459 -11.106072,-2.375827 -13.9654,-2.700709 -3.016714,-0.342828 -5.323077,-0.552816 -8.328283,-0.586005 -0.257829,-0.0029 -0.587326,-5.92e-4 -0.879712,0.0072 -0.921834,0.02451 -1.575195,0.164365 -2.456097,0.353115 -1.813265,0.388676 -5.3685545,1.876644 -5.9548556,3.903642 z"
         id="path6192"
         style="clip-rule:evenodd;fill:#000000;fill-rule:evenodd;stroke:#000000;stroke-width:2;stroke-miterlimit:4;stroke-dasharray:none;image-rendering:optimizeQuality;shape-rendering:geometricPrecision;text-rendering:geometricPrecision" />
      <g
         id="g2021">
        <path
           class="fil0"
           d="m 45.186269,49.797888 c -0.270111,-0.518501 -0.530451,-0.904806 -0.450738,-1.614929 0.234392,-2.089731 1.924103,-2.70567 3.908641,-2.860355 3.362973,-0.26226 4.928571,0.585183 7.714056,1.817528 1.616736,0.715325 5.802195,2.554815 6.745926,3.597207 0.465862,0.514623 0.363812,1.115775 -0.36378,1.289383 -1.105684,0.263785 -4.353679,-1.015564 -5.859272,-0.736424 -0.300661,0.500605 -0.301041,1.420652 -0.203946,1.885642 1.016804,0.315043 2.156799,0.676401 3.103737,1.100964 0.87454,0.392072 1.768171,0.889363 2.590821,1.323312 1.721301,0.908145 3.427994,1.75323 5.155125,2.678655 2.213911,1.186281 4.803466,2.991683 7.085038,4.3591 1.311924,0.786269 1.439183,1.09481 2.479696,0.551923 0.274711,0.159663 1.058949,1.575503 1.105365,1.772439 -0.756221,-0.257283 -4.583648,-2.114859 -5.55704,-2.588222 -1.783039,-0.867169 -3.284276,-1.89669 -4.983504,-2.866673 -1.691365,-0.965469 -3.345223,-1.905364 -5.065554,-2.830339 -2.422188,-1.302328 -3.142901,-1.5723 -5.748122,-2.450236 C 54.717483,53.510718 52.603786,52.78838 50.39153,52.201628 49.175221,51.87898 45.747515,51.38616 44.163119,51.089157 43.774347,51.016338 31.794689,48.279831 31.251786,48.078979 l -0.243508,-1.162553 c 2.347335,0.711515 4.870721,1.217961 7.260043,1.723674 2.177145,0.460802 3.198414,0.604163 5.233432,0.93412 z M 7.8620238,33.287791 c 1.1701389,-0.21807 3.8334982,0.40221 5.2497802,0.682424 1.043165,0.206437 1.729194,0.249152 2.588765,0.785825 2.070115,1.292319 3.538824,2.685881 5.047737,4.551438 0.545017,0.673745 0.642995,1.025864 0.800012,2.003496 0.08902,0.554554 0.228231,1.690838 0.226845,2.246965 -0.405448,-0.175895 -1.40597,-0.985505 -1.807127,-1.273573 -0.6033,-0.43331 -1.207731,-0.811792 -1.849063,-1.214448 -2.24805,-1.411432 -5.64211,-3.299952 -7.623529,-4.741178 C 9.643983,35.70937 7.4943908,34.301222 7.8620238,33.287791 Z M 19.804568,32.029943 c 0.712718,0.110929 1.576292,0.392911 2.129662,0.807158 0.449934,0.336827 0.975158,0.957201 0.353713,1.548531 -0.692472,0.658935 -2.341544,0.792185 -3.636142,0.561751 -4.249168,-0.756416 -3.446362,-3.633008 1.152767,-2.91744 z M 7.4221193,30.904625 c -0.2086075,0.721211 -0.2413219,1.314768 -0.06937,2.012643 0.061759,0.250465 0.133287,0.251013 0.1965608,0.463294 0.2043817,0.685093 0.06588,0.835474 0.9566772,1.655293 2.0900507,1.923485 5.1258717,3.589703 7.6422967,5.091105 1.1084,0.661274 2.259821,1.345531 3.314494,2.071253 0.610791,0.420389 1.111789,0.819777 1.720855,1.234397 0.864347,0.588301 0.688296,0.723489 0.994746,2.153887 l 0.254964,0.950735 c 0.17545,0.650591 0.46966,1.227535 0.724201,1.835307 0.08448,0.201595 0.09725,0.255317 0.20953,0.456145 1.060825,1.897227 3.76106,5.256522 5.799783,5.846214 0.479852,0.138796 1.70727,-0.572814 1.923123,-1.319073 0.315666,-1.091343 0.436238,-4.102894 0.245318,-5.019224 1.380067,0.399179 3.357825,0.69099 4.711105,1.095921 0.445098,0.133155 0.702003,0.131003 1.19232,0.276797 1.200697,0.356904 2.375265,0.478184 3.579043,0.834169 l 4.724366,1.025614 c 0.711287,0.134844 1.531604,0.265129 2.282658,0.36881 0.404391,0.05575 0.73559,0.128446 1.143455,0.188162 1.931995,0.283049 4.284934,1.218537 6.166513,1.754761 0.525635,0.149727 0.767546,0.292759 1.280289,0.437892 0.520691,0.14736 0.839884,0.311225 1.278764,0.438676 2.923717,0.849284 5.595234,2.558264 8.22695,3.989781 l 4.506066,2.661868 c 1.798937,1.153387 7.76596,3.695671 8.181621,4.014715 0.66033,0.506693 1.240417,1.248624 1.737075,1.900873 0.209264,0.274866 0.422803,0.532705 0.631315,0.795442 1.030401,1.29833 2.215452,2.398684 3.78983,3.060534 0.335727,0.141145 0.23026,0.05302 0.577757,0.14524 0.09658,-0.364354 -0.115155,-0.538579 -0.278275,-0.833957 -0.362679,-0.656953 -0.797372,-1.309039 -1.073177,-2.006776 -0.289067,-0.731247 -0.61386,-1.169764 -0.891025,-2.107139 -0.33776,-1.141952 -0.441237,-2.447946 0.647086,-3.218774 0.199742,-0.141475 0.766308,-0.378843 1.046673,-0.36402 0.171642,-0.853474 -1.336862,-1.659208 -2.31995,-1.943563 -1.351487,-0.390912 -2.508464,-0.46394 -3.668594,-0.525317 -0.142101,-0.682023 -0.604293,-1.527305 -0.892899,-2.15807 l -0.518982,-1.013096 c -0.568506,-1.030307 -1.137726,-2.037938 -1.822261,-2.997057 -1.382754,-1.93757 -2.891714,-3.797728 -4.592292,-5.472117 -2.365521,-2.32911 -4.686285,-4.595317 -7.407302,-6.571434 -1.403308,-1.019171 -2.923671,-2.014014 -4.404565,-2.925681 -0.353757,-0.217831 -0.748121,-0.462999 -1.074491,-0.707127 l -2.10372,-1.491111 c -0.482238,-0.350935 -1.588264,-1.088551 -1.851661,-1.630014 -0.87291,-1.794145 -0.48002,-3.258546 0.07767,-5.186615 0.275374,-0.952044 0.598425,-1.760929 1.015518,-2.681294 1.040699,-2.296375 0.397897,-2.450106 2.13572,-5.172909 0.327507,-0.513054 2.116392,-3.146587 0.748383,-3.542278 -0.544139,-0.15739 -0.621615,-0.153594 -1.125782,0.126366 l -1.956571,1.258504 c -0.221191,0.163209 -0.398503,0.299765 -0.613957,0.488818 -0.183632,0.161151 -0.411926,0.329453 -0.609487,0.496826 l -1.19713,1.127533 c -0.372516,0.393119 -0.730792,0.748485 -1.12115,1.171095 -0.202291,0.218921 -0.34717,0.422541 -0.537735,0.626878 -1.312847,1.407303 -2.506775,3.006959 -3.787708,4.439952 -0.203751,0.227957 -0.319662,0.417791 -0.537687,0.626964 -0.195014,0.187025 -0.425402,0.319635 -0.626173,0.46666 -0.810246,0.593392 -2.096669,0.881784 -3.098781,0.884087 -1.256045,0.0029 -2.649494,-0.19575 -3.897651,-0.563778 -3.121873,-0.920459 -11.106072,-2.375827 -13.965401,-2.700709 -3.016713,-0.342829 -5.323076,-0.552816 -8.328282,-0.586006 -0.257828,-0.0029 -0.587327,-5.91e-4 -0.879711,0.0072 -0.921835,0.02451 -1.575196,0.164365 -2.456099,0.353114 -1.813265,0.388677 -5.3685526,1.876645 -5.9548538,3.903643 z"
           id="path6182"
           style="clip-rule:evenodd;fill:#000000;fill-rule:evenodd;stroke-width:1.5;stroke-miterlimit:4;stroke-dasharray:none;image-rendering:optimizeQuality;shape-rendering:geometricPrecision;text-rendering:geometricPrecision" />
        <path
           class="fil1"
           d="M 45.186269,49.797888 43.501753,49.57422 C 41.466735,49.244263 40.445466,49.100902 38.268321,48.6401 35.878999,48.134387 33.355613,47.627941 31.008278,46.916426 l 0.243508,1.162553 c 0.542903,0.200852 12.522561,2.937359 12.911333,3.010178 1.584396,0.297003 5.012102,0.789823 6.228411,1.112471 2.212256,0.586752 4.325953,1.30909 6.451188,2.025235 2.605221,0.877936 3.325934,1.147908 5.748122,2.450236 1.720331,0.924975 3.374189,1.86487 5.065554,2.830339 1.699228,0.969983 3.200465,1.999504 4.983504,2.866673 0.973392,0.473363 4.800819,2.330939 5.55704,2.588222 -0.04642,-0.196936 -0.830654,-1.612776 -1.105365,-1.772439 -1.040513,0.542887 -1.167772,0.234346 -2.479696,-0.551923 -2.281572,-1.367417 -4.871127,-3.172819 -7.085038,-4.3591 -1.727131,-0.925425 -3.433824,-1.77051 -5.155125,-2.678655 -0.82265,-0.433949 -1.716281,-0.93124 -2.590821,-1.323312 -0.946938,-0.424563 -2.086933,-0.785921 -3.103737,-1.100964 -0.09709,-0.46499 -0.09671,-1.385037 0.203946,-1.885642 1.505593,-0.27914 4.753588,1.000209 5.859272,0.736424 0.727592,-0.173608 0.829642,-0.77476 0.36378,-1.289383 -0.943731,-1.042392 -5.12919,-2.881882 -6.745926,-3.597207 -2.785485,-1.232345 -4.351083,-2.079788 -7.714056,-1.817528 -1.984538,0.154685 -3.674249,0.770624 -3.908641,2.860355 -0.07971,0.710123 0.180627,1.096428 0.450738,1.614929 z"
           id="path6184"
           style="clip-rule:evenodd;fill:#fefefe;fill-rule:evenodd;stroke-width:0.183;stroke-miterlimit:4;stroke-dasharray:none;image-rendering:optimizeQuality;shape-rendering:geometricPrecision;text-rendering:geometricPrecision" />
        <path
           class="fil1"
           d="m 7.8620238,33.287791 c -0.367633,1.013431 1.7819592,2.421579 2.6334202,3.040949 1.981419,1.441226 5.375479,3.329746 7.623529,4.741178 0.641332,0.402656 1.245763,0.781138 1.849063,1.214448 0.401157,0.288068 1.401679,1.097678 1.807127,1.273573 0.0014,-0.556127 -0.137824,-1.692411 -0.226845,-2.246965 -0.157017,-0.977632 -0.254995,-1.329751 -0.800012,-2.003496 -1.508913,-1.865557 -2.977622,-3.259119 -5.047737,-4.551438 -0.859571,-0.536673 -1.5456,-0.579388 -2.588765,-0.785825 -1.416282,-0.280214 -4.0796413,-0.900494 -5.2497802,-0.682424 z"
           id="path6186"
           style="clip-rule:evenodd;fill:#fefefe;fill-rule:evenodd;stroke-width:0.183;stroke-miterlimit:4;stroke-dasharray:none;image-rendering:optimizeQuality;shape-rendering:geometricPrecision;text-rendering:geometricPrecision" />
        <path
           class="fil1"
           d="m 19.804568,32.029943 c -4.599129,-0.715568 -5.401935,2.161024 -1.152767,2.91744 1.294598,0.230434 2.94367,0.09718 3.636142,-0.561751 0.621445,-0.59133 0.09622,-1.211704 -0.353713,-1.548531 -0.55337,-0.414247 -1.416944,-0.696229 -2.129662,-0.807158 z"
           id="path6188"
           style="clip-rule:evenodd;fill:#fefefe;fill-rule:evenodd;stroke-width:0.183;stroke-miterlimit:4;stroke-dasharray:none;image-rendering:optimizeQuality;shape-rendering:geometricPrecision;text-rendering:geometricPrecision" />
      </g>
    </g>
  </g>
  <g
     inkscape:groupmode="layer"
     id="layer2"
     inkscape:label="Symbol"
     style="display:inline" />
</svg>
