<?xml version="1.0" encoding="UTF-8" standalone="no"?>
<svg
   xmlns:dc="http://purl.org/dc/elements/1.1/"
   xmlns:cc="http://creativecommons.org/ns#"
   xmlns:rdf="http://www.w3.org/1999/02/22-rdf-syntax-ns#"
   xmlns:svg="http://www.w3.org/2000/svg"
   xmlns="http://www.w3.org/2000/svg"
   xmlns:sodipodi="http://sodipodi.sourceforge.net/DTD/sodipodi-0.dtd"
   xmlns:inkscape="http://www.inkscape.org/namespaces/inkscape"
   width="92"
   height="92"
   id="svg2"
   version="1.1"
   inkscape:version="1.0.1 (3bc2e813f5, 2020-09-07)"
   sodipodi:docname="GSperm.svg">
  <metadata
     id="metadata12">
    <rdf:RDF>
      <cc:Work
         rdf:about="">
        <dc:format>image/svg+xml</dc:format>
        <dc:type
           rdf:resource="http://purl.org/dc/dcmitype/StillImage" />
        <dc:title></dc:title>
      </cc:Work>
    </rdf:RDF>
  </metadata>
  <defs
     id="defs10">
    <filter
       height="1.5"
       width="1.5"
       y="0"
       x="0"
       id="f1"
       color-interpolation-filters="sRGB">
      <feOffset
         id="feOffset3039"
         dy="0"
         dx="1"
         in="SourceAlpha"
         result="offOut" />
      <feGaussianBlur
         id="feGaussianBlur3041"
         stdDeviation="1"
         in="offOut"
         result="blurOut" />
      <!--
      <feBlend in="SourceGraphic" in2="blurOut" mode="normal" />
-->
    </filter>
    <linearGradient
       y2="1"
       x2="0"
       y1="0"
       x1="0"
       id="grad1">
      <stop
         id="stop3034"
         style="stop-color:rgb(255,255,255);stop-opacity:0.6"
         offset="20%" />
      <stop
         id="stop3036"
         style="stop-color:rgb(220,0,0);stop-opacity:0.5"
         offset="50%" />
    </linearGradient>
    <linearGradient
       y2="1"
       x2="0"
       y1="0"
       x1="0"
       id="grad0">
      <stop
         id="stop3029"
         style="stop-color:rgb(0,0,0);stop-opacity:0.3"
         offset="20%" />
      <stop
         id="stop3031"
         style="stop-color:rgb(0,0,0);stop-opacity:0.6"
         offset="100%" />
    </linearGradient>
    <inkscape:path-effect
       effect="mirror_symmetry"
       start_point="274.21267,350.55066"
       end_point="273.50284,477.30227"
       center_point="273.85776,413.92646"
       id="path-effect4557-0-4"
       is_visible="true"
       mode="free"
       discard_orig_path="false"
       fuse_paths="true"
       oposite_fuse="false" />
    <filter
       style="color-interpolation-filters:sRGB;"
       inkscape:label="Drop Shadow"
       id="filter19739">
      <feFlood
         flood-opacity="1"
         flood-color="rgb(91,93,90)"
         result="flood"
         id="feFlood19729" />
      <feComposite
         in="flood"
         in2="SourceGraphic"
         operator="in"
         result="composite1"
         id="feComposite19731" />
      <feGaussianBlur
         in="composite1"
         stdDeviation="0"
         result="blur"
         id="feGaussianBlur19733" />
      <feOffset
         dx="0"
         dy="4"
         result="offset"
         id="feOffset19735" />
      <feComposite
         in="SourceGraphic"
         in2="offset"
         operator="over"
         result="composite2"
         id="feComposite19737" />
    </filter>
  </defs>
  <sodipodi:namedview
     pagecolor="#ffffff"
     bordercolor="#666666"
     borderopacity="1"
     objecttolerance="10"
     gridtolerance="10"
     guidetolerance="10"
     inkscape:pageopacity="0"
     inkscape:pageshadow="2"
     inkscape:window-width="3840"
     inkscape:window-height="2050"
     id="namedview8"
     showgrid="false"
     inkscape:zoom="10.488889"
     inkscape:cx="111.75509"
     inkscape:cy="-8.3480375"
     inkscape:window-x="-12"
     inkscape:window-y="-12"
     inkscape:window-maximized="1"
     inkscape:current-layer="layer1"
     fit-margin-top="0"
     fit-margin-left="0"
     fit-margin-right="0"
     fit-margin-bottom="0"
     inkscape:pagecheckerboard="false"
     inkscape:document-rotation="0" />
  <g
     inkscape:groupmode="layer"
     id="layer1"
     inkscape:label="Background"
     style="display:inline">
    <rect
       style="opacity:0.658683;fill:#5aa02c;fill-opacity:1;stroke:none;stroke-width:1.35371;stroke-linecap:round;stroke-linejoin:round;stroke-miterlimit:4;stroke-dasharray:none;paint-order:stroke fill markers"
       id="rect2661"
       width="56.763947"
       height="56.763947"
       x="-28.381973"
       y="36.671852"
       transform="rotate(-45)" />
    <ellipse
       style="opacity:1;fill:#000000;fill-opacity:1;stroke:#ffffff;stroke-width:1.5;stroke-linecap:round;stroke-linejoin:round;stroke-miterlimit:4;stroke-dasharray:none;paint-order:stroke fill markers"
       id="path3993"
       cx="34.280449"
       cy="50.978069"
       rx="6.3707027"
       ry="4.4156723" />
    <path
       style="fill:#005544;stroke:#000000;stroke-width:1.5;stroke-miterlimit:4;stroke-dasharray:none"
       d="m 60.627312,77.337879 c -0.60428,-0.228052 -2.50232,-1.589845 -4.26508,-3.060083 -2.17905,-1.81743 -3.8851,-3.671066 -5.53145,-6.009936 -0.23506,-0.333932 -0.61591,-0.497121 -1.68284,-0.721071 -0.75847,-0.159202 -1.65803,-0.362998 -1.99903,-0.452879 -0.34099,-0.08988 -1.57655,-0.411814 -2.74569,-0.7154 -4.51102,-1.171378 -7.58191,-2.137272 -14.08273,-4.429492 -1.70499,-0.601185 -3.29926,-1.15871 -3.54283,-1.238948 -1.53426,-0.505409 -3.54495,-1.118361 -4.07425,-1.242023 -0.57864,-0.135193 -3.4968,-0.902824 -4.69425,-1.234841 -0.29228,-0.08104 -0.96985,-0.268623 -1.5057,-0.416851 -2.81347,-0.778254 -5.6931,-1.871147 -6.24422,-2.369862 -0.4590003,-0.415329 -0.3771103,-0.89036 0.20543,-1.191596 0.28347,-0.146596 0.55331,-0.367855 0.59963,-0.491691 0.0601,-0.160645 0.15853,-0.128578 0.34344,0.111907 0.14253,0.185384 0.3342,0.290676 0.42595,0.233985 0.0918,-0.0567 0.7216,-0.02712 1.39971,0.06569 0.67811,0.09282 1.6315,0.213805 2.11865,0.268848 0.48713,0.05504 0.96143,0.172731 1.05399,0.26153 0.20422,0.195938 0.4517,0.21103 0.4517,0.02754 0,-0.150006 -0.41293,-0.340515 -2.21426,-1.021555 C 6.9649367,50.80805 4.9821617,49.614006 3.7647887,47.159799 c -1.277489,-2.575286 -1.151645,-6.67562 0.334204,-10.893036 1.123055,-3.187443 2.771626,-5.828096 4.206799,-6.738253 0.70623,-0.447897 1.00193,-0.524543 2.0236903,-0.524543 0.65813,0 1.57917,0.07156 2.04672,0.15901 0.46759,0.08745 1.40814,0.254137 2.09014,0.370406 2.83015,0.48249 6.31437,1.202931 10.2742,2.124423 0.38971,0.09069 1.2267,0.283773 1.85998,0.429073 2.3933,0.549124 5.78041,1.36191 6.37709,1.53028 0.34099,0.09622 1.2577,0.327174 2.03712,0.513227 0.77943,0.186056 2.01499,0.49817 2.74569,0.693587 0.73071,0.195419 2.08585,0.554545 3.01141,0.798057 2.38365,0.627134 5.4556,1.506577 6.28852,1.80029 2.76387,0.974634 2.38426,0.806255 7.81514,3.466503 6.55235,3.209591 7.24786,3.494186 8.92702,3.652882 1.38167,0.130577 2.97792,-0.608586 4.38004,-2.028237 1.21632,-1.23152 1.95589,-1.64103 2.9637,-1.64103 1.94572,0 3.78566,-0.640737 6.09276,-2.121725 2.0944,-1.344455 2.8582,-2.289825 2.8582,-3.53767 0,-0.627268 -0.25887,-0.69957 -1.85999,-0.519504 -4.02454,0.452608 -5.65693,0.56132 -8.69614,0.57913 -2.61112,0.01531 -3.48923,-0.03747 -3.85283,-0.231544 -0.25901,-0.138248 -0.47092,-0.330007 -0.47092,-0.426133 0,-0.634683 2.73737,-3.015066 5.57995,-4.852266 1.63568,-1.057155 2.60675,-1.492191 4.01585,-1.799078 1.13479,-0.247145 1.37459,-0.507573 1.73346,-1.882513 0.33606,-1.287573 1.07288,-2.533011 3.08534,-5.215117 4.12908,-5.503036 4.7753,-5.69145 5.22289,-1.522813 0.28333,2.638897 -0.003,6.210186 -0.98331,12.273597 -0.0512,0.316641 -0.0203,0.57571 0.0687,0.57571 0.21023,0 1.80933,2.118465 2.53233,3.354814 1.60671,2.747503 2.65219,6.766389 2.65252,10.196499 5.2e-4,6.39476 -2.90284,12.873286 -7.63444,17.034811 -3.70826,3.261487 -7.90644,5.086917 -13.79331,5.997536 -1.97163,0.304986 -7.45709,0.348185 -9.82133,0.07734 -2.01487,-0.230817 -2.14823,-0.183511 -1.70541,0.604904 0.50615,0.901146 2.61842,4.176927 3.16733,4.911988 2.05064,2.746069 2.31503,3.354535 1.28941,2.967464 z m -24.87031,-24.38534 c 0.475613,-0.769539 -1.86588,-2.554241 -3.35112,-2.554241 -1.48719,0 -1.730218,0.974827 -0.56424,2.263224 0.247079,0.273021 0.659811,0.480971 1.128601,0.615705 1.073924,0.308654 2.442037,0.23307 2.786759,-0.324688 z"
       id="path3991"
       sodipodi:nodetypes="sssssssssssssssssssssssssssssssssssssssssssssssssssscssssssssssss" />
  </g>
  <g
     inkscape:groupmode="layer"
     id="layer2"
     inkscape:label="Symbol"
     style="display:inline" />
</svg>
