<?xml version="1.0" encoding="UTF-8" standalone="no"?>
<svg
   xmlns:dc="http://purl.org/dc/elements/1.1/"
   xmlns:cc="http://creativecommons.org/ns#"
   xmlns:rdf="http://www.w3.org/1999/02/22-rdf-syntax-ns#"
   xmlns:svg="http://www.w3.org/2000/svg"
   xmlns="http://www.w3.org/2000/svg"
   xmlns:sodipodi="http://sodipodi.sourceforge.net/DTD/sodipodi-0.dtd"
   xmlns:inkscape="http://www.inkscape.org/namespaces/inkscape"
   width="92"
   height="92"
   id="svg2"
   version="1.1"
   inkscape:version="1.0.1 (3bc2e813f5, 2020-09-07)"
   sodipodi:docname="RDolphin.svg">
  <metadata
     id="metadata12">
    <rdf:RDF>
      <cc:Work
         rdf:about="">
        <dc:format>image/svg+xml</dc:format>
        <dc:type
           rdf:resource="http://purl.org/dc/dcmitype/StillImage" />
        <dc:title></dc:title>
      </cc:Work>
    </rdf:RDF>
  </metadata>
  <defs
     id="defs10">
    <filter
       height="1.5"
       width="1.5"
       y="0"
       x="0"
       id="f1"
       color-interpolation-filters="sRGB">
      <feOffset
         id="feOffset3039"
         dy="0"
         dx="1"
         in="SourceAlpha"
         result="offOut" />
      <feGaussianBlur
         id="feGaussianBlur3041"
         stdDeviation="1"
         in="offOut"
         result="blurOut" />
      <!--
      <feBlend in="SourceGraphic" in2="blurOut" mode="normal" />
-->
    </filter>
    <linearGradient
       y2="1"
       x2="0"
       y1="0"
       x1="0"
       id="grad1">
      <stop
         id="stop3034"
         style="stop-color:rgb(255,255,255);stop-opacity:0.6"
         offset="20%" />
      <stop
         id="stop3036"
         style="stop-color:rgb(220,0,0);stop-opacity:0.5"
         offset="50%" />
    </linearGradient>
    <linearGradient
       y2="1"
       x2="0"
       y1="0"
       x1="0"
       id="grad0">
      <stop
         id="stop3029"
         style="stop-color:rgb(0,0,0);stop-opacity:0.3"
         offset="20%" />
      <stop
         id="stop3031"
         style="stop-color:rgb(0,0,0);stop-opacity:0.6"
         offset="100%" />
    </linearGradient>
    <inkscape:path-effect
       effect="mirror_symmetry"
       start_point="274.21267,350.55066"
       end_point="273.50284,477.30227"
       center_point="273.85776,413.92646"
       id="path-effect4557-0-4"
       is_visible="true"
       mode="free"
       discard_orig_path="false"
       fuse_paths="true"
       oposite_fuse="false" />
    <filter
       style="color-interpolation-filters:sRGB;"
       inkscape:label="Drop Shadow"
       id="filter19739">
      <feFlood
         flood-opacity="1"
         flood-color="rgb(91,93,90)"
         result="flood"
         id="feFlood19729" />
      <feComposite
         in="flood"
         in2="SourceGraphic"
         operator="in"
         result="composite1"
         id="feComposite19731" />
      <feGaussianBlur
         in="composite1"
         stdDeviation="0"
         result="blur"
         id="feGaussianBlur19733" />
      <feOffset
         dx="0"
         dy="4"
         result="offset"
         id="feOffset19735" />
      <feComposite
         in="SourceGraphic"
         in2="offset"
         operator="over"
         result="composite2"
         id="feComposite19737" />
    </filter>
  </defs>
  <sodipodi:namedview
     pagecolor="#ffffff"
     bordercolor="#666666"
     borderopacity="1"
     objecttolerance="10"
     gridtolerance="10"
     guidetolerance="10"
     inkscape:pageopacity="0"
     inkscape:pageshadow="2"
     inkscape:window-width="3840"
     inkscape:window-height="2050"
     id="namedview8"
     showgrid="false"
     inkscape:zoom="1.8541911"
     inkscape:cx="126.77717"
     inkscape:cy="304.76882"
     inkscape:window-x="-12"
     inkscape:window-y="-12"
     inkscape:window-maximized="1"
     inkscape:current-layer="layer1"
     fit-margin-top="0"
     fit-margin-left="0"
     fit-margin-right="0"
     fit-margin-bottom="0"
     inkscape:pagecheckerboard="false"
     inkscape:document-rotation="0" />
  <g
     inkscape:groupmode="layer"
     id="layer1"
     inkscape:label="Background"
     style="display:inline">
    <path
       sodipodi:type="star"
       style="opacity:0.659;fill:#800000;fill-opacity:1;stroke:none;stroke-width:1.5;stroke-linecap:round;stroke-linejoin:round;stroke-miterlimit:4;stroke-dasharray:none;paint-order:stroke fill markers"
       id="path6850"
       sodipodi:sides="8"
       sodipodi:cx="-213.75"
       sodipodi:cy="-124.80085"
       sodipodi:r1="147.25537"
       sodipodi:r2="136.04623"
       sodipodi:arg1="0.78539816"
       sodipodi:arg2="1.1780972"
       inkscape:flatsided="true"
       inkscape:rounded="0"
       inkscape:randomized="0"
       d="m -109.62473,-20.675579 -104.12527,43.1301 -104.12527,-43.130099 -43.1301,-104.125272 43.1301,-104.12527 104.12527,-43.1301 104.12527,43.1301 43.130101,104.12527 z"
       transform="matrix(0.11362499,0.27354327,-0.27354327,0.11362499,36.148909,118.65037)" />
    <g
       id="g6846">
      <path
         id="path6834"
         style="fill:#808080;stroke:#ffffff;stroke-width:1.5;stroke-miterlimit:4;stroke-dasharray:none"
         d="m 60.737538,5.3725213 c -2.97027,-0.01635 -6.30864,0.769797 -10.69726,2.394531 -3.29576,1.220135 -6.93547,2.214875 -11.31641,3.0957027 -9.95947,2.002445 -15.82934,4.711553 -20.77539,9.583984 -2.77339,2.732109 -3.58131,4.290709 -3.59375,6.941407 -0.003,0.639921 -0.51839,1.130798 -2.20703,2.101562 -3.3480604,1.92473 -4.6621104,3.352869 -4.6621104,5.0625 0,0.968957 0.27229,1.726037 0.87305,2.423828 0.79169,0.919566 1.08996,1.013178 3.1660104,0.992188 1.2603,-0.01274 4.21858,-0.481061 6.57422,-1.039063 4.7285,-1.120083 5.39851,-1.109497 11.27149,0.167969 3.02909,0.658874 4.39558,0.758971 8.39844,0.615234 l 4.78124,-0.171875 0.41602,1.310547 c 1.38131,4.334632 5.43655,8.564322 11.64258,12.146485 1.98693,1.14687 3.3187,1.03976 3.9375,-0.31836 0.32581,-0.715076 0.18705,-1.265319 -0.82813,-3.326172 -1.04942,-2.130367 -1.23314,-2.913443 -1.34375,-5.693359 l -0.1289,-3.224609 0.98828,0.248046 c 2.05114,0.514806 5.80648,2.627303 7.62109,4.285157 3.45096,3.152839 6.38465,10.615248 6.44727,16.40039 0.0397,3.663364 -0.27681,4.125 -2.83008,4.125 -3.91758,0 -8.1515,1.722401 -10.32617,4.199219 -1.31907,1.502335 -1.34194,1.742045 -0.27149,2.8125 0.60161,0.601609 1.42149,0.889904 2.99805,1.054688 1.19407,0.124807 3.14069,0.661776 4.32617,1.193359 1.18548,0.531579 2.837,1.149187 3.66992,1.371094 1.08386,0.288766 1.75558,0.763749 2.36329,1.669922 0.46701,0.696366 1.7405,1.78172 2.82812,2.412109 4.01773,2.32869 4.12122,2.42529 5.48828,5.15625 1.74742,3.49081 2.35164,3.89008 3.94531,2.59961 0.72607,-0.58794 0.86601,-1.08244 0.98829,-3.50391 0.18954,-3.75342 -0.36776,-6.068998 -2.59961,-10.804684 -2.17317,-4.611171 -2.26247,-5.539222 -1.23243,-12.804688 0.81266,-5.732218 0.83407,-14.299774 0.04883,-18.894531 -1.68997,-9.88892 -7.30916,-18.483444 -15.78515,-24.136719 -1.34299,-0.895743 -2.44141,-1.739466 -2.44141,-1.876953 0,-0.366247 3.54896,-2.038873 5.35156,-2.521484 3.09226,-0.827891 2.84235,-3.0904447 -0.5039,-4.5703127 -2.18553,-0.966547 -4.27182,-1.463849 -6.58204,-1.476562 z M 22.292228,23.431114 a 1.9550304,1.9550304 0 0 1 0.01563,0 1.9550304,1.9550304 0 0 1 1.95508,1.955079 1.9550304,1.9550304 0 0 1 -1.95508,1.955078 1.9550304,1.9550304 0 0 1 -1.95508,-1.955078 1.9550304,1.9550304 0 0 1 1.93945,-1.955079 z" />
      <path
         style="fill:none;stroke:#ffffff;stroke-width:1.5;stroke-linecap:round;stroke-linejoin:miter;stroke-miterlimit:4;stroke-dasharray:none;stroke-opacity:1"
         d="M 8.3956476,35.950149 C 12.438158,35.303568 16.433128,34.114061 20.027008,30.515827"
         id="path6842"
         sodipodi:nodetypes="cc" />
    </g>
    <ellipse
       style="fill:#ffffff;stroke:#ffffff;stroke-width:1.5;stroke-linecap:round;stroke-linejoin:round;stroke-miterlimit:4;stroke-dasharray:none;paint-order:stroke fill markers"
       id="path6848"
       cx="22.381727"
       cy="25.461552"
       rx="1.4831265"
       ry="1.280882" />
  </g>
  <g
     inkscape:groupmode="layer"
     id="layer2"
     inkscape:label="Symbol"
     style="display:inline" />
</svg>
