<?xml version="1.0" encoding="UTF-8" standalone="no"?>
<svg
   xmlns:dc="http://purl.org/dc/elements/1.1/"
   xmlns:cc="http://creativecommons.org/ns#"
   xmlns:rdf="http://www.w3.org/1999/02/22-rdf-syntax-ns#"
   xmlns:svg="http://www.w3.org/2000/svg"
   xmlns="http://www.w3.org/2000/svg"
   xmlns:sodipodi="http://sodipodi.sourceforge.net/DTD/sodipodi-0.dtd"
   xmlns:inkscape="http://www.inkscape.org/namespaces/inkscape"
   width="92"
   height="92"
   id="svg2"
   version="1.1"
   inkscape:version="1.0.1 (3bc2e813f5, 2020-09-07)"
   sodipodi:docname="RHumpback.svg">
  <metadata
     id="metadata12">
    <rdf:RDF>
      <cc:Work
         rdf:about="">
        <dc:format>image/svg+xml</dc:format>
        <dc:type
           rdf:resource="http://purl.org/dc/dcmitype/StillImage" />
        <dc:title></dc:title>
      </cc:Work>
    </rdf:RDF>
  </metadata>
  <defs
     id="defs10">
    <filter
       height="1.5"
       width="1.5"
       y="0"
       x="0"
       id="f1"
       color-interpolation-filters="sRGB">
      <feOffset
         id="feOffset3039"
         dy="0"
         dx="1"
         in="SourceAlpha"
         result="offOut" />
      <feGaussianBlur
         id="feGaussianBlur3041"
         stdDeviation="1"
         in="offOut"
         result="blurOut" />
      <!--
      <feBlend in="SourceGraphic" in2="blurOut" mode="normal" />
-->
    </filter>
    <linearGradient
       y2="1"
       x2="0"
       y1="0"
       x1="0"
       id="grad1">
      <stop
         id="stop3034"
         style="stop-color:rgb(255,255,255);stop-opacity:0.6"
         offset="20%" />
      <stop
         id="stop3036"
         style="stop-color:rgb(220,0,0);stop-opacity:0.5"
         offset="50%" />
    </linearGradient>
    <linearGradient
       y2="1"
       x2="0"
       y1="0"
       x1="0"
       id="grad0">
      <stop
         id="stop3029"
         style="stop-color:rgb(0,0,0);stop-opacity:0.3"
         offset="20%" />
      <stop
         id="stop3031"
         style="stop-color:rgb(0,0,0);stop-opacity:0.6"
         offset="100%" />
    </linearGradient>
    <inkscape:path-effect
       effect="mirror_symmetry"
       start_point="274.21267,350.55066"
       end_point="273.50284,477.30227"
       center_point="273.85776,413.92646"
       id="path-effect4557-0-4"
       is_visible="true"
       mode="free"
       discard_orig_path="false"
       fuse_paths="true"
       oposite_fuse="false" />
    <filter
       style="color-interpolation-filters:sRGB;"
       inkscape:label="Drop Shadow"
       id="filter19739">
      <feFlood
         flood-opacity="1"
         flood-color="rgb(91,93,90)"
         result="flood"
         id="feFlood19729" />
      <feComposite
         in="flood"
         in2="SourceGraphic"
         operator="in"
         result="composite1"
         id="feComposite19731" />
      <feGaussianBlur
         in="composite1"
         stdDeviation="0"
         result="blur"
         id="feGaussianBlur19733" />
      <feOffset
         dx="0"
         dy="4"
         result="offset"
         id="feOffset19735" />
      <feComposite
         in="SourceGraphic"
         in2="offset"
         operator="over"
         result="composite2"
         id="feComposite19737" />
    </filter>
  </defs>
  <sodipodi:namedview
     pagecolor="#ffffff"
     bordercolor="#666666"
     borderopacity="1"
     objecttolerance="10"
     gridtolerance="10"
     guidetolerance="10"
     inkscape:pageopacity="0"
     inkscape:pageshadow="2"
     inkscape:window-width="3840"
     inkscape:window-height="2050"
     id="namedview8"
     showgrid="false"
     inkscape:zoom="7.4167644"
     inkscape:cx="-11.274189"
     inkscape:cy="53.140532"
     inkscape:window-x="-12"
     inkscape:window-y="-12"
     inkscape:window-maximized="1"
     inkscape:current-layer="layer1"
     fit-margin-top="0"
     fit-margin-left="0"
     fit-margin-right="0"
     fit-margin-bottom="0"
     inkscape:pagecheckerboard="false"
     inkscape:document-rotation="0" />
  <g
     inkscape:groupmode="layer"
     id="layer1"
     inkscape:label="Background"
     style="display:inline">
    <rect
       style="opacity:0.658683;fill:#800000;fill-opacity:1;stroke:none;stroke-width:1.46879;stroke-linecap:round;stroke-linejoin:round;stroke-miterlimit:4;stroke-dasharray:none;paint-order:stroke fill markers"
       id="rect2661"
       width="61.589558"
       height="61.589558"
       x="-76.794777"
       y="15.205221"
       transform="rotate(-90)" />
    <path
       id="path2647"
       style="fill:#333333;stroke:#ffffff;stroke-width:1.5;stroke-miterlimit:4;stroke-dasharray:none"
       d="m 5.5155883,14.272929 c -0.245838,-0.06013 -0.475547,-0.06031 -0.823898,-0.03579 -1.003113,0.0706 -1.573782,0.377 -1.774648,0.950773 -0.122521,0.349899 -0.100184,0.487098 0.154608,0.928401 l 0.30042,0.517299 -0.552902,-0.190494 c -0.303037,-0.105085 -0.748777,-0.332369 -0.990429,-0.503841 -1.04437025,-0.741057 -1.51787025,-0.0054 -1.40853045,2.187678 0.025489,0.511354 0.012038,1.081351 -0.029666,1.266797 -0.044666,0.197427 0.65988745,2.272833 0.84610945,2.868524 0.131439,0.420455 0.229667,0.68833 0.348321,0.929049 0.259921,-0.182231 0.585791,-0.243544 0.894167,-0.16824 0.06008,0.01516 0.118772,0.03542 0.175477,0.06039 7.2379806,3.128895 13.7042587,5.428049 17.0822797,13.722779 0.229655,0.563187 -0.04031,1.205955 -0.603242,1.436251 -0.563921,0.230977 -0.522366,-0.682987 -0.75244,-1.247278 -2.537694,-8.190655 -8.6248549,-9.486741 -15.2409769,-12.36603 0.567545,0.811027 0.6988202,1.175798 1.3097472,2.361956 1.346344,2.614026 3.227295,5.820404 4.025381,6.859527 0.357605,0.465628 1.2183336,1.525189 1.9137917,2.355832 0.881818,1.053244 1.586681,2.022951 2.328214,3.204536 1.046205,1.667093 2.605205,3.860865 3.191658,4.490011 0.297073,0.318676 0.295672,0.331269 -0.154359,2.222873 -0.349236,1.468143 -0.5258,1.9775 -0.772109,2.224493 -0.435187,0.436306 -0.640318,1.348287 -0.533931,2.375225 0.09819,0.94834 -0.06144,1.429171 -0.518109,1.559348 -0.363487,0.103617 -0.372948,0.363103 -0.04355,1.160565 0.249924,0.605063 0.185191,1.356801 -0.120238,1.405216 -0.221491,0.03511 -0.385628,0.597023 -0.281942,0.960742 0.05902,0.207018 0.01269,0.326621 -0.163853,0.428553 -0.515025,0.297356 -0.868486,2.261962 -0.590481,3.284934 0.122683,0.451438 -0.03956,1.288334 -0.277227,1.425549 -0.210104,0.121303 -0.11976,0.776098 0.178304,1.289094 0.248047,0.426778 0.307083,0.685481 0.295191,1.293671 -0.0082,0.418303 -0.0874,0.985727 -0.175255,1.261215 l -0.158813,0.501218 0.944695,1.639306 c 0.791793,1.371435 0.992525,1.653907 1.223022,1.731713 0.151511,0.05113 0.485846,0.23105 0.742069,0.399408 0.256212,0.168359 0.605896,0.312884 0.77835,0.322209 0.412906,0.02236 1.421097,-0.510684 1.599531,-0.846152 0.16622,-0.31241 0.186978,-0.934812 0.03998,-1.197177 -0.05837,-0.104126 0.04862,-0.981379 0.239591,-1.950435 0.900036,-4.566702 1.527801,-6.122815 4.194288,-10.413488 0.803364,-1.29271 1.654517,-2.737387 1.892585,-3.212378 0.238087,-0.474988 0.473771,-0.888185 0.523998,-0.915942 0.05022,-0.02775 0.613678,0.19158 1.251274,0.486822 l 1.159559,0.538016 0.350174,1.812064 c 0.382244,1.97253 0.433856,2.60232 0.304111,3.805438 -0.102588,0.951074 0.138902,2.109795 0.612299,2.929729 0.412551,0.714558 0.730303,2.413918 0.527427,2.822303 -0.110218,0.22187 -0.06155,0.384674 0.341136,1.138839 0.52444,0.982243 0.74974,1.994827 0.555823,2.50008 -0.08669,0.22582 -0.04113,0.482672 0.16953,0.972513 0.224707,0.522365 0.263041,0.781521 0.178683,1.204511 -0.206258,1.03379 0.431762,3.157975 1.235294,4.106205 0.381903,0.45067 0.547234,0.757007 0.853099,1.590247 0.208537,0.5681 0.382868,1.138577 0.38702,1.26702 0.01221,0.378653 0.232442,0.660849 0.849539,1.087863 0.690251,0.477641 1.593687,1.66802 2.397875,3.160801 l 0.541246,1.007486 0.48923,0.09543 c 0.268202,0.05292 1.010709,0.40622 1.650963,0.783347 1.277454,0.752457 2.225992,1.087154 2.550195,0.903951 0.115201,-0.06525 0.51622,-0.115258 0.892157,-0.110831 0.887895,0.01052 1.263904,-0.194828 1.20689,-0.661645 -0.02343,-0.191843 -0.01087,-0.503191 0.02675,-0.690377 0.05686,-0.282887 6.94e-4,-0.434376 -0.330462,-0.904206 -0.221782,-0.314612 -0.617449,-0.704431 -0.894301,-0.879228 -0.484721,-0.306049 -0.538463,-0.383755 -2.087801,-3.062118 -1.74029,-3.009482 -2.159044,-3.952996 -2.856681,-6.430487 -0.60381,-2.144273 -0.81335,-3.69413 -1.024836,-7.553138 -0.109097,-1.990624 -0.272437,-4.127956 -0.36344,-4.748424 -0.091,-0.620489 -0.131597,-1.168939 -0.0902,-1.218686 0.04142,-0.04976 1.119335,0.51953 2.397925,1.264296 4.291166,2.499599 8.716906,4.726557 11.685786,5.88349 1.14585,0.446524 2.674291,1.142778 3.398881,1.545871 1.991616,1.107895 2.694814,1.352564 8.071713,2.820239 5.218056,1.42429 5.756827,1.520181 8.769887,1.545368 1.725742,0.01443 3.12613,-0.107964 5.205291,-0.454965 0.783308,-0.130733 1.961884,-0.295929 2.616471,-0.366407 1.060322,-0.114103 1.272169,-0.09323 1.948548,0.196739 2.255894,0.967137 4.973085,1.702446 7.426927,2.007872 3.382756,0.421036 4.668143,0.441236 4.453933,0.07023 -0.0312,-0.05408 -0.57426,-0.275334 -1.205228,-0.492312 C 89.299436,70.43818 89.073362,70.292006 88.214425,69.41274 87.981214,69.174001 87.648622,68.910214 87.473973,68.824335 87.299325,68.738485 87.076279,68.59979 86.978893,68.51785 86.782604,68.352573 86.302622,68.13988 85.38982,67.811259 84.092552,67.344177 83.866707,67.202756 83.440134,66.595755 82.645054,65.464555 81.228559,64.796446 77.03956,63.577008 75.429829,63.1084 73.96694,62.543112 73.366529,62.156022 73.158261,62.02174 72.537248,61.681994 71.986062,61.40281 70.919234,60.862453 69.578257,59.83598 67.891742,58.268822 66.777604,57.233524 64.262876,54.254997 63.72996,53.34058 c -0.179005,-0.307371 -0.569105,-0.876604 -0.864859,-1.263569 -0.963057,-1.259916 -1.222892,-1.773355 -1.297325,-2.560594 -0.07525,-0.795846 0.0081,-0.924232 0.867871,-1.367574 l 0.522531,-0.270044 -0.193642,-0.408459 c -0.27739,-0.586771 -1.530945,-1.420873 -2.680594,-1.781293 -0.705203,-0.221094 -1.038923,-0.403969 -1.427991,-0.783775 -0.27913,-0.272499 -0.879808,-0.676385 -1.334674,-0.899167 -0.917815,-0.449542 -3.204173,-2.071152 -6.015123,-4.265984 -3.368587,-2.630232 -5.042466,-3.829066 -7.300778,-5.22333 -4.603053,-2.841899 -8.675623,-4.719938 -12.352563,-5.698895 -3.203807,-0.852712 -4.335243,-1.360001 -6.503588,-2.917091 -2.102813,-1.510044 -2.516117,-1.858901 -3.995715,-3.377226 -1.101073,-1.12988 -2.810302,-2.449889 -3.017032,-2.330531 -0.05429,0.03134 -0.499699,-0.144066 -0.992368,-0.388475 -0.492685,-0.244349 -0.971144,-0.431938 -1.060278,-0.417815 -0.17418,0.02761 -1.753437,-0.820812 -1.854685,-0.996162 -0.03351,-0.05805 -0.348262,-0.179824 -0.700342,-0.272344 -0.352094,-0.09243 -0.693863,-0.258053 -0.757219,-0.367811 -0.06339,-0.109733 -0.319842,-0.256723 -0.57257,-0.32502 -0.252762,-0.06831 -0.993779,-0.426567 -1.644997,-0.797351 -0.6512201,-0.370783 -1.4028211,-0.760062 -1.6715287,-0.864628 -0.268711,-0.104588 -0.534059,-0.267482 -0.589164,-0.362896 -0.0551,-0.09546 -0.278135,-0.192043 -0.495607,-0.213024 -0.217471,-0.02099 -0.826325,-0.256498 -1.353011,-0.522997 -0.420065,-0.212535 -0.683301,-0.331441 -0.929133,-0.39159 z m 6.0752547,5.813129 c 0.959246,0.256683 1.562926,1.114128 1.347877,1.914481 -0.213938,0.80065 -1.165463,1.24138 -2.124537,0.984049 C 9.8560049,22.727165 9.2535169,21.87034 9.4683829,21.070665 9.6821409,20.270693 10.632325,19.829903 11.590843,20.086058 Z"
       sodipodi:nodetypes="ccccccsscscccccccssscccccssssssscccccccccccscsccccssccccsscscccsccsccscsssscsccssccsscsccccssssccscccssssscssscssccssccssccccccc" />
    <ellipse
       style="opacity:1;fill:#ffffff;stroke:none;stroke-width:1.5;stroke-linecap:round;stroke-linejoin:round;stroke-miterlimit:4;stroke-dasharray:none;paint-order:stroke fill markers"
       id="path9313"
       cx="11.106992"
       cy="21.49682"
       rx="1.5730933"
       ry="1.4300847" />
  </g>
  <g
     inkscape:groupmode="layer"
     id="layer2"
     inkscape:label="Symbol"
     style="display:inline" />
</svg>
