<?xml version="1.0" encoding="UTF-8" standalone="no"?>
<svg
   xmlns:dc="http://purl.org/dc/elements/1.1/"
   xmlns:cc="http://creativecommons.org/ns#"
   xmlns:rdf="http://www.w3.org/1999/02/22-rdf-syntax-ns#"
   xmlns:svg="http://www.w3.org/2000/svg"
   xmlns="http://www.w3.org/2000/svg"
   xmlns:sodipodi="http://sodipodi.sourceforge.net/DTD/sodipodi-0.dtd"
   xmlns:inkscape="http://www.inkscape.org/namespaces/inkscape"
   width="92"
   height="92"
   id="svg2"
   version="1.1"
   inkscape:version="1.0.1 (3bc2e813f5, 2020-09-07)"
   sodipodi:docname="RNarwhal.svg">
  <metadata
     id="metadata12">
    <rdf:RDF>
      <cc:Work
         rdf:about="">
        <dc:format>image/svg+xml</dc:format>
        <dc:type
           rdf:resource="http://purl.org/dc/dcmitype/StillImage" />
        <dc:title></dc:title>
      </cc:Work>
    </rdf:RDF>
  </metadata>
  <defs
     id="defs10">
    <filter
       height="1.5"
       width="1.5"
       y="0"
       x="0"
       id="f1"
       color-interpolation-filters="sRGB">
      <feOffset
         id="feOffset3039"
         dy="0"
         dx="1"
         in="SourceAlpha"
         result="offOut" />
      <feGaussianBlur
         id="feGaussianBlur3041"
         stdDeviation="1"
         in="offOut"
         result="blurOut" />
      <!--
      <feBlend in="SourceGraphic" in2="blurOut" mode="normal" />
-->
    </filter>
    <linearGradient
       y2="1"
       x2="0"
       y1="0"
       x1="0"
       id="grad1">
      <stop
         id="stop3034"
         style="stop-color:rgb(255,255,255);stop-opacity:0.6"
         offset="20%" />
      <stop
         id="stop3036"
         style="stop-color:rgb(220,0,0);stop-opacity:0.5"
         offset="50%" />
    </linearGradient>
    <linearGradient
       y2="1"
       x2="0"
       y1="0"
       x1="0"
       id="grad0">
      <stop
         id="stop3029"
         style="stop-color:rgb(0,0,0);stop-opacity:0.3"
         offset="20%" />
      <stop
         id="stop3031"
         style="stop-color:rgb(0,0,0);stop-opacity:0.6"
         offset="100%" />
    </linearGradient>
    <inkscape:path-effect
       effect="mirror_symmetry"
       start_point="274.21267,350.55066"
       end_point="273.50284,477.30227"
       center_point="273.85776,413.92646"
       id="path-effect4557-0-4"
       is_visible="true"
       mode="free"
       discard_orig_path="false"
       fuse_paths="true"
       oposite_fuse="false" />
    <filter
       style="color-interpolation-filters:sRGB;"
       inkscape:label="Drop Shadow"
       id="filter19739">
      <feFlood
         flood-opacity="1"
         flood-color="rgb(91,93,90)"
         result="flood"
         id="feFlood19729" />
      <feComposite
         in="flood"
         in2="SourceGraphic"
         operator="in"
         result="composite1"
         id="feComposite19731" />
      <feGaussianBlur
         in="composite1"
         stdDeviation="0"
         result="blur"
         id="feGaussianBlur19733" />
      <feOffset
         dx="0"
         dy="4"
         result="offset"
         id="feOffset19735" />
      <feComposite
         in="SourceGraphic"
         in2="offset"
         operator="over"
         result="composite2"
         id="feComposite19737" />
    </filter>
  </defs>
  <sodipodi:namedview
     pagecolor="#ffffff"
     bordercolor="#666666"
     borderopacity="1"
     objecttolerance="10"
     gridtolerance="10"
     guidetolerance="10"
     inkscape:pageopacity="0"
     inkscape:pageshadow="2"
     inkscape:window-width="3840"
     inkscape:window-height="2050"
     id="namedview8"
     showgrid="false"
     inkscape:zoom="3.7083822"
     inkscape:cx="-24.157165"
     inkscape:cy="124.98955"
     inkscape:window-x="-12"
     inkscape:window-y="-12"
     inkscape:window-maximized="1"
     inkscape:current-layer="layer1"
     fit-margin-top="0"
     fit-margin-left="0"
     fit-margin-right="0"
     fit-margin-bottom="0"
     inkscape:pagecheckerboard="false"
     inkscape:document-rotation="0" />
  <g
     inkscape:groupmode="layer"
     id="layer1"
     inkscape:label="Background"
     style="display:inline">
    <rect
       style="opacity:0.658683;fill:#800000;fill-opacity:1;stroke:none;stroke-width:1.35371;stroke-linecap:round;stroke-linejoin:round;stroke-miterlimit:4;stroke-dasharray:none;paint-order:stroke fill markers"
       id="rect2661"
       width="56.763947"
       height="56.763947"
       x="-28.381973"
       y="36.671852"
       transform="rotate(-45)" />
    <g
       id="g3343"
       transform="translate(-201.15961,-27.446785)"
       style="stroke:#ffffff;stroke-width:1.5;stroke-miterlimit:4;stroke-dasharray:none">
      <path
         style="fill:#008080;stroke-width:1.5;stroke:#ffffff;stroke-miterlimit:4;stroke-dasharray:none"
         d="m 248.71497,101.9919 c 0.66803,-0.0645 1.38282,-0.14706 1.58831,-0.18346 2.44219,-0.43237 3.18262,-0.60202 4.57817,-1.04891 2.63142,-0.842648 5.48392,-2.280054 7.56796,-3.813617 1.91662,-1.410314 5.34182,-4.904389 6.78722,-6.923674 1.44509,-2.018786 3.45974,-6.015613 4.60979,-9.145496 0.53583,-1.458082 0.84826,-2.101049 1.11258,-2.289077 0.10829,-0.07708 0.80082,-0.465559 1.53892,-0.86328 2.51189,-1.353524 4.43271,-2.722336 6.12181,-4.362526 2.67669,-2.599118 3.88369,-5.08697 3.88714,-8.012022 0,-1.830954 -0.5171,-3.580648 -0.91511,-3.083794 -0.0495,0.06115 -0.21875,0.422055 -0.37711,0.80194 -0.48966,1.174385 -0.88438,1.619297 -1.88057,2.11965 -1.22057,0.613081 -2.81353,0.87904 -5.28097,0.881716 -1.71331,0.0015 -3.27007,0.12788 -4.01814,0.325276 -0.64314,0.169704 -1.22949,0.546442 -2.12196,1.363408 l -0.62696,0.573969 -0.76613,-0.704974 c -1.44142,-1.32632 -1.87436,-1.445252 -5.68798,-1.562438 -2.74847,-0.08446 -3.72728,-0.178345 -4.53147,-0.434615 -0.80165,-0.255475 -1.70357,-0.758107 -2.09919,-1.169828 -0.36893,-0.383895 -0.46171,-0.545618 -0.97184,-1.692993 -0.30538,-0.686973 -0.48262,-0.678849 -0.76972,0.03522 -0.37815,0.940627 -0.51163,2.669053 -0.31348,4.059583 0.12867,0.903126 0.40461,1.705929 0.96337,2.802951 1.16107,2.27938 3.14454,4.297177 6.461,6.572885 0.46246,0.317347 1.01957,0.725717 1.23795,0.907473 0.35418,0.294782 0.39712,0.373815 0.39712,0.731645 0,1.541852 -2.29111,4.701906 -4.6065,6.353539 -2.16963,1.547705 -4.9139,2.298865 -8.39853,2.298865 -5.72298,0 -10.08944,-2.523149 -13.17747,-7.614675 -0.69733,-1.149759 -1.71849,-3.061716 -2.95667,-5.536184 -2.79479,-5.585135 -3.74849,-7.02347 -5.82025,-8.777758 -1.53689,-1.301365 -3.65144,-2.512883 -5.73009,-3.283033 -1.57976,-0.585315 -2.17315,-0.719954 -4.99859,-1.13423 -1.49681,-0.219474 -1.76367,-0.388661 -2.33585,-1.481082 -0.20639,-0.39402 -0.66915,-1.109215 -1.0285,-1.589312 -0.35926,-0.480105 -0.65318,-0.932983 -0.65318,-1.006396 0,-0.07344 -0.10507,-0.181336 -0.23345,-0.239827 -0.12837,-0.05853 -0.36496,-0.311322 -0.52571,-0.561836 -0.16075,-0.250507 -0.50158,-0.737813 -0.75751,-1.082896 -0.25585,-0.345082 -0.56416,-0.849483 -0.68504,-1.120891 -0.12095,-0.271407 -0.36384,-0.67083 -0.53988,-0.887598 -0.17596,-0.216776 -0.43473,-0.615524 -0.57495,-0.886115 -0.14029,-0.270591 -0.48067,-0.79614 -0.75645,-1.167894 -0.27579,-0.371754 -0.50226,-0.754982 -0.50331,-0.851619 0,-0.09664 -0.15723,-0.390947 -0.34713,-0.654021 -0.1899,-0.263074 -0.69171,-1.066941 -1.11513,-1.786363 -0.42349,-0.719422 -0.87794,-1.489625 -1.00991,-1.711572 -0.18593,-0.31258 -0.28732,-0.396807 -0.44987,-0.373725 -0.18735,0.0266 -0.20654,0.07479 -0.17956,0.450248 0.0165,0.231239 0.15325,0.776228 0.30366,1.211076 0.15033,0.434854 0.27339,0.922356 0.27339,1.083345 0,0.17217 0.0755,0.36103 0.18338,0.458626 0.1008,0.09126 0.23202,0.318509 0.29152,0.505 0.0592,0.186484 0.33926,0.906664 0.62164,1.600396 0.6068,1.490277 0.82503,2.141818 1.39046,4.150517 0.23262,0.826154 0.56431,1.823931 0.73728,2.217291 0.17289,0.393353 0.34218,0.87686 0.3762,1.074465 0.0337,0.197598 0.18278,0.779713 0.33064,1.293586 0.14779,0.513873 0.33035,1.333732 0.40566,1.821915 0.0753,0.488183 0.1639,0.976764 0.19687,1.085751 0.048,0.157317 0.012,0.210151 -0.17206,0.256397 -0.12763,0.032 -0.51283,0.36145 -0.85591,0.732035 -0.77107,0.832809 -1.3691,2.006609 -1.63484,3.208669 -0.22475,1.016602 -0.2339,1.560894 -0.0435,2.566023 0.32809,1.729288 1.19029,3.296597 3.02741,5.503142 2.68365,3.223244 3.19048,4.338672 4.20676,9.25844 0.51897,2.512268 1.01208,4.076624 1.7857,5.66464 0.54482,1.118373 1.0524,1.826824 1.25355,1.749634 0.0762,-0.02923 0.13856,-0.006 0.13856,0.05119 0,0.05741 -0.16817,1.091563 -0.37373,2.298149 -0.58342,3.424702 -0.51387,4.519213 0.33476,5.266176 0.5108,0.449611 1.08216,0.621347 2.04778,0.615442 1.20311,-0.0075 1.49006,-0.245426 2.25326,-1.869556 0.24011,-0.510853 0.4465,-0.941405 0.45879,-0.956791 0.012,-0.01536 0.23037,0.173819 0.48472,0.420443 0.55562,0.538589 1.68963,1.226469 3.37611,2.047841 4.0571,1.975971 8.07201,3.080641 12.53387,3.448661 1.95223,0.16102 5.27603,0.1595 6.96064,-0.003 z"
         id="path3333" />
      <path
         style="fill:none;stroke:#ffffff;stroke-width:1.5;stroke-linecap:round;stroke-linejoin:miter;stroke-miterlimit:4;stroke-dasharray:none;stroke-opacity:1"
         d="m 221.51792,65.275142 c 2.47162,-0.300971 5.33512,0.332747 4.10254,5.123516"
         id="path3337"
         sodipodi:nodetypes="cc" />
    </g>
  </g>
  <g
     inkscape:groupmode="layer"
     id="layer2"
     inkscape:label="Symbol"
     style="display:inline" />
</svg>
