<?xml version="1.0" encoding="UTF-8" standalone="no"?>
<svg
   xmlns:dc="http://purl.org/dc/elements/1.1/"
   xmlns:cc="http://creativecommons.org/ns#"
   xmlns:rdf="http://www.w3.org/1999/02/22-rdf-syntax-ns#"
   xmlns:svg="http://www.w3.org/2000/svg"
   xmlns="http://www.w3.org/2000/svg"
   xmlns:sodipodi="http://sodipodi.sourceforge.net/DTD/sodipodi-0.dtd"
   xmlns:inkscape="http://www.inkscape.org/namespaces/inkscape"
   width="92"
   height="92"
   id="svg2"
   version="1.1"
   inkscape:version="1.0.2 (e86c870879, 2021-01-15)"
   sodipodi:docname="ROrca_V.svg">
  <metadata
     id="metadata12">
    <rdf:RDF>
      <cc:Work
         rdf:about="">
        <dc:format>image/svg+xml</dc:format>
        <dc:type
           rdf:resource="http://purl.org/dc/dcmitype/StillImage" />
        <dc:title></dc:title>
      </cc:Work>
    </rdf:RDF>
  </metadata>
  <defs
     id="defs10">
    <filter
       height="1.5"
       width="1.5"
       y="0"
       x="0"
       id="f1"
       color-interpolation-filters="sRGB">
      <feOffset
         id="feOffset3039"
         dy="0"
         dx="1"
         in="SourceAlpha"
         result="offOut" />
      <feGaussianBlur
         id="feGaussianBlur3041"
         stdDeviation="1"
         in="offOut"
         result="blurOut" />
      <!--
      <feBlend in="SourceGraphic" in2="blurOut" mode="normal" />
-->
    </filter>
    <linearGradient
       y2="1"
       x2="0"
       y1="0"
       x1="0"
       id="grad1">
      <stop
         id="stop3034"
         style="stop-color:rgb(255,255,255);stop-opacity:0.6"
         offset="20%" />
      <stop
         id="stop3036"
         style="stop-color:rgb(220,0,0);stop-opacity:0.5"
         offset="50%" />
    </linearGradient>
    <linearGradient
       y2="1"
       x2="0"
       y1="0"
       x1="0"
       id="grad0">
      <stop
         id="stop3029"
         style="stop-color:rgb(0,0,0);stop-opacity:0.3"
         offset="20%" />
      <stop
         id="stop3031"
         style="stop-color:rgb(0,0,0);stop-opacity:0.6"
         offset="100%" />
    </linearGradient>
    <inkscape:path-effect
       effect="mirror_symmetry"
       start_point="274.21267,350.55066"
       end_point="273.50284,477.30227"
       center_point="273.85776,413.92646"
       id="path-effect4557-0-4"
       is_visible="true"
       mode="free"
       discard_orig_path="false"
       fuse_paths="true"
       oposite_fuse="false" />
    <filter
       style="color-interpolation-filters:sRGB;"
       inkscape:label="Drop Shadow"
       id="filter19739">
      <feFlood
         flood-opacity="1"
         flood-color="rgb(91,93,90)"
         result="flood"
         id="feFlood19729" />
      <feComposite
         in="flood"
         in2="SourceGraphic"
         operator="in"
         result="composite1"
         id="feComposite19731" />
      <feGaussianBlur
         in="composite1"
         stdDeviation="0"
         result="blur"
         id="feGaussianBlur19733" />
      <feOffset
         dx="0"
         dy="4"
         result="offset"
         id="feOffset19735" />
      <feComposite
         in="SourceGraphic"
         in2="offset"
         operator="over"
         result="composite2"
         id="feComposite19737" />
    </filter>
  </defs>
  <sodipodi:namedview
     pagecolor="#ffffff"
     bordercolor="#666666"
     borderopacity="1"
     objecttolerance="10"
     gridtolerance="10"
     guidetolerance="10"
     inkscape:pageopacity="0"
     inkscape:pageshadow="2"
     inkscape:window-width="1366"
     inkscape:window-height="741"
     id="namedview8"
     showgrid="false"
     inkscape:zoom="6.349435"
     inkscape:cx="33.828011"
     inkscape:cy="38.78423"
     inkscape:window-x="0"
     inkscape:window-y="0"
     inkscape:window-maximized="1"
     inkscape:current-layer="layer1"
     fit-margin-top="0"
     fit-margin-left="0"
     fit-margin-right="0"
     fit-margin-bottom="0"
     inkscape:pagecheckerboard="false"
     inkscape:document-rotation="0" />
  <g
     inkscape:groupmode="layer"
     id="layer1"
     inkscape:label="Background"
     style="display:inline">
    <g
       id="g2794"
       transform="rotate(44.919606,48.228056,46)">
      <path
         id="path2631-5"
         style="display:inline;opacity:0.658683;fill:#800000;fill-opacity:1;stroke:none;stroke-width:0.765036;stroke-linecap:round;stroke-linejoin:round;paint-order:stroke fill markers"
         d="M 46.000005,5.8613279 34.351565,17.509766 a 30.780178,30.780178 0 0 0 -16.8418,16.841797 L 5.861325,46 17.507815,57.646484 a 30.780178,30.780178 0 0 0 16.8457,16.845704 l 11.64649,11.646484 11.64648,-11.646484 a 30.780178,30.780178 0 0 0 16.8418,-16.841797 L 86.138675,46 74.492185,34.353516 A 30.780178,30.780178 0 0 0 57.650395,17.511719 Z" />
      <g
         id="g2761"
         transform="rotate(-21.78022,45.815839,45.408679)">
        <g
           id="g6180"
           transform="matrix(0.17626116,0.05098284,-0.05098284,0.17626116,14.04351,6.743367)"
           style="stroke-width:0.997349;stroke-miterlimit:4;stroke-dasharray:none">
          <path
             class="fil0"
             d="m 228.24262,178.24723 c -2.19931,-2.30552 -4.14728,-3.93374 -4.8053,-7.77222 -1.93738,-11.2955 5.97619,-17.07894 16.13178,-20.89399 17.20933,-6.46564 26.68914,-4.39975 43.1384,-2.16605 9.54747,1.29676 34.24555,4.5891 40.76486,8.61732 3.21827,1.98879 3.59433,5.29059 0.048,7.3013 -5.38923,3.05537 -24.33109,1.27597 -31.79075,5.01732 -0.816,3.07616 0.57525,7.89354 1.78772,10.18091 5.80044,0.10961 12.31597,0.27515 17.91648,1.06394 5.17228,0.72832 10.60384,1.97859 15.56787,3.00473 10.3869,2.1479 20.60183,3.98778 31.04542,6.21732 13.38709,2.85808 29.67837,8.38866 43.69399,12.0926 8.05909,2.12976 9.19257,3.55238 13.81796,-0.86551 1.68,0.4199 7.92982,6.64479 8.47105,7.60554 -4.34872,-0.20182 -27.19975,-4.13102 -33.01266,-5.13524 -10.64807,-1.83988 -20.06665,-4.95648 -30.43163,-7.46155 -10.31698,-2.49335 -20.39887,-4.9096 -30.80618,-7.14708 -14.65323,-3.15024 -18.83527,-3.47226 -33.80409,-4.12347 -12.2109,-0.53102 -24.37078,-1.11194 -36.84133,-0.83376 -6.85644,0.15269 -25.5481,2.76321 -34.29279,3.60756 -2.14564,0.20749 -69.00776,4.02179 -72.15422,3.79238 l -3.03533,-5.71767 c 13.36667,0.17045 27.3445,-0.99931 40.61934,-1.96989 12.096,-0.88441 17.65984,-1.68038 28.81361,-3.03459 z M 7.8341485,148.33113 c 5.7959065,-2.91364 20.6789315,-3.6994 28.5180505,-4.37707 5.773985,-0.4989 9.4303,-1.31414 14.743183,0.19389 12.794836,3.63099 22.594396,8.70274 33.319185,16.18469 3.873638,2.70199 4.919812,4.3971 7.2223,9.27761 1.305827,2.7685 3.755339,8.50658 4.590237,11.42022 -2.38904,-0.3069 -8.853167,-3.03042 -11.389608,-3.93109 -3.814677,-1.35496 -7.552253,-2.42116 -11.519623,-3.55804 C 59.411099,169.5562 38.782058,164.80874 26.226088,160.26385 20.830434,158.31059 7.4441013,154.19355 7.8341485,148.33113 Z M 68.453242,123.66102 c 3.899339,-0.49852 8.847497,-0.32996 12.371907,1.00081 2.865638,1.08208 6.554836,3.53462 4.196788,7.57153 -2.627528,4.4984 -11.059277,7.69323 -18.185955,8.44725 -23.391499,2.47445 -23.544569,-13.80133 1.61726,-17.01959 z M 1.9222109,136.52048 c 0,4.09172 0.7275591,7.24876 2.6845987,10.64202 0.7026142,1.21776 1.0779214,1.11231 1.7306459,2.12787 2.1074648,3.27723 1.6100789,4.27427 7.5152135,7.21739 13.854994,6.9052 32.271878,11.03131 47.719943,15.08107 6.804284,1.78356 13.8686,3.6223 20.489199,5.82463 3.834331,1.27597 7.062048,2.60825 10.878615,3.85663 5.416064,1.77109 4.699087,2.74545 8.469544,9.77008 l 2.77455,4.59137 c 1.90375,3.14041 4.31773,5.71541 6.57071,8.51188 0.74759,0.92749 0.89575,1.18942 1.78772,2.0708 8.42683,8.3263 27.65065,21.82451 39.21714,21.82451 2.72239,0 8.0708,-5.58425 8.0708,-9.81808 0,-6.19162 -3.9292,-22.14085 -6.31635,-26.64908 7.82967,0 18.6259,-1.46721 26.32404,-1.39653 2.5319,0.0231 3.87364,-0.3772 6.66142,-0.35641 6.82658,0.0503 13.15956,-1.09342 20.00088,-1.0526 l 26.287,-1.78469 c 3.92806,-0.37115 8.42003,-0.93128 12.5091,-1.5258 2.20157,-0.3205 4.04561,-0.44145 6.27137,-0.74645 10.54337,-1.44378 24.27855,-0.10923 34.94136,-0.15119 2.97864,-0.0121 4.46173,0.3704 7.36592,0.35377 2.94917,-0.017 4.86841,0.35754 7.35912,0.36019 16.59288,0.0189 33.16725,4.92056 49.11308,8.42986 l 27.62192,7.11231 c 11.16473,3.31427 46.25424,7.58816 48.91352,8.62904 4.22438,1.65279 8.38488,4.65865 11.97279,7.32133 1.51181,1.12214 3.02022,2.14866 4.50973,3.20844 7.36063,5.23691 15.23112,9.20315 24.47585,10.28409 1.9714,0.23055 1.28579,-0.0711 3.24472,-0.11452 -0.0461,-2.05379 -1.41846,-2.64529 -2.71975,-3.94469 -2.8936,-2.8902 -6.15685,-5.64586 -8.65739,-8.88113 -2.62072,-3.39062 -4.98519,-5.19459 -7.85574,-9.6824 -3.49758,-5.46709 -6.01701,-12.14778 -1.48649,-17.83143 0.83149,-1.04315 3.43823,-3.14382 4.9285,-3.49078 -0.39382,-4.72819 -9.51156,-6.66217 -15.08901,-6.66217 -7.66753,0 -13.83534,1.3697 -20.00202,2.80517 -1.77675,-3.35547 -5.47653,-7.08095 -7.94267,-9.94621 l -4.25122,-4.51805 c -4.53656,-4.53316 -9.04252,-8.94652 -14.07874,-12.93128 -10.17335,-8.05001 -20.89021,-15.50362 -32.32895,-21.69449 -15.91143,-8.61165 -31.49329,-16.96176 -48.73134,-23.18702 -8.89021,-3.21071 -18.35641,-6.11679 -27.49002,-8.64718 -2.18192,-0.60473 -4.61783,-1.29109 -6.69619,-2.074966 l -13.27181,-4.620851 c -3.05613,-1.107023 -9.96359,-3.293858 -12.16252,-5.729764 -7.28693,-8.071182 -7.44756,-16.332852 -7.44756,-27.271562 0,-5.401324 0.46639,-10.125356 1.25631,-15.575435 1.97103,-13.598364 -1.62709,-13.429797 3.34791,-30.31635 0.9377,-3.181985 6.31521,-19.6784907 -1.44605,-19.6784907 -3.08712,0 -3.48699,0.1371969 -5.70255,2.3663625 l -8.33764,9.5516231 c -0.91087,1.1894175 -1.63238,2.1728511 -2.47408,3.4888821 -0.71735,1.121764 -1.6577,2.348599 -2.43855,3.524032 l -4.56,7.715907 c -1.35496,2.622236 -2.69254,5.02526 -4.09625,7.828914 -0.72756,1.452472 -1.17771,2.73789 -1.86596,4.096252 -4.74217,9.355844 -8.57046,19.538648 -13.10664,28.980665 -0.72152,1.501985 -1.04089,2.67137 -1.86558,4.09663 -0.73776,1.274457 -1.74312,2.317607 -2.57159,3.391371 -3.34337,4.333607 -9.64158,7.791497 -14.88454,9.321072 -6.57146,1.917354 -14.16756,2.987339 -21.25946,2.950677 -17.73809,-0.09146 -61.74237,4.379717 -77.204045,7.008757 -16.312821,2.773418 -28.705515,5.166615 -44.489202,9.543684 -1.354205,0.37531 -3.07578,0.8863 -4.594772,1.3697 -4.78904,1.52429 -7.99786,3.24586 -12.323907,5.568 -8.904568,4.78073 -25.2646331,17.95465 -25.2646331,29.45462 z"
             id="path7"
             style="clip-rule:evenodd;fill:#000000;fill-rule:evenodd;stroke-width:8.17499;stroke-miterlimit:4;stroke-dasharray:none;image-rendering:optimizeQuality;shape-rendering:geometricPrecision;text-rendering:geometricPrecision" />
          <path
             class="fil1"
             d="m 228.24262,178.24723 -9.1578,1.3799 c -11.15377,1.35421 -16.71761,2.15018 -28.81361,3.03459 -13.27484,0.97058 -27.25267,2.14034 -40.61934,1.96989 l 3.03533,5.71767 c 3.14646,0.22941 70.00858,-3.58489 72.15422,-3.79238 8.74469,-0.84435 27.43635,-3.45487 34.29279,-3.60756 12.47055,-0.27818 24.63043,0.30274 36.84133,0.83376 14.96882,0.65121 19.15086,0.97323 33.80409,4.12347 10.40731,2.23748 20.4892,4.65373 30.80618,7.14708 10.36498,2.50507 19.78356,5.62167 30.43163,7.46155 5.81291,1.00422 28.66394,4.93342 33.01266,5.13524 -0.54123,-0.96075 -6.79105,-7.18564 -8.47105,-7.60554 -4.62539,4.41789 -5.75887,2.99527 -13.81796,0.86551 -14.01562,-3.70394 -30.3069,-9.23452 -43.69399,-12.0926 -10.44359,-2.22954 -20.65852,-4.06942 -31.04542,-6.21732 -4.96403,-1.02614 -10.39559,-2.27641 -15.56787,-3.00473 -5.60051,-0.78879 -12.11604,-0.95433 -17.91648,-1.06394 -1.21247,-2.28737 -2.60372,-7.10475 -1.78772,-10.18091 7.45966,-3.74135 26.40152,-1.96195 31.79075,-5.01732 3.54633,-2.01071 3.17027,-5.31251 -0.048,-7.3013 -6.51931,-4.02822 -31.21739,-7.32056 -40.76486,-8.61732 -16.44926,-2.2337 -25.92907,-4.29959 -43.1384,2.16605 -10.15559,3.81505 -18.06916,9.59849 -16.13178,20.89399 0.65802,3.83848 2.60599,5.4667 4.8053,7.77222 z"
             id="path9"
             style="clip-rule:evenodd;fill:#fefefe;fill-rule:evenodd;stroke-width:0.997349;stroke-miterlimit:4;stroke-dasharray:none;image-rendering:optimizeQuality;shape-rendering:geometricPrecision;text-rendering:geometricPrecision" />
          <path
             class="fil1"
             d="m 7.8341485,148.33113 c -0.3900472,5.86242 12.9962855,9.97946 18.3919395,11.93272 12.55597,4.54489 33.185011,9.29235 47.091785,13.27749 3.96737,1.13688 7.704946,2.20308 11.519623,3.55804 2.536441,0.90067 9.000568,3.62419 11.389608,3.93109 -0.834898,-2.91364 -3.28441,-8.65172 -4.590237,-11.42022 -2.302488,-4.88051 -3.348662,-6.57562 -7.2223,-9.27761 -10.724789,-7.48195 -20.524349,-12.5537 -33.319185,-16.18469 -5.312883,-1.50803 -8.969198,-0.69279 -14.743183,-0.19389 -7.839119,0.67767 -22.722144,1.46343 -28.5180505,4.37707 z"
             id="path13"
             style="clip-rule:evenodd;fill:#fefefe;fill-rule:evenodd;stroke-width:0.997349;stroke-miterlimit:4;stroke-dasharray:none;image-rendering:optimizeQuality;shape-rendering:geometricPrecision;text-rendering:geometricPrecision" />
          <path
             class="fil1"
             d="m 68.453242,123.66102 c -25.161829,3.21826 -25.008759,19.49404 -1.61726,17.01959 7.126678,-0.75402 15.558427,-3.94885 18.185955,-8.44725 2.358048,-4.03691 -1.33115,-6.48945 -4.196788,-7.57153 -3.52441,-1.33077 -8.472568,-1.49933 -12.371907,-1.00081 z"
             id="path21"
             style="clip-rule:evenodd;fill:#fefefe;fill-rule:evenodd;stroke-width:0.997349;stroke-miterlimit:4;stroke-dasharray:none;image-rendering:optimizeQuality;shape-rendering:geometricPrecision;text-rendering:geometricPrecision" />
        </g>
        <g
           id="g6190"
           transform="matrix(0.17626116,0.05098284,-0.05098284,0.17626116,14.04351,6.743367)"
           style="stroke-width:0.997349;stroke-miterlimit:4;stroke-dasharray:none">
          <path
             class="fil0"
             d="m 226.65111,178.70757 c -2.19931,-2.30552 -4.14728,-3.93374 -4.8053,-7.77222 -1.93738,-11.2955 5.97619,-17.07894 16.13178,-20.89399 17.20933,-6.46564 26.68914,-4.39975 43.1384,-2.16605 9.54747,1.29676 34.24555,4.5891 40.76486,8.61732 3.21827,1.98879 3.59433,5.29059 0.048,7.3013 -5.38923,3.05537 -24.33109,1.27597 -31.79075,5.01732 -0.816,3.07616 0.57525,7.89354 1.78772,10.18091 5.80044,0.10961 12.31597,0.27515 17.91648,1.06394 5.17228,0.72832 10.60384,1.97859 15.56787,3.00473 10.3869,2.1479 20.60183,3.98778 31.04542,6.21732 13.38709,2.85808 29.67837,8.38866 43.69399,12.0926 8.05909,2.12976 9.19257,3.55238 13.81796,-0.86551 1.68,0.4199 7.92982,6.64479 8.47105,7.60554 -4.34872,-0.20182 -27.19975,-4.13102 -33.01266,-5.13524 -10.64807,-1.83988 -20.06665,-4.95648 -30.43163,-7.46155 -10.31698,-2.49335 -20.39887,-4.9096 -30.80618,-7.14708 -14.65323,-3.15024 -18.83527,-3.47226 -33.80409,-4.12347 -12.2109,-0.53102 -24.37078,-1.11194 -36.84133,-0.83376 -6.85644,0.15269 -25.5481,2.76321 -34.29279,3.60756 -2.14564,0.20749 -69.00776,4.02179 -72.15422,3.79238 l -3.03533,-5.71767 c 13.36667,0.17045 27.3445,-0.99931 40.61934,-1.96989 12.096,-0.88441 17.65984,-1.68038 28.81361,-3.03459 z M 6.2426362,148.79147 c 5.7959098,-2.91364 20.6789298,-3.6994 28.5180498,-4.37707 5.77399,-0.4989 9.4303,-1.31414 14.74319,0.19389 12.79483,3.63099 22.59439,8.70274 33.31918,16.18469 3.87364,2.70199 4.91981,4.3971 7.2223,9.27761 1.30583,2.7685 3.75534,8.50658 4.59024,11.42022 -2.38904,-0.3069 -8.85317,-3.03042 -11.38961,-3.93109 -3.81468,-1.35496 -7.55225,-2.42116 -11.51962,-3.55804 -13.90678,-3.98514 -34.53582,-8.7326 -47.09179,-13.27749 -5.39565,-1.95326 -18.7819898,-6.0703 -18.3919398,-11.93272 z M 66.861736,124.12136 c 3.89933,-0.49852 8.84749,-0.32996 12.3719,1.00081 2.86564,1.08208 6.55484,3.53462 4.19679,7.57153 -2.62753,4.4984 -11.05928,7.69323 -18.18595,8.44725 -23.3915,2.47445 -23.54457,-13.80133 1.61726,-17.01959 z M 0.33069623,136.98082 c 0,4.09172 0.72755997,7.24876 2.68459997,10.64202 0.70262,1.21776 1.07792,1.11231 1.73065,2.12787 2.10746,3.27723 1.61008,4.27427 7.5152098,7.21739 13.855,6.9052 32.27188,11.03131 47.71995,15.08107 6.80428,1.78356 13.8686,3.6223 20.48919,5.82463 3.83434,1.27597 7.06205,2.60825 10.87862,3.85663 5.41606,1.77109 4.69909,2.74545 8.46954,9.77008 l 2.774554,4.59137 c 1.90375,3.14041 4.31773,5.71541 6.57071,8.51188 0.74759,0.92749 0.89575,1.18942 1.78772,2.0708 8.42683,8.3263 27.65065,21.82451 39.21714,21.82451 2.72239,0 8.0708,-5.58425 8.0708,-9.81808 0,-6.19162 -3.9292,-22.14085 -6.31635,-26.64908 7.82967,0 18.6259,-1.46721 26.32404,-1.39653 2.5319,0.0231 3.87364,-0.3772 6.66142,-0.35641 6.82658,0.0503 13.15956,-1.09342 20.00088,-1.0526 l 26.287,-1.78469 c 3.92806,-0.37115 8.42003,-0.93128 12.5091,-1.5258 2.20157,-0.3205 4.04561,-0.44145 6.27137,-0.74645 10.54337,-1.44378 24.27855,-0.10923 34.94136,-0.15119 2.97864,-0.0121 4.46173,0.3704 7.36592,0.35377 2.94917,-0.017 4.86841,0.35754 7.35912,0.36019 16.59288,0.0189 33.16725,4.92056 49.11308,8.42986 l 27.62192,7.11231 c 11.16473,3.31427 46.25424,7.58816 48.91352,8.62904 4.22438,1.65279 8.38488,4.65865 11.97279,7.32133 1.51181,1.12214 3.02022,2.14866 4.50973,3.20844 7.36063,5.23691 15.23112,9.20315 24.47585,10.28409 1.9714,0.23055 1.28579,-0.0711 3.24472,-0.11452 -0.0461,-2.05379 -1.41846,-2.64529 -2.71975,-3.94469 -2.8936,-2.8902 -6.15685,-5.64586 -8.65739,-8.88113 -2.62072,-3.39062 -4.98519,-5.19459 -7.85574,-9.6824 -3.49758,-5.46709 -6.01701,-12.14778 -1.48649,-17.83143 0.83149,-1.04315 3.43823,-3.14382 4.9285,-3.49078 -0.39382,-4.72819 -9.51156,-6.66217 -15.08901,-6.66217 -7.66753,0 -13.83534,1.3697 -20.00202,2.80517 -1.77675,-3.35547 -5.47653,-7.08095 -7.94267,-9.94621 l -4.25122,-4.51805 c -4.53656,-4.53316 -9.04252,-8.94652 -14.07874,-12.93128 -10.17335,-8.05001 -20.89021,-15.50362 -32.32895,-21.69449 -15.91143,-8.61165 -31.49329,-16.96176 -48.73134,-23.18702 -8.89021,-3.21071 -18.35641,-6.11679 -27.49002,-8.64718 -2.18192,-0.60473 -4.61783,-1.29109 -6.69619,-2.074968 l -13.27181,-4.620851 c -3.05613,-1.107023 -9.96359,-3.293858 -12.16252,-5.729764 -7.28693,-8.071182 -7.44756,-16.332852 -7.44756,-27.271562 0,-5.401324 0.46639,-10.125356 1.25631,-15.575435 1.97103,-13.598364 -1.62709,-13.429797 3.34791,-30.316348 0.9377,-3.18199 6.31521,-19.6784901 -1.44605,-19.6784901 -3.08712,0 -3.48699,0.13719 -5.70255,2.36636001 l -8.33764,9.55161999 c -0.91087,1.18942 -1.63238,2.1728501 -2.47408,3.4888901 -0.71735,1.12176 -1.6577,2.34859 -2.43855,3.52403 l -4.56,7.715904 c -1.35496,2.622236 -2.69254,5.02526 -4.09625,7.828914 -0.72756,1.452472 -1.17771,2.73789 -1.86596,4.096252 -4.74217,9.355844 -8.57046,19.538648 -13.10664,28.980665 -0.72152,1.501985 -1.04089,2.67137 -1.86558,4.09663 -0.73776,1.274457 -1.74312,2.317607 -2.57159,3.391371 -3.34337,4.333607 -9.64158,7.791497 -14.88454,9.321072 -6.57146,1.917354 -14.16756,2.987339 -21.25946,2.950677 -17.73809,-0.09146 -61.74237,4.379717 -77.204044,7.008757 -16.31282,2.773418 -28.70552,5.166615 -44.4892,9.543686 -1.35421,0.37531 -3.07578,0.8863 -4.59478,1.3697 -4.78904,1.52429 -7.99786,3.24586 -12.3239,5.568 -8.90457,4.78073 -25.26463977,17.95465 -25.26463977,29.45462 z"
             id="path6192"
             style="clip-rule:evenodd;fill:#000000;fill-rule:evenodd;stroke:#ffffff;stroke-width:10.9;stroke-miterlimit:4;stroke-dasharray:none;image-rendering:optimizeQuality;shape-rendering:geometricPrecision;text-rendering:geometricPrecision" />
          <path
             class="fil0"
             d="m 228.24262,178.24723 c -2.19931,-2.30552 -4.14728,-3.93374 -4.8053,-7.77222 -1.93738,-11.2955 5.97619,-17.07894 16.13178,-20.89399 17.20933,-6.46564 26.68914,-4.39975 43.1384,-2.16605 9.54747,1.29676 34.24555,4.5891 40.76486,8.61732 3.21827,1.98879 3.59433,5.29059 0.048,7.3013 -5.38923,3.05537 -24.33109,1.27597 -31.79075,5.01732 -0.816,3.07616 0.57525,7.89354 1.78772,10.18091 5.80044,0.10961 12.31597,0.27515 17.91648,1.06394 5.17228,0.72832 10.60384,1.97859 15.56787,3.00473 10.3869,2.1479 20.60183,3.98778 31.04542,6.21732 13.38709,2.85808 29.67837,8.38866 43.69399,12.0926 8.05909,2.12976 9.19257,3.55238 13.81796,-0.86551 1.68,0.4199 7.92982,6.64479 8.47105,7.60554 -4.34872,-0.20182 -27.19975,-4.13102 -33.01266,-5.13524 -10.64807,-1.83988 -20.06665,-4.95648 -30.43163,-7.46155 -10.31698,-2.49335 -20.39887,-4.9096 -30.80618,-7.14708 -14.65323,-3.15024 -18.83527,-3.47226 -33.80409,-4.12347 -12.2109,-0.53102 -24.37078,-1.11194 -36.84133,-0.83376 -6.85644,0.15269 -25.5481,2.76321 -34.29279,3.60756 -2.14564,0.20749 -69.00776,4.02179 -72.15422,3.79238 l -3.03533,-5.71767 c 13.36667,0.17045 27.3445,-0.99931 40.61934,-1.96989 12.096,-0.88441 17.65984,-1.68038 28.81361,-3.03459 z M 7.8341485,148.33113 c 5.7959065,-2.91364 20.6789315,-3.6994 28.5180505,-4.37707 5.773985,-0.4989 9.4303,-1.31414 14.743183,0.19389 12.794836,3.63099 22.594396,8.70274 33.319185,16.18469 3.873638,2.70199 4.919812,4.3971 7.2223,9.27761 1.305827,2.7685 3.755339,8.50658 4.590237,11.42022 -2.38904,-0.3069 -8.853167,-3.03042 -11.389608,-3.93109 -3.814677,-1.35496 -7.552253,-2.42116 -11.519623,-3.55804 C 59.411099,169.5562 38.782058,164.80874 26.226088,160.26385 20.830434,158.31059 7.4441013,154.19355 7.8341485,148.33113 Z M 68.453242,123.66102 c 3.899339,-0.49852 8.847497,-0.32996 12.371907,1.00081 2.865638,1.08208 6.554836,3.53462 4.196788,7.57153 -2.627528,4.4984 -11.059277,7.69323 -18.185955,8.44725 -23.391499,2.47445 -23.544569,-13.80133 1.61726,-17.01959 z M 1.9222109,136.52048 c 0,4.09172 0.7275591,7.24876 2.6845987,10.64202 0.7026142,1.21776 1.0779214,1.11231 1.7306459,2.12787 2.1074648,3.27723 1.6100789,4.27427 7.5152135,7.21739 13.854994,6.9052 32.271878,11.03131 47.719943,15.08107 6.804284,1.78356 13.8686,3.6223 20.489199,5.82463 3.834331,1.27597 7.062048,2.60825 10.878615,3.85663 5.416064,1.77109 4.699087,2.74545 8.469544,9.77008 l 2.77455,4.59137 c 1.90375,3.14041 4.31773,5.71541 6.57071,8.51188 0.74759,0.92749 0.89575,1.18942 1.78772,2.0708 8.42683,8.3263 27.65065,21.82451 39.21714,21.82451 2.72239,0 8.0708,-5.58425 8.0708,-9.81808 0,-6.19162 -3.9292,-22.14085 -6.31635,-26.64908 7.82967,0 18.6259,-1.46721 26.32404,-1.39653 2.5319,0.0231 3.87364,-0.3772 6.66142,-0.35641 6.82658,0.0503 13.15956,-1.09342 20.00088,-1.0526 l 26.287,-1.78469 c 3.92806,-0.37115 8.42003,-0.93128 12.5091,-1.5258 2.20157,-0.3205 4.04561,-0.44145 6.27137,-0.74645 10.54337,-1.44378 24.27855,-0.10923 34.94136,-0.15119 2.97864,-0.0121 4.46173,0.3704 7.36592,0.35377 2.94917,-0.017 4.86841,0.35754 7.35912,0.36019 16.59288,0.0189 33.16725,4.92056 49.11308,8.42986 l 27.62192,7.11231 c 11.16473,3.31427 46.25424,7.58816 48.91352,8.62904 4.22438,1.65279 8.38488,4.65865 11.97279,7.32133 1.51181,1.12214 3.02022,2.14866 4.50973,3.20844 7.36063,5.23691 15.23112,9.20315 24.47585,10.28409 1.9714,0.23055 1.28579,-0.0711 3.24472,-0.11452 -0.0461,-2.05379 -1.41846,-2.64529 -2.71975,-3.94469 -2.8936,-2.8902 -6.15685,-5.64586 -8.65739,-8.88113 -2.62072,-3.39062 -4.98519,-5.19459 -7.85574,-9.6824 -3.49758,-5.46709 -6.01701,-12.14778 -1.48649,-17.83143 0.83149,-1.04315 3.43823,-3.14382 4.9285,-3.49078 -0.39382,-4.72819 -9.51156,-6.66217 -15.08901,-6.66217 -7.66753,0 -13.83534,1.3697 -20.00202,2.80517 -1.77675,-3.35547 -5.47653,-7.08095 -7.94267,-9.94621 l -4.25122,-4.51805 c -4.53656,-4.53316 -9.04252,-8.94652 -14.07874,-12.93128 -10.17335,-8.05001 -20.89021,-15.50362 -32.32895,-21.69449 -15.91143,-8.61165 -31.49329,-16.96176 -48.73134,-23.18702 -8.89021,-3.21071 -18.35641,-6.11679 -27.49002,-8.64718 -2.18192,-0.60473 -4.61783,-1.29109 -6.69619,-2.074966 l -13.27181,-4.620851 c -3.05613,-1.107023 -9.96359,-3.293858 -12.16252,-5.729764 -7.28693,-8.071182 -7.44756,-16.332852 -7.44756,-27.271562 0,-5.401324 0.46639,-10.125356 1.25631,-15.575435 1.97103,-13.598364 -1.62709,-13.429797 3.34791,-30.31635 0.9377,-3.181985 6.31521,-19.6784907 -1.44605,-19.6784907 -3.08712,0 -3.48699,0.1371969 -5.70255,2.3663625 l -8.33764,9.5516231 c -0.91087,1.1894175 -1.63238,2.1728511 -2.47408,3.4888821 -0.71735,1.121764 -1.6577,2.348599 -2.43855,3.524032 l -4.56,7.715907 c -1.35496,2.622236 -2.69254,5.02526 -4.09625,7.828914 -0.72756,1.452472 -1.17771,2.73789 -1.86596,4.096252 -4.74217,9.355844 -8.57046,19.538648 -13.10664,28.980665 -0.72152,1.501985 -1.04089,2.67137 -1.86558,4.09663 -0.73776,1.274457 -1.74312,2.317607 -2.57159,3.391371 -3.34337,4.333607 -9.64158,7.791497 -14.88454,9.321072 -6.57146,1.917354 -14.16756,2.987339 -21.25946,2.950677 -17.73809,-0.09146 -61.74237,4.379717 -77.204045,7.008757 -16.312821,2.773418 -28.705515,5.166615 -44.489202,9.543684 -1.354205,0.37531 -3.07578,0.8863 -4.594772,1.3697 -4.78904,1.52429 -7.99786,3.24586 -12.323907,5.568 -8.904568,4.78073 -25.2646331,17.95465 -25.2646331,29.45462 z"
             id="path6182"
             style="clip-rule:evenodd;fill:#000000;fill-rule:evenodd;stroke-width:8.17499;stroke-miterlimit:4;stroke-dasharray:none;image-rendering:optimizeQuality;shape-rendering:geometricPrecision;text-rendering:geometricPrecision" />
          <path
             class="fil1"
             d="m 228.24262,178.24723 -9.1578,1.3799 c -11.15377,1.35421 -16.71761,2.15018 -28.81361,3.03459 -13.27484,0.97058 -27.25267,2.14034 -40.61934,1.96989 l 3.03533,5.71767 c 3.14646,0.22941 70.00858,-3.58489 72.15422,-3.79238 8.74469,-0.84435 27.43635,-3.45487 34.29279,-3.60756 12.47055,-0.27818 24.63043,0.30274 36.84133,0.83376 14.96882,0.65121 19.15086,0.97323 33.80409,4.12347 10.40731,2.23748 20.4892,4.65373 30.80618,7.14708 10.36498,2.50507 19.78356,5.62167 30.43163,7.46155 5.81291,1.00422 28.66394,4.93342 33.01266,5.13524 -0.54123,-0.96075 -6.79105,-7.18564 -8.47105,-7.60554 -4.62539,4.41789 -5.75887,2.99527 -13.81796,0.86551 -14.01562,-3.70394 -30.3069,-9.23452 -43.69399,-12.0926 -10.44359,-2.22954 -20.65852,-4.06942 -31.04542,-6.21732 -4.96403,-1.02614 -10.39559,-2.27641 -15.56787,-3.00473 -5.60051,-0.78879 -12.11604,-0.95433 -17.91648,-1.06394 -1.21247,-2.28737 -2.60372,-7.10475 -1.78772,-10.18091 7.45966,-3.74135 26.40152,-1.96195 31.79075,-5.01732 3.54633,-2.01071 3.17027,-5.31251 -0.048,-7.3013 -6.51931,-4.02822 -31.21739,-7.32056 -40.76486,-8.61732 -16.44926,-2.2337 -25.92907,-4.29959 -43.1384,2.16605 -10.15559,3.81505 -18.06916,9.59849 -16.13178,20.89399 0.65802,3.83848 2.60599,5.4667 4.8053,7.77222 z"
             id="path6184"
             style="clip-rule:evenodd;fill:#fefefe;fill-rule:evenodd;stroke-width:0.997349;stroke-miterlimit:4;stroke-dasharray:none;image-rendering:optimizeQuality;shape-rendering:geometricPrecision;text-rendering:geometricPrecision" />
          <path
             class="fil1"
             d="m 7.8341485,148.33113 c -0.3900472,5.86242 12.9962855,9.97946 18.3919395,11.93272 12.55597,4.54489 33.185011,9.29235 47.091785,13.27749 3.96737,1.13688 7.704946,2.20308 11.519623,3.55804 2.536441,0.90067 9.000568,3.62419 11.389608,3.93109 -0.834898,-2.91364 -3.28441,-8.65172 -4.590237,-11.42022 -2.302488,-4.88051 -3.348662,-6.57562 -7.2223,-9.27761 -10.724789,-7.48195 -20.524349,-12.5537 -33.319185,-16.18469 -5.312883,-1.50803 -8.969198,-0.69279 -14.743183,-0.19389 -7.839119,0.67767 -22.722144,1.46343 -28.5180505,4.37707 z"
             id="path6186"
             style="clip-rule:evenodd;fill:#fefefe;fill-rule:evenodd;stroke-width:0.997349;stroke-miterlimit:4;stroke-dasharray:none;image-rendering:optimizeQuality;shape-rendering:geometricPrecision;text-rendering:geometricPrecision" />
          <path
             class="fil1"
             d="m 68.453242,123.66102 c -25.161829,3.21826 -25.008759,19.49404 -1.61726,17.01959 7.126678,-0.75402 15.558427,-3.94885 18.185955,-8.44725 2.358048,-4.03691 -1.33115,-6.48945 -4.196788,-7.57153 -3.52441,-1.33077 -8.472568,-1.49933 -12.371907,-1.00081 z"
             id="path6188"
             style="clip-rule:evenodd;fill:#fefefe;fill-rule:evenodd;stroke-width:0.997349;stroke-miterlimit:4;stroke-dasharray:none;image-rendering:optimizeQuality;shape-rendering:geometricPrecision;text-rendering:geometricPrecision" />
        </g>
      </g>
    </g>
  </g>
  <g
     inkscape:groupmode="layer"
     id="layer2"
     inkscape:label="Symbol"
     style="display:inline" />
</svg>
