<?xml version="1.0" encoding="UTF-8" standalone="no"?>
<svg
   xmlns:dc="http://purl.org/dc/elements/1.1/"
   xmlns:cc="http://creativecommons.org/ns#"
   xmlns:rdf="http://www.w3.org/1999/02/22-rdf-syntax-ns#"
   xmlns:svg="http://www.w3.org/2000/svg"
   xmlns="http://www.w3.org/2000/svg"
   xmlns:sodipodi="http://sodipodi.sourceforge.net/DTD/sodipodi-0.dtd"
   xmlns:inkscape="http://www.inkscape.org/namespaces/inkscape"
   width="45"
   height="45"
   viewBox="0 0 11.90625 11.90625"
   version="1.1"
   id="svg4393"
   sodipodi:docname="bCommoner.svg"
   inkscape:version="0.92.1 r15371">
  <defs
     id="defs4387" />
  <sodipodi:namedview
     id="base"
     pagecolor="#ffffff"
     bordercolor="#666666"
     borderopacity="1.0"
     inkscape:pageopacity="0.0"
     inkscape:pageshadow="2"
     inkscape:zoom="3"
     inkscape:cx="30.240069"
     inkscape:cy="21.353804"
     inkscape:document-units="mm"
     inkscape:current-layer="layer1"
     showgrid="false"
     units="px"
     inkscape:window-width="1600"
     inkscape:window-height="837"
     inkscape:window-x="-8"
     inkscape:window-y="-8"
     inkscape:window-maximized="1"
     inkscape:document-rotation="0" />
  <metadata
     id="metadata4390">
    <rdf:RDF>
      <cc:Work
         rdf:about="">
        <dc:format>image/svg+xml</dc:format>
        <dc:type
           rdf:resource="http://purl.org/dc/dcmitype/StillImage" />
        <dc:title />
      </cc:Work>
    </rdf:RDF>
  </metadata>
  <g
     inkscape:label="Layer 1"
     inkscape:groupmode="layer"
     id="layer1"
     transform="translate(0,-285.09373)">
    <g
       id="g4572"
       transform="matrix(0.28921369,0,0,0.28921369,-0.54713251,283.72613)">
      <circle
         id="circle4537"
         r="2.5"
         cy="-37.125"
         cx="-22.451244"
         style="fill:#000000;stroke:#000000;stroke-width:1.5;stroke-linejoin:round"
         transform="scale(-1)" />
      <circle
         id="circle4539"
         r="1.5"
         cy="-37.125"
         cx="-22.451244"
         style="fill:none;stroke:#ffffff;stroke-width:1.5;stroke-linejoin:round"
         transform="scale(-1)" />
      <g
         id="g4543"
         style="fill:#000000;stroke:#000000;stroke-width:1.5;stroke-linejoin:round">
        <!-- test -->
        <path
           id="path4541"
           d="m 33.451244,13.625 c -5.5,-3.5 -15.5,-3.5 -21,0 v 7 c 0,0 -9.0000004,4.5 -6.0000004,11 5.5000004,7 26.5000004,7 32.0000004,0 3,-6.5 -5,-10.5 -5,-10.5 z"
           inkscape:connector-curvature="0" />
      </g>
      <g
         id="g4553"
         style="fill:none;stroke:#ffffff;stroke-width:1.5;stroke-linecap:round;stroke-linejoin:round">
        <!-- test -->
        <path
           id="path4545"
           d="m 12.951244,21.125 c 0,0 -8.5000004,4 -6.0000004,9.65 5.3500004,6.85 25.6500004,6.85 31.0000004,0 2.5,-5.65 -4.85,-9 -4.85,-9"
           inkscape:connector-curvature="0" />
        <!-- talp -->
        <path
           id="path4547"
           d="m 33.451244,20.625 c -5.5,3 -15.5,3 -21,0"
           inkscape:connector-curvature="0" />
        <path
           id="path4549"
           d="m 33.451244,17.125 c -5.5,3 -15.5,3 -21,0"
           inkscape:connector-curvature="0" />
        <path
           id="path4551"
           d="m 33.451244,13.625 c -5.5,3 -15.5,3 -21,0"
           inkscape:connector-curvature="0" />
      </g>
    </g>
  </g>
</svg>
