<?xml version="1.0" encoding="UTF-8" standalone="no"?>
<svg
   viewBox="0 0 45 45"
   version="1.1"
   id="svg5"
   sodipodi:docname="bGH.svg"
   inkscape:version="1.2.1 (9c6d41e410, 2022-07-14)"
   width="45"
   height="45"
   xmlns:inkscape="http://www.inkscape.org/namespaces/inkscape"
   xmlns:sodipodi="http://sodipodi.sourceforge.net/DTD/sodipodi-0.dtd"
   xmlns="http://www.w3.org/2000/svg"
   xmlns:svg="http://www.w3.org/2000/svg"
   xmlns:rdf="http://www.w3.org/1999/02/22-rdf-syntax-ns#"
   xmlns:cc="http://creativecommons.org/ns#"
   xmlns:dc="http://purl.org/dc/elements/1.1/">
  <defs
     id="defs9" />
  <sodipodi:namedview
     pagecolor="#ffffff"
     bordercolor="#666666"
     borderopacity="1"
     objecttolerance="10"
     gridtolerance="10"
     guidetolerance="10"
     inkscape:pageopacity="0"
     inkscape:pageshadow="2"
     inkscape:window-width="1902"
     inkscape:window-height="1033"
     id="namedview7"
     showgrid="false"
     inkscape:zoom="13.350176"
     inkscape:cx="11.83505"
     inkscape:cy="37.45269"
     inkscape:window-x="0"
     inkscape:window-y="0"
     inkscape:window-maximized="0"
     inkscape:current-layer="svg5"
     inkscape:showpageshadow="2"
     inkscape:pagecheckerboard="0"
     inkscape:deskcolor="#d1d1d1" />
  <metadata
     id="metadata3">
    <rdf:RDF>
      <rdf:Description
         about="https://iconscout.com/legal#licenses"
         dc:title="grasshopper"
         dc:description="grasshopper"
         dc:publisher="Iconscout"
         dc:date="2017-12-07"
         dc:format="image/svg+xml"
         dc:language="en">
        <dc:creator>
          <rdf:Bag>
            <rdf:li>Icons8</rdf:li>
          </rdf:Bag>
        </dc:creator>
      </rdf:Description>
      <cc:Work
         rdf:about="">
        <dc:format>image/svg+xml</dc:format>
        <dc:type
           rdf:resource="http://purl.org/dc/dcmitype/StillImage" />
      </cc:Work>
    </rdf:RDF>
  </metadata>
  <path
     d="m 36.890743,6.3573562 c -0.02917,0.00598 -0.05834,0.014958 -0.08479,0.023185 a 0.67971754,0.74940934 0 0 0 -0.5298,0.7479135 c 0,5.2324033 -3.025489,7.9907083 -3.158448,8.1103743 a 2.2413042,2.4711062 0 0 0 -0.742127,0.163793 0.31611615,0.3485277 0 0 0 -0.04274,0.02244 c -1.178991,0.56991 -2.638823,1.604274 -4.51517,2.711934 -0.02917,0.01496 -0.05834,0.02917 -0.08479,0.04637 0.04003,-0.03216 -0.400232,0.260274 -0.974804,0.560935 -0.57525,0.301409 -1.34926,0.692568 -2.268438,1.145803 a 265.28657,292.48654 0 0 1 -6.295868,2.967721 C 15.663473,20.389709 12.665797,17.818383 11.007205,16.220092 10.551347,15.784806 10.029687,15.513313 9.5229517,15.425808 a 2.1422635,2.3619109 0 0 0 -1.4198093,0.280467 c -0.8160681,0.525783 -1.1579619,1.723193 -0.8269219,2.944536 h -0.021029 l 0.021029,0.09349 1.5263119,8.344471 c -0.705493,0.245314 -1.7142156,0.607305 -2.5017924,0.77035 a 0.68514443,0.75539265 0 0 0 -0.5189461,0.479412 c -0.082082,0.251299 -0.03731,0.531767 0.116678,0.736695 0,0 1.6585923,2.28712 3.8788672,3.365611 l 0.7631559,4.18308 C 10.395326,36.574558 10.434671,36.545389 10.265081,36.507246 9.2848492,36.29409 7.8643616,36.31204 6.1528573,37.115299 a 0.67971754,0.74940934 0 0 0 -0.1723037,1.338018 c 0.2170755,0.157061 0.4979169,0.166036 0.7231326,0.0172 1.4761132,-0.692568 2.5757361,-0.674618 3.3070088,-0.513817 0.731273,0.160801 1.039249,0.443513 1.039249,0.443513 a 0.67903919,0.74866142 0 0 0 1.060278,-0.747914 L 11.5153,34.427298 a 0.57117982,0.62974318 0 0 0 0.06377,-0.140608 c 1.115225,-2.687253 1.102336,-5.390212 0.86898,-7.501572 0.892723,1.343253 1.84989,2.854038 2.692413,3.879427 h 0.02103 c 0.725845,0.86758 1.682334,1.24752 2.586589,1.191427 0.903577,-0.05535 1.761703,-0.50185 2.416322,-1.168241 0.654618,-0.665643 1.115903,-1.578098 1.187131,-2.617698 0.07122,-1.039599 -0.286268,-2.165209 -1.145073,-3.132261 v -0.02244 c -0.28288,-0.313374 -0.595604,-0.634229 -0.911042,-0.958823 a 259.96347,286.61766 0 0 0 5.744359,-2.711186 c 0.927998,-0.456228 1.720323,-0.858605 2.311176,-1.168989 0.548115,-0.285703 0.837097,-0.435286 1.102336,-0.630491 l 0.08479,-0.04712 c 1.862779,-1.10392 3.351781,-2.121083 4.32455,-2.593764 0.286269,-0.123406 0.474175,-0.114431 0.69939,0 0.225216,0.113683 0.468748,0.364982 0.699391,0.747914 0.458572,0.768107 0.784863,2.05377 0.784863,3.341677 0,1.530979 -0.729238,2.801684 -1.611786,3.716382 a 6.4037262,7.0603035 0 0 1 -1.31398,1.051568 c -0.394805,0.234097 -0.760442,0.304401 -0.721097,0.304401 -0.0285,0 -0.0658,0.0082 -0.16959,-0.09349 -0.103111,-0.102464 -0.235391,-0.318611 -0.381239,-0.631239 -0.294409,-0.625255 -0.611882,-1.615493 -0.911717,-2.828609 a 0.67971754,0.74940934 0 0 0 -1.22919,-0.209415 c -0.55422,0.952094 -1.851925,3.481537 -3.773721,5.912256 l -0.189941,-1.424775 a 0.67836082,0.74791351 0 0 0 -0.721098,-0.654425 0.6837877,0.75389682 0 0 0 -0.492489,0.274485 c -0.122106,0.166784 -0.172304,0.37994 -0.143134,0.590851 l 0.360209,2.593764 c -1.97403,2.114352 -4.380176,3.809124 -7.080052,3.809124 -1.587364,0 -2.543853,-0.397142 -2.543853,-0.397142 a 0.67429066,0.74342603 0 0 0 -0.694642,0.104708 0.67496902,0.74417394 0 0 0 -0.240818,0.725476 0.67836082,0.74791351 0 0 0 0.468747,0.572154 c 0,0 1.206127,0.490631 3.010566,0.490631 2.861326,0 5.328524,-1.548181 7.334437,-3.506219 l 0.212327,1.449457 a 0.67632574,0.74566977 0 0 0 0.147883,0.373957 l 2.840975,3.739567 a 0.67836082,0.74791351 0 0 0 0.826922,0.186978 c 0,0 0.267274,-0.134624 0.571858,-0.186978 0.305262,-0.05235 0.498596,-0.04113 0.636302,0.140608 0.151275,0.224374 0.400234,0.335813 0.649192,0.294678 A 0.67971754,0.74940934 0 0 0 30.276725,36.0398 c -0.540654,-0.715754 -1.343155,-0.774091 -1.886521,-0.67761 -0.248959,0.04413 -0.278128,0.09648 -0.445005,0.163793 l -2.417,-3.202566 -0.317473,-2.313296 c 0.134994,-0.154818 0.272701,-0.309636 0.402268,-0.467446 a 25.876074,28.529161 0 0 0 1.611107,-2.174185 l 0.551507,0.49138 2.119878,5.094786 a 0.67632574,0.74566977 0 0 0 0.911039,0.350772 c 0,0 0.267952,-0.134625 0.572536,-0.186978 0.305263,-0.05235 0.498595,-0.04114 0.636303,0.140607 a 0.68539363,0.75566743 0 0 0 1.059599,-0.958825 c -0.540654,-0.715753 -1.364183,-0.77409 -1.90755,-0.67761 -0.169591,0.02992 -0.162129,0.0703 -0.297123,0.116675 l -1.90755,-4.650526 a 0.69328476,0.76436761 0 0 0 -0.191298,-0.280468 l -0.741448,-0.654424 a 44.093453,48.614378 0 0 0 1.080629,-1.847346 c 0.16959,0.555699 0.329004,1.210124 0.530478,1.636434 0.193333,0.409109 0.400232,0.744922 0.678361,1.028381 0.278128,0.284208 0.670221,0.49138 1.080628,0.49138 0.482315,0 0.853378,-0.192962 1.356721,-0.49138 0.504023,-0.297669 1.078595,-0.70977 1.611786,-1.26173 1.06774,-1.104668 2.035083,-2.755313 2.035083,-4.815067 0,-1.391119 -0.276093,-2.74933 -0.805893,-3.809123 1.044676,-0.739687 3.545792,-2.868997 4.070165,-6.848644 A 0.68039591,0.75015725 0 0 0 39.480046,9.5793676 0.68039591,0.75015725 0 0 0 38.883088,9.3721956 0.67429066,0.74342603 0 0 0 38.311231,10.003435 c -0.487742,3.698432 -2.904063,5.483701 -3.561395,5.913004 -0.05834,-0.05535 -0.108537,-0.113683 -0.16959,-0.163793 1.065027,-1.26173 3.052624,-4.210005 3.052624,-8.624191 A 0.67836082,0.74791351 0 0 0 36.890743,6.3573562 Z M 9.0358907,16.898449 a 0.85473463,0.94237102 0 0 1 0.2964438,0 c 0.2252157,0.04039 0.4952034,0.169029 0.7848635,0.443513 1.724393,1.665603 4.737672,4.25114 7.207583,6.661666 0.002,0.0022 -0.0027,0.02019 0,0.02244 0.07666,0.231853 0.250994,0.406865 0.466034,0.468194 0.0027,0.003 0.01832,-0.003 0.02103,0 0.506057,0.505589 0.991085,0.999212 1.420488,1.471894 l 0.02103,0.02393 c 0.615274,0.703786 0.78215,1.367186 0.742127,1.963273 -0.04274,0.604314 -0.325613,1.189182 -0.763155,1.635687 -0.437544,0.447252 -1.020255,0.736694 -1.569049,0.771846 -0.548116,0.0344 -1.043997,-0.149582 -1.504604,-0.701542 -1.221728,-1.486853 -2.257585,-3.435915 -4.324551,-6.170287 a 0.67971754,0.74940934 0 0 0 -0.824208,-0.166785 0.68039591,0.75015725 0 0 0 -0.341894,0.845143 c 0,0 0.820816,3.552589 0.275415,7.058059 l -0.678366,-3.670011 -0.02103,-0.13986 a 0.59627916,0.65741598 0 0 0 -0.02103,-0.0703 L 8.5902077,18.347158 a 0.79300379,0.87431089 0 0 0 -0.020351,-0.09349 c -0.2306426,-0.765116 -0.032561,-1.091954 0.2326778,-1.262479 0.066479,-0.04338 0.1458476,-0.07554 0.2333561,-0.09349 z m 24.1876333,2.944536 a 1.0175413,1.1218703 0 1 0 0,2.24374 1.0175413,1.1218703 0 0 0 0,-2.24374 z m -24.1455748,8.71768 0.3391803,1.963273 C 8.7360553,30.03929 8.1587702,29.466388 7.7212275,28.98174 c 0.543367,-0.17202 0.938173,-0.289443 1.3567217,-0.421075 z"
     id="surface1"
     inkscape:connector-curvature="0"
     style="fill:#000000;fill-opacity:1;stroke-width:0.712289" />
  <path
     style="fill:#000000;fill-opacity:1;stroke:#000000;stroke-width:1.248;stroke-linecap:butt;stroke-linejoin:miter;stroke-dasharray:none;stroke-opacity:1"
     d="m 11.813493,32.981589 2.072841,0.728296"
     id="path3714"
     inkscape:connector-curvature="0" />
  <path
     style="fill:#000000;fill-opacity:1;stroke:#000000;stroke-width:0.5;stroke-dasharray:none;stroke-opacity:1"
     d="m 10.907292,30.842367 c -0.02078,-0.07703 -0.202506,-1.03502 -0.403838,-2.128865 C 8.9325963,20.178968 8.5504955,18.050757 8.5311736,17.728365 c -0.019942,-0.332739 -0.00781,-0.385817 0.124017,-0.542481 0.1948471,-0.231563 0.4610278,-0.317315 0.7464246,-0.240465 0.2823874,0.07604 0.5339316,0.26238 1.1887578,0.880616 0.292719,0.276363 1.40197,1.292379 2.465001,2.257815 2.788875,2.532829 4.143033,3.809724 4.294202,4.049192 0.07286,0.115403 0.228522,0.270468 0.345936,0.344588 0.284106,0.179348 1.529789,1.490754 1.802626,1.897733 0.36459,0.543841 0.461926,0.878393 0.43761,1.504083 -0.01891,0.486653 -0.041,0.579107 -0.22937,0.960256 -0.511173,1.034289 -1.629298,1.666031 -2.555471,1.443846 -0.655742,-0.15731 -0.987952,-0.543312 -2.846084,-3.306924 -1.637025,-2.43476 -2.481192,-3.59745 -2.676537,-3.686454 -0.290691,-0.132448 -0.528117,-0.08567 -0.76439,0.150603 -0.268177,0.268177 -0.274075,0.378077 -0.08174,1.523234 0.07467,0.444566 0.169204,1.110824 0.210086,1.480574 0.135182,1.222648 0.06324,4.947145 -0.08494,4.397786 z"
     id="path3716"
     inkscape:connector-curvature="0" />
  <path
     style="fill:#000000;fill-opacity:1;stroke:#000000;stroke-width:0.5;stroke-dasharray:none;stroke-opacity:1"
     d="m 15.576398,33.215051 c -0.498955,-0.07494 -0.870669,-0.155845 -1.280147,-0.278638 -0.368797,-0.110592 -0.50191,-0.128401 -0.628886,-0.08414 -0.134207,0.04678 -0.269369,0.01779 -0.810439,-0.173851 -0.608465,-0.215512 -0.647312,-0.238201 -0.616694,-0.360193 0.270831,-1.079077 0.414435,-2.991314 0.326291,-4.344907 -0.03465,-0.532152 -0.05666,-0.973892 -0.04891,-0.981644 0.0078,-0.0078 0.38285,0.536978 0.833551,1.210513 1.490944,2.228095 2.043587,2.888696 2.740106,3.275378 0.517915,0.287528 0.938593,0.394917 1.529958,0.390565 0.938005,-0.0069 1.760335,-0.390369 2.549036,-1.188656 0.811499,-0.821365 1.196418,-1.742564 1.196015,-2.862342 -2.24e-4,-0.696959 -0.09892,-1.125547 -0.408786,-1.775576 -0.275593,-0.57814 -0.570467,-0.981922 -1.159711,-1.588036 l -0.465125,-0.478441 1.917412,-0.89269 c 2.981955,-1.388309 6.445422,-3.136158 7.575709,-3.823102 0.554625,-0.33708 1.525219,-0.933478 2.156875,-1.325329 0.631657,-0.391851 1.38121,-0.828379 1.665675,-0.97006 0.499854,-0.248961 0.524963,-0.255281 0.748333,-0.188358 1.121946,0.336143 1.96138,3.414026 1.457181,5.342916 -0.321374,1.229463 -1.328059,2.580848 -2.498631,3.354188 -0.419746,0.277305 -0.910584,0.479023 -1.040743,0.427709 -0.286518,-0.112957 -0.886217,-1.656652 -1.342693,-3.456252 -0.125083,-0.493118 -0.579894,-0.737192 -0.983451,-0.527765 -0.17595,0.09131 -0.309543,0.290622 -0.980551,1.462929 -0.894384,1.562559 -1.784395,2.963336 -2.487133,3.914462 -0.269609,0.364904 -0.508448,0.683557 -0.530754,0.708117 -0.0223,0.02456 -0.08485,-0.290568 -0.138981,-0.700284 -0.05413,-0.409717 -0.133116,-0.812041 -0.175516,-0.894055 -0.26884,-0.520019 -0.957451,-0.513729 -1.228914,0.01123 -0.113967,0.220387 -0.109876,0.296837 0.09554,1.785548 l 0.180964,1.311518 -0.613884,0.589587 c -1.785768,1.715086 -3.534013,2.735774 -5.240237,3.059439 -0.418601,0.07941 -1.884337,0.111519 -2.292457,0.05022 z M 33.63251,22.012029 c 0.252583,-0.127903 0.372372,-0.243658 0.485803,-0.469438 0.246551,-0.490749 0.167044,-1.048395 -0.202106,-1.417546 -0.413652,-0.413652 -0.971637,-0.413652 -1.385289,0 -0.700643,0.700644 -0.263933,1.966727 0.681421,1.97553 0.132483,0.0013 0.32156,-0.03862 0.420171,-0.08855 z"
     id="path3718"
     inkscape:connector-curvature="0" />
  <path
     style="fill:#000000;fill-opacity:1;stroke:#000000;stroke-width:0.5;stroke-dasharray:none;stroke-opacity:1"
     d="M 8.9096912,30.086749 C 8.2781167,29.556386 7.7526029,29.00344 7.849028,28.970718 c 0.3049159,-0.103472 1.1946297,-0.36561 1.2037883,-0.354674 0.02708,0.03233 0.3166374,1.785169 0.2978992,1.803331 -0.011469,0.01111 -0.2099305,-0.138565 -0.4410243,-0.332626 z"
     id="path3720"
     inkscape:connector-curvature="0" />
  <path
     style="fill:#000000;fill-opacity:1;fill-rule:nonzero;stroke:#ffffff;stroke-width:1.248;stroke-linecap:round;stroke-linejoin:round;stroke-dasharray:none;stroke-opacity:1"
     d="m 8.8079601,18.90238 c -0.2345126,-0.80317 -0.2128765,-1.575554 0.4058674,-1.78616 0.8976535,-0.305541 1.7999605,1.045994 2.2416975,1.502379 0.373752,0.386144 3.260162,3.185423 3.260162,3.185423 l 4.552208,4.166561"
     id="path1048"
     sodipodi:nodetypes="csscc" />
  <ellipse
     style="fill:#ffffff;fill-opacity:1;fill-rule:nonzero;stroke:none;stroke-width:0.879354;stroke-linecap:round;stroke-linejoin:round;stroke-dasharray:none;stroke-opacity:1"
     id="path1430"
     cx="33.269234"
     cy="21.242378"
     rx="0.98725462"
     ry="1.0245264" />
</svg>
