<?xml version="1.0" encoding="UTF-8" standalone="no"?>
<svg
   xmlns:dc="http://purl.org/dc/elements/1.1/"
   xmlns:cc="http://creativecommons.org/ns#"
   xmlns:rdf="http://www.w3.org/1999/02/22-rdf-syntax-ns#"
   xmlns:svg="http://www.w3.org/2000/svg"
   xmlns="http://www.w3.org/2000/svg"
   xmlns:sodipodi="http://sodipodi.sourceforge.net/DTD/sodipodi-0.dtd"
   xmlns:inkscape="http://www.inkscape.org/namespaces/inkscape"
   width="45"
   height="45"
   version="1.1"
   id="svg12"
   sodipodi:docname="bN.svg">
  <metadata
     id="metadata18">
    <rdf:RDF>
      <cc:Work
         rdf:about="">
        <dc:format>image/svg+xml</dc:format>
        <dc:type
           rdf:resource="http://purl.org/dc/dcmitype/StillImage" />
      </cc:Work>
    </rdf:RDF>
  </metadata>
  <defs
     id="defs16" />
  <sodipodi:namedview
     pagecolor="#ffffff"
     bordercolor="#666666"
     borderopacity="1"
     objecttolerance="10"
     gridtolerance="10"
     guidetolerance="10"
     inkscape:pageopacity="0"
     inkscape:pageshadow="2"
     inkscape:window-width="640"
     inkscape:window-height="480"
     id="namedview14" />
  <g
     fill="none"
     fill-rule="evenodd"
     stroke="#000"
     stroke-width="1.5"
     stroke-linecap="round"
     stroke-linejoin="round"
     id="g10">
    <path
       d="M 22.029252,36 C 11.529252,35 5.5292521,28 6.0292521,7 H 29.029252 c 0,9 -10,6.5 -8,21"
       fill="#000000"
       id="path2" />
    <path
       d="m 20.029252,28 c -0.38,-2.91 5.55,-7.37 8,-9 3,-2 2.82,-4.34 5,-4 1.042,0.94 -1.41,3.04 0,3 1,0 -0.19,-1.23 1,-2 1,0 4.003,-1 4,4 0,2 -6,12 -6,12 0,0 -1.89,1.9 -2,3.5 0.73,0.994 0.5,2 0.5,3 -1,1 -3,-2.5 -3,-2.5 h -2 c 0,0 -0.78,1.992 -2.5,3 -1,0 -1,-3 -1,-3"
       fill="#000000"
       id="path4" />
    <path
       d="m 34.529252,20.5 a -0.5,-0.5 0 1 1 1,0 -0.5,-0.5 0 1 1 -1,0 z m -5.433,9.75 a 0.5,1.5 30 1 1 0.866,0.5 0.5,1.5 30 1 1 -0.866,-0.5 z"
       fill="#ececec"
       stroke="#ececec"
       id="path6" />
    <path
       d="m 19.479252,35.6 0.45,-1.45 -0.5,-0.15 c -3.15,-1 -5.65,-2.49 -7.9,-6.75 C 9.2792521,22.99 8.2792521,16.94 8.7792521,7 l 0.05,-0.5 h -2.25 l -0.05,0.5 c -0.5,10.06 0.88,16.85 3.25,21.34 2.3699999,4.49 5.7899999,6.64 9.1899999,7.16 z"
       fill="#ececec"
       stroke="none"
       id="path8" />
  </g>
</svg>
