<?xml version="1.0" encoding="UTF-8" standalone="no"?>
<svg
   xmlns:dc="http://purl.org/dc/elements/1.1/"
   xmlns:cc="http://creativecommons.org/ns#"
   xmlns:rdf="http://www.w3.org/1999/02/22-rdf-syntax-ns#"
   xmlns:svg="http://www.w3.org/2000/svg"
   xmlns="http://www.w3.org/2000/svg"
   xmlns:sodipodi="http://sodipodi.sourceforge.net/DTD/sodipodi-0.dtd"
   xmlns:inkscape="http://www.inkscape.org/namespaces/inkscape"
   width="45"
   height="45"
   version="1.1"
   id="svg24"
   sodipodi:docname="bQ.svg">
  <metadata
     id="metadata30">
    <rdf:RDF>
      <cc:Work
         rdf:about="">
        <dc:format>image/svg+xml</dc:format>
        <dc:type
           rdf:resource="http://purl.org/dc/dcmitype/StillImage" />
      </cc:Work>
    </rdf:RDF>
  </metadata>
  <defs
     id="defs28" />
  <sodipodi:namedview
     pagecolor="#ffffff"
     bordercolor="#666666"
     borderopacity="1"
     objecttolerance="10"
     gridtolerance="10"
     guidetolerance="10"
     inkscape:pageopacity="0"
     inkscape:pageshadow="2"
     inkscape:window-width="640"
     inkscape:window-height="480"
     id="namedview26" />
  <g
     fill-rule="evenodd"
     stroke="#000"
     stroke-width="1.5"
     stroke-linecap="round"
     stroke-linejoin="round"
     id="g22">
    <g
       stroke="none"
       id="g12">
      <circle
         cx="-39"
         cy="-34.443195"
         r="2.75"
         id="circle2"
         transform="scale(-1)" />
      <circle
         cx="-31"
         cy="-37.443195"
         r="2.75"
         id="circle4"
         transform="scale(-1)" />
      <circle
         cx="-22.5"
         cy="-38.443195"
         r="2.75"
         id="circle6"
         transform="scale(-1)" />
      <circle
         cx="-14"
         cy="-37.443195"
         r="2.75"
         id="circle8"
         transform="scale(-1)" />
      <circle
         cx="-6"
         cy="-34.443195"
         r="2.75"
         id="circle10"
         transform="scale(-1)" />
    </g>
    <path
       d="m 36,20.443197 c -8.5,1.5 -21,1.5 -27,0 l -2.5,12.5 7.5,-11.5 0.3,14.1 5.2,-13.6 3,14.5 3,-14.5 5.2,13.6 0.3,-14.1 7.5,11.5 z"
       stroke-linecap="butt"
       id="path14" />
    <path
       d="m 36,20.443197 c 0,-2 -1.5,-2 -2.5,-4 -1,-1.5 -1,-1 -0.5,-3.5 1.5,-1 1.5,-2.5 1.5,-2.5 C 36,8.9431966 34,7.9431966 34,7.9431966 c -6.5,-1 -16.5,-1 -23,0 0,0 -1.5,1 0,2.5000004 0,0 -0.5,1.5 1,2.5 0.5,2.5 0.5,2 -0.5,3.5 -1,2 -2.5,2 -2.5,4 8.5,1.5 18.5,1.5 27,0 z"
       stroke-linecap="butt"
       id="path16" />
    <path
       d="m 34,7.9431966 a 35,35 0 0 0 -23,0"
       fill="none"
       stroke-linecap="butt"
       id="path18" />
    <path
       d="m 34,17.443197 a 35,35 0 0 1 -23,0 m 21.5,-2.5 h -20 m 21,-3 a 35,35 0 0 0 -22,0 m 23,-3.0000004 a 35,35 0 0 0 -24,0"
       fill="none"
       stroke="#ececec"
       id="path20" />
  </g>
</svg>
