<?xml version="1.0" encoding="UTF-8" standalone="no"?>
<svg
   xmlns:dc="http://purl.org/dc/elements/1.1/"
   xmlns:cc="http://creativecommons.org/ns#"
   xmlns:rdf="http://www.w3.org/1999/02/22-rdf-syntax-ns#"
   xmlns:svg="http://www.w3.org/2000/svg"
   xmlns="http://www.w3.org/2000/svg"
   xmlns:sodipodi="http://sodipodi.sourceforge.net/DTD/sodipodi-0.dtd"
   xmlns:inkscape="http://www.inkscape.org/namespaces/inkscape"
   version="1.1"
   width="128"
   height="128"
   viewBox="0 0 45 45"
   id="svg32"
   sodipodi:docname="wC.svg">
  <metadata
     id="metadata38">
    <rdf:RDF>
      <cc:Work
         rdf:about="">
        <dc:format>image/svg+xml</dc:format>
        <dc:type
           rdf:resource="http://purl.org/dc/dcmitype/StillImage" />
      </cc:Work>
    </rdf:RDF>
  </metadata>
  <defs
     id="defs36" />
  <sodipodi:namedview
     pagecolor="#ffffff"
     bordercolor="#666666"
     borderopacity="1"
     objecttolerance="10"
     gridtolerance="10"
     guidetolerance="10"
     inkscape:pageopacity="0"
     inkscape:pageshadow="2"
     inkscape:window-width="640"
     inkscape:window-height="480"
     id="namedview34" />
  <!-- huszár: test -->
  <g
     transform="translate(+2, -1) scale(0.75)"
     fill="#FFF"
     stroke="#000"
     stroke-width="2"
     stroke-linecap="round"
     stroke-linejoin="round"
     id="g4">
    <path
       d="m 30.666664,53 c -10.5,-1 -16.5,-8 -16,-29 h 13 c 12,9 0,6.5 2,21"
       id="path2" />
  </g>
  <!-- bástya: alap -->
  <g
     transform="translate(+1, +2)"
     fill="#FFF"
     stroke="#000"
     stroke-width="1.5"
     stroke-linejoin="round"
     id="g10">
    <!-- test -->
    <path
       d="m 30.499998,23.25 v 5 h -4 v -2 h -5 v 2 h -5 v -2 h -5 v 2 H 7.4999983 v -5 l 2.9999997,-3 v -8.5 L 8.4999983,9.25 v -4 H 29.499998 v 4 l -2,2.5 v 8.5 z"
       id="path6" />
    <!-- talp -->
    <path
       d="M 32.499998,2.25 H 5.4999983 v 3 H 32.499998 Z"
       id="path8" />
  </g>
  <!-- bástya: vonalak -->
  <g
     transform="translate(+1, +2)"
     fill="none"
     stroke="#000"
     stroke-linecap="round"
     id="g20">
    <line
       stroke-width="1.2"
       x1="30.499998"
       y1="23.25"
       x2="7.4999981"
       y2="23.25"
       id="line12" />
    <line
       stroke-width="0.8"
       x1="27.499998"
       y1="20.25"
       x2="10.499998"
       y2="20.25"
       id="line14" />
    <line
       stroke-width="0.8"
       x1="27.499998"
       y1="11.75"
       x2="10.499998"
       y2="11.75"
       id="line16" />
    <line
       stroke-width="1.2"
       x1="29.499998"
       y1="9.25"
       x2="8.4999981"
       y2="9.25"
       id="line18" />
  </g>
  <!-- huszár: fej -->
  <g
     transform="translate(+2, -1) scale(0.75)"
     fill="#FFF"
     stroke="#000"
     stroke-width="2"
     stroke-linecap="round"
     stroke-linejoin="round"
     id="g24">
    <path
       d="m 28.666664,45 c -0.38,-2.91 5.55,-7.37 8,-9 3,-2 2.82,-4.34 5,-4 1.042,0.94 -1.41,3.04 0,3 1,0 -0.19,-1.23 1,-2 1,0 4.003,-1 4,4 0,2 -6,12 -6,12 0,0 -1.89,1.9 -2,3.5 0.73,0.994 0.5,2 0.5,3 -1,1 -3,-2.5 -3,-2.5 h -2 c 0,0 -0.78,1.992 -2.5,3 -1,0 -1,-3 -1,-3"
       id="path22" />
  </g>
  <!-- huszár: vonalak -->
  <g
     transform="translate(+2, -1) scale(0.75)"
     fill="#000"
     stroke="#000"
     stroke-width="2"
     stroke-linejoin="round"
     id="g30">
    <!-- orr -->
    <path
       d="m 43.166664,37.5 a -0.5,-0.5 0 1 1 1,0 -0.5,-0.5 0 1 1 -1,0 z"
       id="path26" />
    <!-- szem -->
    <path
       d="m 37.416664,48.8 a 0.50027791,1.5008337 30 1 1 1.5,-2.6 0.50027791,1.5008337 30 1 1 -1.5,2.6 z"
       id="path28" />
  </g>
</svg>
