<?xml version="1.0" encoding="UTF-8" standalone="no"?>
<svg
   xmlns:dc="http://purl.org/dc/elements/1.1/"
   xmlns:cc="http://creativecommons.org/ns#"
   xmlns:rdf="http://www.w3.org/1999/02/22-rdf-syntax-ns#"
   xmlns:svg="http://www.w3.org/2000/svg"
   xmlns="http://www.w3.org/2000/svg"
   xmlns:sodipodi="http://sodipodi.sourceforge.net/DTD/sodipodi-0.dtd"
   xmlns:inkscape="http://www.inkscape.org/namespaces/inkscape"
   width="45"
   height="45"
   version="1.1"
   id="svg4"
   sodipodi:docname="wP.svg">
  <metadata
     id="metadata10">
    <rdf:RDF>
      <cc:Work
         rdf:about="">
        <dc:format>image/svg+xml</dc:format>
        <dc:type
           rdf:resource="http://purl.org/dc/dcmitype/StillImage" />
      </cc:Work>
    </rdf:RDF>
  </metadata>
  <defs
     id="defs8" />
  <sodipodi:namedview
     pagecolor="#ffffff"
     bordercolor="#666666"
     borderopacity="1"
     objecttolerance="10"
     gridtolerance="10"
     guidetolerance="10"
     inkscape:pageopacity="0"
     inkscape:pageshadow="2"
     inkscape:window-width="640"
     inkscape:window-height="480"
     id="namedview6" />
  <path
     d="m 22.5,39.5 c 2.21,0 4,-1.79 4,-4 0,-0.89 -0.29,-1.71 -0.78,-2.38 C 27.67,32 29,29.91 29,27.5 29,25.47 28.06,23.66 26.59,22.47 29.59,21.41 34,16.92 34,9 H 11 c 0,7.92 4.41,12.41 7.41,13.47 -1.47,1.19 -2.41,3 -2.41,5.03 0,2.41 1.33,4.5 3.28,5.62 -0.49,0.67 -0.78,1.49 -0.78,2.38 0,2.21 1.79,4 4,4 z"
     fill="#ffffff"
     stroke="#000000"
     stroke-width="1.5"
     stroke-linecap="round"
     id="path2" />
</svg>
