<?xml version="1.0" encoding="UTF-8" standalone="no"?>
<svg
   xmlns:dc="http://purl.org/dc/elements/1.1/"
   xmlns:cc="http://creativecommons.org/ns#"
   xmlns:rdf="http://www.w3.org/1999/02/22-rdf-syntax-ns#"
   xmlns:svg="http://www.w3.org/2000/svg"
   xmlns="http://www.w3.org/2000/svg"
   xmlns:sodipodi="http://sodipodi.sourceforge.net/DTD/sodipodi-0.dtd"
   xmlns:inkscape="http://www.inkscape.org/namespaces/inkscape"
   width="45"
   height="45"
   version="1.1"
   id="svg12"
   sodipodi:docname="wQ.svg">
  <metadata
     id="metadata18">
    <rdf:RDF>
      <cc:Work
         rdf:about="">
        <dc:format>image/svg+xml</dc:format>
        <dc:type
           rdf:resource="http://purl.org/dc/dcmitype/StillImage" />
      </cc:Work>
    </rdf:RDF>
  </metadata>
  <defs
     id="defs16" />
  <sodipodi:namedview
     pagecolor="#ffffff"
     bordercolor="#666666"
     borderopacity="1"
     objecttolerance="10"
     gridtolerance="10"
     guidetolerance="10"
     inkscape:pageopacity="0"
     inkscape:pageshadow="2"
     inkscape:window-width="640"
     inkscape:window-height="480"
     id="namedview14" />
  <g
     fill="#fff"
     fill-rule="evenodd"
     stroke="#000"
     stroke-width="1.5"
     stroke-linecap="round"
     stroke-linejoin="round"
     id="g10">
    <path
       d="m 37,32.754463 a -2,-2 0 1 1 4,0 -2,-2 0 1 1 -4,0 z m -16.5,4.5 a -2,-2 0 1 1 4,0 -2,-2 0 1 1 -4,0 z m -16.5,-4.5 a -2,-2 0 1 1 4,0 -2,-2 0 1 1 -4,0 z m 25,3.5 a -2,-2 0 1 1 4,0 -2,-2 0 1 1 -4,0 z m -17,-0.5 a -2,-2 0 1 1 4,0 -2,-2 0 1 1 -4,0 z"
       id="path2" />
    <path
       d="m 36,18.754463 c -8.5,1.5 -21,1.5 -27,0 l -2,12 7,-11 v 14 l 5.5,-13.5 3,15 3,-15 5.5,14 v -14.5 l 7,11 z"
       stroke-linecap="butt"
       id="path4" />
    <path
       d="m 36,18.754463 c 0,-2 -1.5,-2 -2.5,-4 -1,-1.5 -1,-1 -0.5,-3.5 1.5,-1 1.5,-2.5 1.5,-2.5 1.5,-1.5 -0.5,-2.5 -0.5,-2.5 -6.5,-1 -16.5,-1 -23,0 0,0 -1.5,1 0,2.5 0,0 -0.5,1.5 1,2.5 0.5,2.5 0.5,2 -0.5,3.5 -1,2 -2.5,2 -2.5,4 8.5,1.5 18.5,1.5 27,0 z"
       stroke-linecap="butt"
       id="path6" />
    <path
       d="m 33.5,14.754463 c -3.5,1 -18.5,1 -22,0 m 21.5,-3.5 c -6,1 -15,1 -21,0"
       fill="none"
       id="path8" />
  </g>
</svg>
