<svg width="45" height="45" version="1.1" xmlns="http://www.w3.org/2000/svg">
 <g fill="none" fill-rule="evenodd" stroke="#000" stroke-linecap="round" stroke-linejoin="round" stroke-width="1.5">
  <g stroke-linecap="butt">
   <path d="m9 36c3.39-0.97 10.11 0.43 13.5-2 3.39 2.43 10.11 1.03 13.5 2 0 0 1.65 0.54 3 2-0.68 0.97-1.65 0.99-3 0.5-3.39-0.97-10.11 0.46-13.5-1-3.39 1.46-10.11 0.03-13.5 1-1.354 0.49-2.323 0.47-3-0.5 1.354-1.94 3-2 3-2z" fill="#535353"/>
   <path d="m15 32c2.5 2.5 12.5 2.5 15 0 0.5-1.5 0-2 0-2 0-2.5-2.5-4-2.5-4 5.5-1.5 6-11.5-5-15.5-11 4-10.5 14-5 15.5 0 0-2.5 1.5-2.5 4 0 0-0.5 0.5 0 2z" fill="#535353"/>
   <path d="m25 8c0 0.70201 0.33308 3.347-0.12547 3.0687-0.79883-0.48472-1.6667-0.56273-2.398-0.56885-0.82301-0.0069-1.6649 0.33925-2.3252 0.61428-0.40524 0.16879-0.15126-2.5553-0.15126-3.1142 0-3.3333 5-3.3333 5 0z" fill="#000"/>
  </g>
  <path d="m17.5 26h10m-12.5 4h15" stroke-linejoin="miter"/>
 </g>
 <path d="m19.771 16.133 5.4578 5.4578m0-5.4578-5.4578 5.4578m2.7289-7.5681v9.6784m-4.8392-4.8392h9.6784m-4.8756-4.0387a4.0387 4.0387 0 1 0 0.07277 0" fill="none" stroke="#000" stroke-linecap="round" stroke-width="1.2"/>
</svg>
