<svg width="45" height="45" version="1.1" xmlns="http://www.w3.org/2000/svg">
 <g fill="none" fill-rule="evenodd" stroke-linecap="round" stroke-linejoin="round" stroke-width="1.5">
  <path d="m22.5 19.198s4.5-7.5 3-10.5c0 0-1-2.5-3-2.5s-3 2.5-3 2.5c-1.5 3 3 10.5 3 10.5" fill="#535353" stroke="#000" stroke-linecap="butt" stroke-linejoin="miter"/>
  <path d="m11.5 37c5.5 3.5 15.5 3.5 21 0v-7s9-4.5 6-10.5c-4-6.5-13.5-4.257-16.5-4.257s-12.5-2.243-15.5 4.257c-3 6 5 10 5 10z" fill="#535353" stroke="#535353"/>
  <g stroke="#050505">
   <path d="m32 29.5s8.5-4 6.03-9.65c-3.88-5.85-13.03-3.5546-15.53-3.5546s-12.594-2.2954-15.503 3.5546c-2.497 5.65 4.853 9 4.853 9"/>
   <path d="m11.5 30c5.5-3 15.5-3 21 0m-21 3.5c5.5-3 15.5-3 21 0m-21 3.5c5.5-3 15.5-3 21 0"/>
  </g>
 </g>
</svg>
