<svg width="45" height="45" version="1.1" xmlns="http://www.w3.org/2000/svg">
 <g transform="translate(.22507)" fill="none" fill-rule="evenodd" stroke="#000" stroke-linecap="round" stroke-linejoin="round" stroke-width="1.5">
  <path d="m16.682 14.783c1.8703-1.9047 4.4517-3.5838 7.069-4.3474 15.503-4.523 18.569 4.4465 17.651 10.275-0.804 5.1048-11.109 12.925-7.5589 18.29l-16.053-1.52e-4c-1.1144-7.6863 7.4315-13.35 11.915-16.551 4.2331-4.6732-3.3125-8.0337-8.0757-3.9145z" fill="#535353"/>
  <g transform="matrix(.86603 .5 -.5 .86603 12.063 -3.2199)">
   <path d="m28.256 15.08c-0.48367 0.41827-8.7189 0.86222-8.6797 1.4275 0.22176 3.1939 0.74292 4.7018-1.4547 12.758-0.08301 0.3043-5.5528 0.0737-4.8286 0.06007l1.7774-0.03347c1.0158-4.4641 1.8346-8.7592 0.47489-11.186-3.0309 2.9716-5.1987 6.5859-6.071 9.0185-0.12163 0.33918-0.21809 0.65538-0.28819 0.94366-0.060408 0.24863 1.6217 0.53145 1.6011 0.73537-0.99861-0.23122-4.5546 0.22127-4.8628-0.41815-0.60573-1.2566 1.824-5.5681 1.9346-7.3248 0.033908-0.53855-0.7917-2.9087-0.95427-3.4748-1.3755-5.6889 6.1176-15.61 8.986-17.777 0.14284-0.10791-1.7022 9.8797-1.5732 9.7741 0.20006-0.1637 0.96699-0.78208 1.8753-1.5271 1.6142-1.324 8.2207-3.3411 8.3401-3.6237-2.2688 2.3021-4.9817 4.3575-5.5869 7.5838 4.8735-1.1575 6.8653 1.2316 9.31 3.0634z" fill="#535353"/>
   <path d="m10.828 15.264c1.0028-1.7458 1.8765-1.2413 0.866 0.5-1.0028 1.7458-1.8765 1.2413-0.866-0.5z" fill="#000"/>
  </g>
  <path d="m21.184 39.168c0.46658-3.6809 1.7864-6.4326 6.0707-9.7075 2.7213-2.0802 5.1515-6.0945 5.8792-8.5672 2.2983-7.8099-7.6285-5.0524-8.2431-4.1993" fill="none" stroke="#000" stroke-linecap="butt" stroke-linejoin="miter" stroke-width="1.5"/>
 </g>
</svg>
