<svg width="177.17" height="177.17" clip-rule="evenodd" fill-rule="evenodd" image-rendering="optimizeQuality" shape-rendering="geometricPrecision" version="1.1" viewBox="0 0 50 50" xmlns="http://www.w3.org/2000/svg">
 <path d="m5.5597 7.5215c1.255 3.6784 2.5814 7.3297 3.8722 10.998 0.21407 1.4092 1.6593 3.0971 1.109 4.3539-1.6352 1.4655-3.8663 1.7393-5.9673 1.5687 1.9136 1.223 3.93 2.3873 6.1057 3.0085-1.9893 1.4494-4.5744 1.713-6.9578 1.9816 1.1311 0.80389 3.5062 1.5665 5.2518 1.8394 2.0076-0.17747 4.0923 0.09137 5.7667 1.3179 4.4104 3.1962 6.8948 8.2222 9.307 12.955 0.2991 0.12568 0.63762 0.05155 0.95303 0.0711 0.31541-0.01956 0.65448 0.05457 0.95357-0.0711 2.4122-4.7333 4.8967-9.7592 9.307-12.955 1.6744-1.2266 3.7591-1.4954 5.7667-1.3179 1.7456-0.27284 4.1202-1.0355 5.2513-1.8394-2.3834-0.26858-4.9679-0.53219-6.9573-1.9816 2.1756-0.62119 4.1915-1.7855 6.1051-3.0085-2.101 0.17055-4.3315-0.10325-5.9667-1.5687-0.55025-1.2568 0.89494-2.9448 1.109-4.3539 1.2908-3.6679 2.6166-7.3192 3.8716-10.998-1.4248 0.65554-3.1813 2.0857-4.7244 3.0509-2.2214 1.4917-4.4329 2.9986-6.6585 4.484-2.7351 0.15357-5.2978-0.75129-8.0575-0.75129-2.7728 0-5.3223 0.90486-8.0575 0.75129-2.2256-1.4854-4.4365-2.9923-6.658-4.484-1.5431-0.96518-3.3001-2.3954-4.7249-3.0509z" fill="#535353" stroke="#000" stroke-width="1.6933"/>
 <path d="m21.397 40.821 3.657 4.4348 3.5586-4.3155z" stroke="#000" stroke-width=".33129"/>
 <path d="m14.187 21.39c4.6439 2.7999 7.002 6.0569 8.6652 9.4529 0 0 0.15104-5.5768-1.5755-7.4273-1.6767-1.7971-7.0897-2.0256-7.0897-2.0256z"/>
 <path d="m35.813 21.39c-4.6439 2.7999-7.002 6.0569-8.6652 9.4529 0 0-0.15104-5.5768 1.5755-7.4273 1.6767-1.7971 7.0897-2.0256 7.0897-2.0256z"/>
</svg>
