<svg width="45" height="45" version="1.1" xmlns="http://www.w3.org/2000/svg">
 <g transform="translate(-.56066)" fill="none" stroke="#000" stroke-width="1.5">
  <g fill-rule="evenodd" stroke-linecap="round" stroke-linejoin="round">
   <path d="m22 10c2.9885 0.28462 6.1339 0.46834 7.8258 2.4965l5.2674 6.3142 2.9068 20.189h-20.812l1.1272-7.0286 4.335-6.009c1.1817-1.638 0.83587-4.4423 0.35033-7.9625" fill="#535353" stroke="#000"/>
   <path d="m24 18-6.4532 8.4255c-2.9203 3.0758-3.6812 4.9384-4.2216 4.6802l-3.4136-2.0779-1.7903-2.4974 2.7776-6.6105 1.1011-5.9198 2-3.5 0.16964-3 1.9596-0.16759 0.37076 2.6676h2l1.6518-2.8661 1.6534 0.41401 0.19481 2.4521" fill="#535353" stroke="#000"/>
   <g fill="#000">
    <path d="m16.168 15.579c-1.7413 1.0104-2.2457 0.13676-0.49998-0.86601 1.7413-1.0104 2.2457-0.13676 0.49998 0.86601z"/>
    <path d="m11.779 25.683c0 0.66667-1 0.66667-1 0s1-0.66667 1 0z"/>
   </g>
  </g>
  <path d="m28.638 16.451c0.53033 0.44194 3.0936 5.0381 3.0936 5.0381l1.4142 12.551"/>
 </g>
</svg>
