<svg width="45" height="45" version="1.1" xmlns="http://www.w3.org/2000/svg">
 <g transform="matrix(.55709 0 0 .55709 41.264 -16.338)" fill="none" fill-rule="evenodd" stroke="#000" stroke-linecap="round" stroke-linejoin="round" stroke-width="1.5">
  <path d="m-33.333 51.091c-4.3391 0.02427-9.347 0.40123-12.599 3.2738-5.5736 4.923-9.3407 13.38-8.2341 20.734 1.54 10.234 9.1175 23.522 19.444 24.206 9.8489 0.65272 19.007-10.868 21.429-20.437 2.1322-8.4247-1.8891-18.245-8.2462-24.17-3.0157-2.8108-7.6711-3.6306-11.794-3.6075z" fill="#535353" stroke="#000" stroke-linecap="butt" stroke-linejoin="miter" stroke-width="2.6925"/>
  <path d="m-47.042 68.822c-2.8338 1.2218-2.5686 3.9997-1.7537 6.3836 0.58027 1.2438 1.6298 2.4881 2.9463 2.8761 7.4238 2.188 16.387 2.1807 23.43 0.63134 1.8605-0.40926 3.497-2.0511 4.2791-3.7881 0.77453-2.9357 0.66081-4.7924-2.0343-5.8926-8.3728-5.0023-19.126-4.7795-26.867-0.21045z" fill="#000" stroke="none"/>
  <path d="m-52.93 52.729-11.802-12.129s-0.89958-0.1278-1.4966 0.22923c-0.93918 0.56164-1.9395 1.4571-2.5794 2.6538-0.27231 0.50929-0.2147 1.3829-0.2147 1.3829l11.864 12.03-1.819 1.8842s-0.19764 0.8487 0.12401 1.3145c0.3099 0.44878 1.2153 0.52083 1.2153 0.52083l8.5317-8.5317s-0.02226-0.84518-0.32242-1.2401c-0.37383-0.49183-1.2401-0.22321-1.2401-0.22321z" fill="#1f1a17" stroke="none"/>
  <path d="m-55.453 58.172 2.6657 2.4202" fill="none" stroke="#1f1a17" stroke-linecap="butt" stroke-linejoin="miter" stroke-width="2.0413"/>
  <path d="m-51.911 54.454 2.0694 1.859" fill="none" stroke="#1f1a17" stroke-linecap="butt" stroke-linejoin="miter" stroke-width="2.0413"/>
  <path d="m-13.408 67.166s2.1823-1.8589 3.2894-2.1365c1.1576-0.29028 2.6022-0.47893 3.9683 0.54564 2.089 1.5668 1.7897 2.3462 3.125 3.4226 0.91423 0.73698 2.9762 1.8849 2.9762 1.8849 0.12599 1.2744-6.1864 1.4064-6.498 0.44643 0.53889 0.35004 0.85226 1.9327 1.0913 1.8849-0.096451 0-0.77143 3.869-0.64484 4.0675 0.11931 0.18701 1.1905 3.7202 1.1905 3.7202-1.4926-0.36648-2.9638-0.56203-4.7123-2.9762-0.24875-3.5065-0.79011-6.0182-2.4802-6.1012z" fill="#000" stroke="none"/>
  <g transform="matrix(-1 0 0 1 -67.364 0)">
   <path d="m-52.93 52.729-11.802-12.129s-0.89958-0.1278-1.4966 0.22923c-0.93918 0.56164-1.9395 1.4571-2.5794 2.6538-0.27231 0.50929-0.2147 1.3829-0.2147 1.3829l11.864 12.03-1.819 1.8842s-0.19764 0.8487 0.12401 1.3145c0.3099 0.44878 1.2153 0.52083 1.2153 0.52083l8.5317-8.5317s-0.02226-0.84518-0.32242-1.2401c-0.37383-0.49183-1.2401-0.22321-1.2401-0.22321z" fill="#1f1a17" stroke="none"/>
   <g fill="none" stroke="#1f1a17" stroke-linecap="butt" stroke-linejoin="miter" stroke-width="2.0413">
    <path d="m-55.453 58.172 2.6657 2.4202"/>
    <path d="m-51.911 54.454 2.0694 1.859"/>
   </g>
  </g>
 </g>
</svg>
