<svg width="45" height="45" version="1.1" xmlns="http://www.w3.org/2000/svg">
 <g transform="matrix(.85387 0 0 .85387 35.688 3.615)" stroke-width=".99989">
  <g>
   <path d="m-15.501 4.6463c-6.3917 3.5637-12.514 7.9764-16.204 12.255 5.4331 2.8595 10.923 6.4552 16.488 8.2569 5.9129-2.2263 10.724-6.2858 15.056-9.4347-4.1872-4.0451-9.1858-8.0277-15.34-11.077z" fill="#535353" stroke="#000" stroke-linejoin="round" stroke-width="1.7567"/>
   <path d="m-20.711 19.834 5.4046-5.8974 5.4203 5.674-5.4128 2.9333z" fill="#222"/>
   <path d="m-26.693 20.125s0.26089 5.3142-1.4242 10.112c-0.71725 2.0423-3.5162 5.4594-3.5162 5.4594s3.2371 1.7686 4.6266 2.961c0.77948 0.66894 1.1439 1.8037 2.0357 2.3133 1.2815 0.73234 4.349 1.7581 4.349 0.83279 0-0.92532 0.42781-18.573 0.42781-18.573z" fill="#535353" stroke="#000" stroke-linejoin="round" stroke-width="1.7567"/>
   <path d="m-4.0252 18.825s-0.36009 6.4179 1.325 11.216c0.71725 2.0423 3.5162 5.4594 3.5162 5.4594s-3.2371 1.7686-4.6266 2.961c-0.77948 0.66894-1.1439 1.8037-2.0357 2.3133-1.2815 0.73234-4.349 1.7581-4.349 0.83279 0-0.92532-0.01646-18.777-0.01646-18.777z" fill="#535353" stroke="#000" stroke-linejoin="round" stroke-width="1.7567"/>
  </g>
  <path d="m-20.903 23.136 6.1327 1.724 4.4597-1.5368-0.01523 15.333s-3.2791 1.4317-5.0218 1.4558c-1.7971 0.0248-5.2181-1.3577-5.2181-1.3577z"/>
 </g>
</svg>
