<svg width="45" height="45" version="1.1" xmlns="http://www.w3.org/2000/svg">
 <g stroke="#000" stroke-linecap="round" stroke-width="1.5">
  <g fill="#535353" stroke-linejoin="round">
   <g transform="translate(11.801 -17.313)">
    <path d="m1.1419 52.035h18.788v4.2787h-18.788z"/>
    <path d="m-1.8585 49.073c1.1959 0.76322 3.2033-0.34136 3.9999-1.1049h17.116c1.1468 0.95406 3.1043 1.7825 4.0001 1.1051l-3.0003 2.9619h-19.116z"/>
   </g>
   <g transform="translate(10.964 -27.492)">
    <path d="m3.983 53.739h14.779v4.2787h-14.779z"/>
    <path d="m0.98255 50.778c1.1959 0.76322 3.2033-0.34136 3.9999-1.1049h13.107c1.1468 0.95406 3.1043 1.7825 4.0001 1.1051l-3.0003 2.9619h-15.107z"/>
   </g>
   <g transform="translate(10.964 -35.885)">
    <path d="m6.3044 53.739h10.136v4.2787h-10.136z"/>
    <path d="m3.304 50.778c1.1959 0.76322 3.2033-0.34136 3.9999-1.1049l4.2319-3.5045 4.2322 3.5045c1.1468 0.95406 3.1043 1.7825 4.0001 1.1051l-3.0003 2.9619h-10.464z"/>
   </g>
  </g>
  <path d="m22.505 10.283-0.0097-3.3213" fill="none"/>
 </g>
</svg>
