<?xml version="1.0" encoding="UTF-8" standalone="no"?>
<!-- Created with Inkscape (http://www.inkscape.org/) -->

<svg
   width="52.124001"
   height="60"
   viewBox="0 0 52.124001 60.000001"
   version="1.1"
   id="svg1"
   sodipodi:docname="0_WHITE.svg"
   inkscape:version="1.2.1 (9c6d41e410, 2022-07-14)"
   xmlns:inkscape="http://www.inkscape.org/namespaces/inkscape"
   xmlns:sodipodi="http://sodipodi.sourceforge.net/DTD/sodipodi-0.dtd"
   xmlns:xlink="http://www.w3.org/1999/xlink"
   xmlns="http://www.w3.org/2000/svg"
   xmlns:svg="http://www.w3.org/2000/svg">
  <sodipodi:namedview
     id="namedview2417"
     pagecolor="#ffffff"
     bordercolor="#000000"
     borderopacity="0.25"
     inkscape:showpageshadow="2"
     inkscape:pageopacity="0.0"
     inkscape:pagecheckerboard="0"
     inkscape:deskcolor="#d1d1d1"
     inkscape:document-units="px"
     showgrid="false"
     inkscape:zoom="15.363472"
     inkscape:cx="37.035899"
     inkscape:cy="25.254708"
     inkscape:window-width="1920"
     inkscape:window-height="1051"
     inkscape:window-x="0"
     inkscape:window-y="0"
     inkscape:window-maximized="1"
     inkscape:current-layer="svg1" />
  <defs
     id="defs1">
    <linearGradient
       id="linearGradient22">
      <stop
         style="stop-color:#ffdba6;stop-opacity:1;"
         offset="0"
         id="stop21" />
      <stop
         style="stop-color:#f2c478;stop-opacity:1;"
         offset="1"
         id="stop22" />
    </linearGradient>
    <clipPath
       clipPathUnits="userSpaceOnUse"
       id="clipPath1306-99">
      <path
         d="M 0,2834.646 H 2834.646 V 0 H 0 Z"
         transform="translate(-603.84452,-1561.3219)"
         id="path1306-0" />
    </clipPath>
    <linearGradient
       xlink:href="#linearGradient22"
       id="linearGradient1"
       gradientUnits="userSpaceOnUse"
       gradientTransform="translate(-226.77337,-3614.1768)"
       x1="246.55066"
       y1="3626.0833"
       x2="246.55066"
       y2="3541.0439" />
  </defs>
  <g
     id="layer1"
     transform="matrix(1.6241682,0,0,1.6241682,1.6148048,7.0509092)">
    <g
       id="path157"
       clip-path="url(#clipPath1306-99)"
       transform="matrix(0.35277776,0,0,-0.35277776,23.02301,4.2003262)">
      <path
         style="color:#000000;fill:url(#linearGradient1);stroke-miterlimit:10;-inkscape-stroke:none"
         d="m 0,0 -22.28,7.578 c -0.3,0.102 -0.625,0.102 -0.924,0 L -45.484,0 c -0.502,-0.171 -0.868,-0.604 -0.949,-1.125 l -10.308,-66.12 c -0.134,-0.86 0.535,-1.636 1.411,-1.636 h 32.588 32.588 c 0.875,0 1.545,0.776 1.41,1.636 L 0.948,-1.125 C 0.867,-0.604 0.502,-0.171 0,0"
         id="path156" />
      <path
         style="color:#000000;fill:#4d3608;stroke-miterlimit:10;-inkscape-stroke:none"
         d="m -55.330078,-69.730469 c -1.378211,0 -2.464222,1.254866 -2.251953,2.617188 l 10.308594,66.11914037 c 0.129751,0.83457398 0.718286,1.52722488 1.515625,1.79882813 l 22.279296,7.578125 c 0.47722,0.1627972 0.995439,0.1622539 1.472657,0 L 0.2734375,0.8046875 C 1.071102,0.5329731 1.6594743,-0.16061651 1.7890625,-0.99414063 L 12.095703,-67.113281 c 0.214001,-1.363263 -0.872215,-2.617188 -2.2499999,-2.617188 H -22.742187 Z m 0,1.699219 h 32.587891 32.5878901 c 0.3722139,0 0.6263119,0.297562 0.5703129,0.654297 L 0.10742187,-1.2558594 c -0.03241163,0.2084749 -0.17452486,0.38088664 -0.38085937,0.4511719 l -22.2812495,7.578125 c -0.122782,0.041746 -0.25422,0.041203 -0.375,0 l -22.279297,-7.578125 c -0.206661,-0.0703964 -0.350564,-0.2437469 -0.382813,-0.4511719 L -55.900391,-67.376953 c -0.05459,-0.356865 0.197159,-0.654297 0.570313,-0.654297 z"
         id="path158" />
    </g>
    <path
       style="stroke-width:0.42316"
       d="M 16.658824,13.846774 15.071968,7.3803395 13.366099,13.846774 H 12.374315 L 10.628774,6.1505268 h 0.952114 l 1.348826,6.3474212 1.666198,-6.3474212 h 0.991785 l 1.586855,6.3474212 1.428169,-6.3474212 h 0.872771 L 17.69028,13.846774 Z"
       id="text157"
       aria-label="W" />
    <path
       style="color:#000000;fill:#000000;stroke-miterlimit:10;-inkscape-stroke:none"
       d="M -0.63867187,0 V 25.511719 H 0.63867187 V 0 Z"
       id="path159"
       transform="matrix(0.35277776,0,0,-0.35277776,15.000102,25.499972)" />
    <path
       style="color:#000000;fill:#000000;stroke-miterlimit:10;-inkscape-stroke:none"
       d="M -25.511719,-0.63867187 V 0.63867187 H 0 v -1.27734374 z"
       id="path281"
       transform="matrix(0.35277776,0,0,-0.35277776,19.500109,20.999965)" />
    <path
       style="color:#000000;fill:#000000;stroke-miterlimit:10;-inkscape-stroke:none"
       d="M -0.45117188,-0.45117188 -18.490234,17.587891 -17.589844,18.490234 0.45117188,0.45117188 Z"
       id="path283"
       transform="matrix(0.35277776,0,0,-0.35277776,18.182061,24.18195)" />
    <path
       style="color:#000000;fill:#000000;stroke-miterlimit:10;-inkscape-stroke:none"
       d="m -17.589844,-18.490234 -0.90039,0.902343 18.03906212,18.03906288 0.90234376,-0.90234376 z"
       id="path287"
       transform="matrix(0.35277776,0,0,-0.35277776,18.182061,17.818007)" />
  </g>
</svg>
