<?xml version="1.0" encoding="UTF-8" standalone="no"?>
<!-- Created with Inkscape (http://www.inkscape.org/) -->

<svg
   width="52.124001"
   height="60"
   viewBox="0 0 52.124001 60.000001"
   version="1.1"
   id="svg1"
   sodipodi:docname="1_DOLPHINPROMOTED.svg"
   inkscape:version="1.2.1 (9c6d41e410, 2022-07-14)"
   xmlns:inkscape="http://www.inkscape.org/namespaces/inkscape"
   xmlns:sodipodi="http://sodipodi.sourceforge.net/DTD/sodipodi-0.dtd"
   xmlns:xlink="http://www.w3.org/1999/xlink"
   xmlns="http://www.w3.org/2000/svg"
   xmlns:svg="http://www.w3.org/2000/svg">
  <sodipodi:namedview
     id="namedview5830"
     pagecolor="#ffffff"
     bordercolor="#000000"
     borderopacity="0.25"
     inkscape:showpageshadow="2"
     inkscape:pageopacity="0.0"
     inkscape:pagecheckerboard="0"
     inkscape:deskcolor="#d1d1d1"
     inkscape:document-units="px"
     showgrid="false"
     inkscape:zoom="7.6817361"
     inkscape:cx="56.758003"
     inkscape:cy="35.929378"
     inkscape:window-width="1920"
     inkscape:window-height="1051"
     inkscape:window-x="0"
     inkscape:window-y="0"
     inkscape:window-maximized="1"
     inkscape:current-layer="svg1" />
  <defs
     id="defs1">
    <linearGradient
       id="linearGradient22">
      <stop
         style="stop-color:#ffdba6;stop-opacity:1;"
         offset="0"
         id="stop21" />
      <stop
         style="stop-color:#f2c478;stop-opacity:1;"
         offset="1"
         id="stop22" />
    </linearGradient>
    <clipPath
       clipPathUnits="userSpaceOnUse"
       id="clipPath1278-5-6">
      <path
         d="M 0,2834.646 H 2834.646 V 0 H 0 Z"
         transform="translate(-101.8765,-1555.7911)"
         id="path1278-85-0" />
    </clipPath>
    <linearGradient
       xlink:href="#linearGradient22"
       id="linearGradient18"
       gradientUnits="userSpaceOnUse"
       gradientTransform="translate(-2154.3322,-3614.1768)"
       x1="246.55066"
       y1="3626.0833"
       x2="246.55066"
       y2="3541.0439" />
  </defs>
  <g
     id="layer1"
     transform="matrix(1.8790257,0,0,1.8790257,-1279.8608,1.6582954)">
    <g
       id="path61"
       clip-path="url(#clipPath1278-5-6)"
       transform="matrix(-0.35277776,0,0,0.35277776,689.06025,23.84846)">
      <path
         style="color:#000000;fill:url(#linearGradient18);stroke-miterlimit:10;-inkscape-stroke:none"
         d="m 0,0 -16.217,5.989 c -0.397,0.146 -0.844,0.146 -1.241,0 L -33.674,0 c -0.531,-0.196 -0.903,-0.627 -0.975,-1.131 l -7.687,-53.534 c -0.122,-0.848 0.627,-1.598 1.595,-1.598 h 23.904 23.903 c 0.969,0 1.717,0.75 1.596,1.598 L 0.975,-1.131 C 0.902,-0.627 0.531,-0.196 0,0"
         id="path118" />
      <path
         style="color:#000000;fill:#4d3608;stroke-miterlimit:10;-inkscape-stroke:none"
         d="m -40.740234,-57.113281 c -1.406573,0 -2.637944,1.165724 -2.4375,2.568359 l 7.6875,53.5351564 c 0.120395,0.84276505 0.731595,1.5150809 1.521484,1.8066406 l 16.216797,5.9902344 c 0.591076,0.2173731 1.237049,0.2173731 1.828125,0 L 0.29492188,0.796875 C 1.085136,0.50519519 1.6946732,-0.16930742 1.8164062,-1.0097656 L 9.5039063,-54.544922 c 0.2001345,-1.402596 -1.0297011,-2.568359 -2.4375001,-2.568359 H -16.837891 Z m 0,1.701172 h 23.902343 23.9042972 c 0.5301992,0 0.7957715,0.333551 0.7539063,0.626953 l -7.6875,53.5332029 c -0.0242668,0.1675408 -0.1559496,0.3547583 -0.42773438,0.4550781 L -16.511719,5.1914062 c -0.202585,0.07396 -0.450026,0.074404 -0.652343,0 L -33.378906,-0.796875 c -0.27211,-0.1004399 -0.40413,-0.2898442 -0.427735,-0.4550781 l -7.6875,-53.5332029 c -0.04208,-0.292456 0.225161,-0.626953 0.753907,-0.626953 z"
         id="path119" />
    </g>
    <path
       style="color:#000000;fill:#ff0000;stroke-miterlimit:10;-inkscape-stroke:none"
       d="M -0.63867187,1.4160156 V 8.5039063 H 0.63867187 V 1.4160156 Z"
       id="path62"
       transform="matrix(-0.35277776,0,0,0.35277776,695.00004,9.5002117)" />
    <path
       style="fill:#ff0000;stroke-width:0.35424"
       d="m -698.47472,-16.253624 h -1.87737 v -6.389663 h 1.77856 q 1.51508,0 2.14087,0.526983 1.02103,0.82341 1.02103,2.634912 0,1.811503 -1.05397,2.667849 -0.65872,0.559919 -2.00912,0.559919 z m -0.0659,-5.730935 h -0.95515 v 5.039271 h 0.95515 q 1.18571,0 1.71269,-0.592856 0.52699,-0.526982 0.52699,-1.877375 0,-1.515075 -0.62579,-2.140866 -0.42818,-0.428174 -1.61389,-0.428174 z"
       id="text62"
       transform="scale(-0.99587063,-1.0041465)"
       aria-label="D" />
    <path
       style="color:#000000;fill:#ff0000;stroke-miterlimit:10;-inkscape-stroke:none"
       d="m -3.8066406,-4.484375 v 1.2753906 h 3.16796873 V 0 h 1.27734374 v -4.484375 z"
       id="path63"
       transform="matrix(-0.35277776,0,0,0.35277776,691.67632,7.9985417)" />
    <path
       style="color:#000000;fill:#ff0000;stroke-miterlimit:10;-inkscape-stroke:none"
       d="M -4.6582031,-0.84960938 V 3.8476563 h 1.7011718 V 0.84960938 H 0 v -1.69921876 z"
       id="path64"
       transform="matrix(-0.35277776,0,0,0.35277776,696.98063,6.6415467)" />
    <path
       style="color:#000000;fill:#ff0000;stroke-miterlimit:10;-inkscape-stroke:none"
       d="M 691.83594,6.4824219 691.51562,6.7988281 695,10.318359 698.48437,6.8007812 698.16406,6.4824219 695,9.6796875 Z"
       id="path65" />
  </g>
</svg>
