<?xml version="1.0" encoding="UTF-8" standalone="no"?>
<!-- Generator: Adobe Illustrator 13.0.0, SVG Export Plug-In . SVG Version: 6.00 Build 14948)  -->

<svg
   version="1.1"
   id="Layer_1"
   x="0px"
   y="0px"
   width="45px"
   height="45px"
   viewBox="0 0 45 45"
   enable-background="new 0 0 45 45"
   xml:space="preserve"
   sodipodi:docname="Chess_zll45.svg"
   inkscape:version="1.2.1 (9c6d41e410, 2022-07-14)"
   xmlns:inkscape="http://www.inkscape.org/namespaces/inkscape"
   xmlns:sodipodi="http://sodipodi.sourceforge.net/DTD/sodipodi-0.dtd"
   xmlns="http://www.w3.org/2000/svg"
   xmlns:svg="http://www.w3.org/2000/svg"><defs
   id="defs22" /><sodipodi:namedview
   id="namedview20"
   pagecolor="#ffffff"
   bordercolor="#000000"
   borderopacity="0.25"
   inkscape:showpageshadow="2"
   inkscape:pageopacity="0.0"
   inkscape:pagecheckerboard="0"
   inkscape:deskcolor="#d1d1d1"
   showgrid="false"
   inkscape:zoom="18.377778"
   inkscape:cx="22.472793"
   inkscape:cy="22.472793"
   inkscape:window-width="1920"
   inkscape:window-height="1007"
   inkscape:window-x="0"
   inkscape:window-y="0"
   inkscape:window-maximized="1"
   inkscape:current-layer="Layer_2" />
<g
   id="Layer_2">
	
	
	
<g
   id="g312"
   transform="matrix(1.0352196,0,0,1.0352196,-0.67802628,-0.17021647)"><g
     id="g10">
		<g
   id="g6">
			<path
   fill="#ffffff"
   stroke="#000000"
   d="m 22.527,4.833 c 0,3.024 -5.041,5.545 -7.562,7.057 -2.521,1.512 -3.529,3.276 -3.529,5.545 0,2.269 0,14.114 0,16.383 0,2.269 -5.041,4.285 -5.041,4.285 h 16.131"
   id="path4" />
		</g>
		<path
   fill="#ffffff"
   stroke="#000000"
   d="m 22.447,4.833 c 0,3.024 4.98,5.545 7.47,7.057 2.49,1.512 3.485,3.276 3.485,5.545 0,2.269 0,14.114 0,16.383 0,2.269 4.98,4.285 4.98,4.285 H 22.447"
   id="path8" />
	</g><g
     id="g16">
		<line
   fill="none"
   stroke="#000000"
   stroke-width="2"
   x1="19.056"
   y1="18.333"
   x2="25.723"
   y2="18.333"
   id="line12" />
		<line
   fill="none"
   stroke="#000000"
   stroke-width="2"
   x1="22.306"
   y1="18.333"
   x2="22.306"
   y2="30.584"
   id="line14" />
	</g></g></g>
</svg>
