<?xml version="1.0" encoding="UTF-8" standalone="no"?>
<svg
   version="1.1"
   viewBox="0 0 1100 1000"
   id="svg32"
   sodipodi:docname="11x10brown.svg"
   width="1100"
   height="1000"
   inkscape:version="1.2.1 (9c6d41e410, 2022-07-14)"
   xmlns:inkscape="http://www.inkscape.org/namespaces/inkscape"
   xmlns:sodipodi="http://sodipodi.sourceforge.net/DTD/sodipodi-0.dtd"
   xmlns:xlink="http://www.w3.org/1999/xlink"
   xmlns="http://www.w3.org/2000/svg"
   xmlns:svg="http://www.w3.org/2000/svg">
  <defs
     id="defs36" />
  <sodipodi:namedview
     id="namedview34"
     pagecolor="#ffffff"
     bordercolor="#000000"
     borderopacity="0.25"
     inkscape:showpageshadow="2"
     inkscape:pageopacity="0.0"
     inkscape:pagecheckerboard="0"
     inkscape:deskcolor="#d1d1d1"
     showgrid="false"
     inkscape:zoom="0.4355"
     inkscape:cx="493.68542"
     inkscape:cy="760.04592"
     inkscape:window-width="1920"
     inkscape:window-height="1051"
     inkscape:window-x="0"
     inkscape:window-y="0"
     inkscape:window-maximized="1"
     inkscape:current-layer="svg32" />
  <rect
     width="1100"
     height="1000"
     id="rect2"
     x="0"
     y="0"
     style="fill:#f0d9b5;stroke-width:1.04881" />
  <rect
     width="1000"
     height="1000"
     id="rect5"
     x="0"
     y="0"
     style="fill:none" />
  <g
     id="che"
     style="fill:#b58863">
    <rect
       x="100"
       width="100"
       height="100"
       id="rect8"
       y="0" />
    <rect
       x="300"
       width="100"
       height="100"
       id="rect10"
       y="0" />
    <rect
       x="500"
       width="100"
       height="100"
       id="rect12"
       y="0" />
    <rect
       x="700"
       width="100"
       height="100"
       id="rect14"
       y="0" />
    <rect
       x="900"
       width="100"
       height="100"
       id="rect16"
       y="0" />
  </g>
  <use
     transform="translate(-100,100)"
     xlink:href="#che"
     id="use19"
     style="fill:#b58863" />
  <g
     id="use22"
     style="fill:#b58863"
     transform="translate(0,200)">
    <g
       id="g497">
      <rect
         x="100"
         width="100"
         height="100"
         id="rect487"
         y="0" />
      <rect
         x="300"
         width="100"
         height="100"
         id="rect489"
         y="0" />
      <rect
         x="500"
         width="100"
         height="100"
         id="rect491"
         y="0" />
      <rect
         x="700"
         width="100"
         height="100"
         id="rect493"
         y="0" />
      <rect
         x="900"
         width="100"
         height="100"
         id="rect495"
         y="0" />
    </g>
    <use
       transform="translate(-100,100)"
       xlink:href="#che"
       id="use499" />
  </g>
  <g
     id="g436"
     transform="translate(0,400)"
     style="fill:#b58863">
    <g
       id="g432">
      <rect
         x="100"
         width="100"
         height="100"
         id="rect422"
         y="0" />
      <rect
         x="300"
         width="100"
         height="100"
         id="rect424"
         y="0" />
      <rect
         x="500"
         width="100"
         height="100"
         id="rect426"
         y="0" />
      <rect
         x="700"
         width="100"
         height="100"
         id="rect428"
         y="0" />
      <rect
         x="900"
         width="100"
         height="100"
         id="rect430"
         y="0" />
    </g>
    <use
       transform="translate(-100,100)"
       xlink:href="#che"
       id="use434" />
  </g>
  <g
     id="use438"
     style="fill:#b58863"
     transform="translate(0,600)">
    <g
       id="g481">
      <rect
         x="100"
         width="100"
         height="100"
         id="rect471"
         y="0" />
      <rect
         x="300"
         width="100"
         height="100"
         id="rect473"
         y="0" />
      <rect
         x="500"
         width="100"
         height="100"
         id="rect475"
         y="0" />
      <rect
         x="700"
         width="100"
         height="100"
         id="rect477"
         y="0" />
      <rect
         x="900"
         width="100"
         height="100"
         id="rect479"
         y="0" />
    </g>
    <use
       transform="translate(-100,100)"
       xlink:href="#che"
       id="use483" />
  </g>
  <g
     id="g379"
     transform="translate(0,600)"
     style="fill:#b58863">
    <g
       id="g375">
      <rect
         x="100"
         width="100"
         height="100"
         id="rect365"
         y="0" />
      <rect
         x="300"
         width="100"
         height="100"
         id="rect367"
         y="0" />
      <rect
         x="500"
         width="100"
         height="100"
         id="rect369"
         y="0" />
      <rect
         x="700"
         width="100"
         height="100"
         id="rect371"
         y="0" />
      <rect
         x="900"
         width="100"
         height="100"
         id="rect373"
         y="0" />
    </g>
    <use
       transform="translate(-100,100)"
       xlink:href="#che"
       id="use377" />
  </g>
  <g
     id="use381"
     style="fill:#b58863"
     transform="translate(0,800)">
    <g
       id="g529">
      <rect
         x="100"
         width="100"
         height="100"
         id="rect519"
         y="0" />
      <rect
         x="300"
         width="100"
         height="100"
         id="rect521"
         y="0" />
      <rect
         x="500"
         width="100"
         height="100"
         id="rect523"
         y="0" />
      <rect
         x="700"
         width="100"
         height="100"
         id="rect525"
         y="0" />
      <rect
         x="900"
         width="100"
         height="100"
         id="rect527"
         y="0" />
    </g>
    <use
       transform="translate(-100,100)"
       xlink:href="#che"
       id="use531" />
  </g>
  <use
     transform="rotate(90,550,550)"
     xlink:href="#che"
     id="use414"
     style="fill:#b58863" />
</svg>
