<?xml version="1.0" encoding="UTF-8" standalone="no"?>
<svg
   version="1.1"
   viewBox="0 0 855.59998 1200"
   id="svg17"
   sodipodi:docname="7x9shogi.svg"
   width="855.59998"
   height="1200"
   inkscape:version="1.2.1 (9c6d41e410, 2022-07-14)"
   xmlns:inkscape="http://www.inkscape.org/namespaces/inkscape"
   xmlns:sodipodi="http://sodipodi.sourceforge.net/DTD/sodipodi-0.dtd"
   xmlns="http://www.w3.org/2000/svg"
   xmlns:svg="http://www.w3.org/2000/svg">
  <sodipodi:namedview
     id="namedview19"
     pagecolor="#ffffff"
     bordercolor="#000000"
     borderopacity="0.25"
     inkscape:showpageshadow="2"
     inkscape:pageopacity="0.0"
     inkscape:pagecheckerboard="0"
     inkscape:deskcolor="#d1d1d1"
     showgrid="false"
     inkscape:zoom="0.24365721"
     inkscape:cx="931.63672"
     inkscape:cy="529.43232"
     inkscape:window-width="1920"
     inkscape:window-height="1051"
     inkscape:window-x="0"
     inkscape:window-y="0"
     inkscape:window-maximized="1"
     inkscape:current-layer="svg17" />
  <defs
     id="defs5">
    <pattern
       id="grid"
       width="52"
       height="60"
       patternUnits="userSpaceOnUse">
      <rect
         width="52"
         height="60"
         style="fill:#FDD775;stroke-width:2;stroke:black"
         id="rect2" />
    </pattern>
  </defs>
  <rect
     style="fill:#fdd775;fill-opacity:1;stroke:#ffeeaa;stroke-width:1.59757;stroke-linecap:square;stroke-linejoin:miter;stroke-miterlimit:4;stroke-dasharray:none;stroke-opacity:1;paint-order:normal"
     id="rect5591-8"
     width="854.80121"
     height="1198.4023"
     x="0.79878497"
     y="0.79876709" />
  <ellipse
     id="circle849"
     style="stroke-width:2.27832"
     cy="399.83932"
     cx="245.28438"
     inkscape:export-xdpi="96"
     inkscape:export-ydpi="96"
     rx="8.0566673"
     ry="8.7890177" />
  <ellipse
     id="circle849-3"
     style="stroke-width:2.27832"
     cy="799.60199"
     cx="245.0975"
     inkscape:export-xdpi="96"
     inkscape:export-ydpi="96"
     rx="8.0566673"
     ry="8.7890177" />
  <ellipse
     id="circle849-6"
     style="stroke-width:2.27832"
     cy="799.60199"
     cx="611.22803"
     inkscape:export-xdpi="96"
     inkscape:export-ydpi="96"
     rx="8.0566673"
     ry="8.7890177" />
  <path
     d="M 1.14044,1.194209 V 1198.8058 M 123.1204,1.194209 V 1198.8058 M 245.1006,1.194209 V 1198.8058 M 367.0803,1.194209 V 1198.8058 M 489.0603,1.194209 c 0,427.316551 0.2621,799.074301 0,1197.611591 M 611.0401,1.194209 V 1198.8058 M 733.0203,1.194209 V 1198.8058 M 855.0002,1.194209 V 1198.8058 M 1.14044,1.194209 855.59998,0 M 1.14044,134.26231 l 854.45954,0 M 1.14044,267.33015 l 853.85976,0 M 1.14044,400.39826 c 371.64836,-1.24588 488.60086,-0.14824 853.85976,0 M 1.14044,533.46613 l 854.45954,0 M 1.14044,666.53385 l 854.45954,0 M 1.14044,799.60201 l 853.85976,0 m -853.85976,133.0678 854.45954,0 M 1.14044,1065.7378 l 854.45954,0 M 1.14044,1198.8058 H 855.0002"
     style="fill:none;fill-opacity:1;stroke:#000000;stroke-width:2.28088px"
     id="path22173"
     sodipodi:nodetypes="cccccccccccccccccccccccccccccccccccc"
     inkscape:export-xdpi="96"
     inkscape:export-ydpi="96" />
  <ellipse
     id="circle849-7"
     style="stroke-width:2.27832"
     cy="400.15979"
     cx="611.22797"
     inkscape:export-xdpi="96"
     inkscape:export-ydpi="96"
     rx="8.0566673"
     ry="8.7890177" />
</svg>
