<?xml version="1.0" encoding="UTF-8" standalone="no"?>
<svg
   xmlns:dc="http://purl.org/dc/elements/1.1/"
   xmlns:cc="http://creativecommons.org/ns#"
   xmlns:rdf="http://www.w3.org/1999/02/22-rdf-syntax-ns#"
   xmlns:svg="http://www.w3.org/2000/svg"
   xmlns="http://www.w3.org/2000/svg"
   width="45"
   height="45"
   viewBox="0 0 11.90625 11.90625"
   version="1.1"
   id="svg4393">
  <defs
     id="defs4387" />
  <metadata
     id="metadata4390">
    <rdf:RDF>
      <cc:Work
         rdf:about="">
        <dc:format>image/svg+xml</dc:format>
        <dc:type
           rdf:resource="http://purl.org/dc/dcmitype/StillImage" />
        <dc:title></dc:title>
      </cc:Work>
    </rdf:RDF>
  </metadata>
  <g
     id="layer1"
     transform="translate(0,-285.09373)">
    <g
       id="g4499"
       transform="matrix(0.28598519,0,0,0.28598519,-0.47456997,283.80785)"
       style="fill:#6be7d8;fill-opacity:1">
      <g
         id="g4399"
         style="fill:#6be7d8;stroke:#000000;stroke-width:1.5;stroke-linejoin:round;fill-opacity:1">
        <!-- bojt -->
        <circle
           id="circle4395"
           r="2.5"
           cy="13.5"
           cx="22.5"
           style="fill:#6be7d8;fill-opacity:1" />
        <!-- test -->
        <path
           id="path4397"
           d="m 11.5,37 c 5.5,3.5 15.5,3.5 21,0 v -7 c 0,0 9,-4.5 6,-11 -5.5,-7 -26.5,-7 -32,0 -3,6.5 5,10.5 5,10.5 z"
           style="fill:#6be7d8;fill-opacity:1" />
      </g>
      <g
         id="g4407"
         style="fill:#6be7d8;stroke:#000000;stroke-width:1.5;stroke-linecap:round;fill-opacity:1">
        <!-- talp -->
        <path
           id="path4401"
           d="M 11.5,30 C 17,27 27,27 32.5,30"
           style="fill:#6be7d8;fill-opacity:1" />
        <path
           id="path4403"
           d="m 11.5,33.5 c 5.5,-3 15.5,-3 21,0"
           style="fill:#6be7d8;fill-opacity:1" />
        <path
           id="path4405"
           d="M 11.5,37 C 17,34 27,34 32.5,37"
           style="fill:#6be7d8;fill-opacity:1" />
      </g>
    </g>
  </g>
</svg>
