<?xml version="1.0" encoding="UTF-8" standalone="no"?>
<svg
   xmlns:dc="http://purl.org/dc/elements/1.1/"
   xmlns:cc="http://creativecommons.org/ns#"
   xmlns:rdf="http://www.w3.org/1999/02/22-rdf-syntax-ns#"
   xmlns:svg="http://www.w3.org/2000/svg"
   xmlns="http://www.w3.org/2000/svg"
   xmlns:sodipodi="http://sodipodi.sourceforge.net/DTD/sodipodi-0.dtd"
   xmlns:inkscape="http://www.inkscape.org/namespaces/inkscape"
   width="45"
   height="45"
   version="1.1"
   id="svg2193"
   sodipodi:docname="cyan_Knight_dark_right_filled.svg"
   inkscape:version="1.0.2 (e86c870879, 2021-01-15)">
  <metadata
     id="metadata2199">
    <rdf:RDF>
      <cc:Work
         rdf:about="">
        <dc:format>image/svg+xml</dc:format>
        <dc:type
           rdf:resource="http://purl.org/dc/dcmitype/StillImage" />
        <dc:title></dc:title>
      </cc:Work>
    </rdf:RDF>
  </metadata>
  <defs
     id="defs2197" />
  <sodipodi:namedview
     pagecolor="#ffffff"
     bordercolor="#666666"
     borderopacity="1"
     objecttolerance="10"
     gridtolerance="10"
     guidetolerance="10"
     inkscape:pageopacity="0"
     inkscape:pageshadow="2"
     inkscape:window-width="1366"
     inkscape:window-height="741"
     id="namedview2195"
     showgrid="false"
     inkscape:zoom="6.5664826"
     inkscape:cx="21.088589"
     inkscape:cy="23.929991"
     inkscape:window-x="0"
     inkscape:window-y="0"
     inkscape:window-maximized="1"
     inkscape:current-layer="svg2193" />
  <path
     d="m 22.029252,10 c -10.5,1 -16.4999999,8 -15.9999999,29 H 29.029252 c 0,-9 -10,-6.5 -8,-21"
     fill="#000000"
     id="path2183"
     style="fill:#199a8b;fill-opacity:1;fill-rule:evenodd;stroke:#199a8b;stroke-width:1.5;stroke-linecap:round;stroke-linejoin:round;stroke-opacity:1" />
  <path
     d="m 20.029252,18 c -0.38,2.91 5.55,7.37 8,9 3,2 2.82,4.34 5,4 1.042,-0.94 -1.41,-3.04 0,-3 1,0 -0.19,1.23 1,2 1,0 4.003,1 4,-4 0,-2 -6,-12 -6,-12 0,0 -1.89,-1.9 -2,-3.5 0.73,-0.994 0.5,-2 0.5,-3 -1,-1 -3,2.5 -3,2.5 h -2 c 0,0 -0.78,-1.992 -2.5,-3 -1,0 -1,3 -1,3"
     fill="#000000"
     id="path2185"
     style="fill:#199a8b;fill-opacity:1;fill-rule:evenodd;stroke:#199a8b;stroke-width:1.5;stroke-linecap:round;stroke-linejoin:round;stroke-opacity:1" />
  <path
     d="m 34.529252,25.5 a -0.5,0.5 0 1 0 1,0 -0.5,0.5 0 1 0 -1,0 z m -5.433,-9.75 a 1.5,0.5 60 1 0 0.866,-0.5 1.5,0.5 60 1 0 -0.866,0.5 z"
     fill="#ececec"
     stroke="#ececec"
     id="path2187"
     style="fill-rule:evenodd;stroke-width:1.5;stroke-linecap:round;stroke-linejoin:round" />
  <path
     d="m 19.479252,10.4 0.45,1.45 -0.5,0.15 c -3.15,1 -5.65,2.49 -7.9,6.75 C 9.2792521,23.01 8.2792521,29.06 8.7792521,39 l 0.05,0.5 h -2.25 l -0.05,-0.5 c -0.5,-10.06 0.88,-16.85 3.25,-21.34 2.3699999,-4.49 5.7899999,-6.64 9.1899999,-7.16 z"
     fill="#ececec"
     stroke="none"
     id="path2189"
     style="fill-rule:evenodd;stroke-width:1.5;stroke-linecap:round;stroke-linejoin:round" />
</svg>
