<?xml version="1.0" encoding="UTF-8" standalone="no"?>
<svg
   xmlns:dc="http://purl.org/dc/elements/1.1/"
   xmlns:cc="http://creativecommons.org/ns#"
   xmlns:rdf="http://www.w3.org/1999/02/22-rdf-syntax-ns#"
   xmlns:svg="http://www.w3.org/2000/svg"
   xmlns="http://www.w3.org/2000/svg"
   xmlns:sodipodi="http://sodipodi.sourceforge.net/DTD/sodipodi-0.dtd"
   xmlns:inkscape="http://www.inkscape.org/namespaces/inkscape"
   width="45"
   height="45"
   viewBox="0 0 11.90625 11.90625"
   version="1.1"
   id="svg4393"
   sodipodi:docname="cyan_Commoner_dark_filled.svg"
   inkscape:version="1.0.2 (e86c870879, 2021-01-15)">
  <defs
     id="defs4387" />
  <sodipodi:namedview
     id="base"
     pagecolor="#ffffff"
     bordercolor="#666666"
     borderopacity="1.0"
     inkscape:pageopacity="0.0"
     inkscape:pageshadow="2"
     inkscape:zoom="13.006655"
     inkscape:cx="14.871628"
     inkscape:cy="20.548363"
     inkscape:document-units="mm"
     inkscape:current-layer="layer1"
     showgrid="false"
     units="px"
     inkscape:window-width="1366"
     inkscape:window-height="741"
     inkscape:window-x="0"
     inkscape:window-y="0"
     inkscape:window-maximized="1"
     inkscape:document-rotation="0" />
  <metadata
     id="metadata4390">
    <rdf:RDF>
      <cc:Work
         rdf:about="">
        <dc:format>image/svg+xml</dc:format>
        <dc:type
           rdf:resource="http://purl.org/dc/dcmitype/StillImage" />
        <dc:title></dc:title>
      </cc:Work>
    </rdf:RDF>
  </metadata>
  <g
     inkscape:label="Layer 1"
     inkscape:groupmode="layer"
     id="layer1"
     transform="translate(0,-285.09373)">
    <circle
       id="circle4537"
       r="0.7230342"
       cy="287.63052"
       cx="5.9601755"
       style="fill:#199a8b;stroke:#199a8b;stroke-width:0.433821;stroke-linejoin:round;stroke-opacity:1;fill-opacity:1" />
    <circle
       id="circle4539"
       r="0.43382055"
       cy="287.63052"
       cx="5.9601755"
       style="fill:none;stroke:#ffffff;stroke-width:0.433821;stroke-linejoin:round" />
    <g
       id="g4543"
       style="fill:#199a8b;stroke:#199a8b;stroke-width:1.5;stroke-linejoin:round;stroke-opacity:1;fill-opacity:1"
       transform="matrix(0.28921369,0,0,0.28921369,-0.54713251,283.72613)">
      <!-- test -->
      <path
         id="path4541"
         d="m 11.5,37 c 5.5,3.5 15.5,3.5 21,0 v -7 c 0,0 9,-4.5 6,-11 -5.5,-7 -26.5,-7 -32,0 -3,6.5 5,10.5 5,10.5 z"
         inkscape:connector-curvature="0"
         style="stroke:#199a8b;stroke-opacity:1;fill:#199a8b;fill-opacity:1" />
    </g>
    <g
       id="g4553"
       style="fill:none;stroke:#ffffff;stroke-width:1.5;stroke-linecap:round;stroke-linejoin:round"
       transform="matrix(0.28921369,0,0,0.28921369,-0.54713251,283.72613)">
      <!-- test -->
      <path
         id="path4545"
         d="m 32,29.5 c 0,0 8.5,-4 6,-9.65 C 32.65,13 12.35,13 7,19.85 c -2.5,5.65 4.85,9 4.85,9"
         inkscape:connector-curvature="0" />
      <!-- talp -->
      <path
         id="path4547"
         d="M 11.5,30 C 17,27 27,27 32.5,30"
         inkscape:connector-curvature="0" />
      <path
         id="path4549"
         d="m 11.5,33.5 c 5.5,-3 15.5,-3 21,0"
         inkscape:connector-curvature="0" />
      <path
         id="path4551"
         d="M 11.5,37 C 17,34 27,34 32.5,37"
         inkscape:connector-curvature="0" />
    </g>
  </g>
</svg>
