<?xml version="1.0" encoding="UTF-8" standalone="no"?>
<svg
   xmlns:dc="http://purl.org/dc/elements/1.1/"
   xmlns:cc="http://creativecommons.org/ns#"
   xmlns:rdf="http://www.w3.org/1999/02/22-rdf-syntax-ns#"
   xmlns:svg="http://www.w3.org/2000/svg"
   xmlns="http://www.w3.org/2000/svg"
   xmlns:sodipodi="http://sodipodi.sourceforge.net/DTD/sodipodi-0.dtd"
   xmlns:inkscape="http://www.inkscape.org/namespaces/inkscape"
   width="45"
   height="45"
   id="svg3128"
   sodipodi:version="0.32"
   inkscape:version="1.0.2 (e86c870879, 2021-01-15)"
   version="1.0"
   sodipodi:docname="mag_Rook_light_arrow_left.svg"
   inkscape:output_extension="org.inkscape.output.svg.inkscape">
  <defs
     id="defs3130">
    <inkscape:perspective
       sodipodi:type="inkscape:persp3d"
       inkscape:vp_x="0 : 22.5 : 1"
       inkscape:vp_y="0 : 1000 : 0"
       inkscape:vp_z="45 : 22.5 : 1"
       inkscape:persp3d-origin="22.5 : 15 : 1"
       id="perspective10796" />
    <inkscape:perspective
       id="perspective2415"
       inkscape:persp3d-origin="372.04724 : 350.78739 : 1"
       inkscape:vp_z="744.09448 : 526.18109 : 1"
       inkscape:vp_y="0 : 1000 : 0"
       inkscape:vp_x="0 : 526.18109 : 1"
       sodipodi:type="inkscape:persp3d" />
    <inkscape:perspective
       id="perspective2448"
       inkscape:persp3d-origin="372.04724 : 350.78739 : 1"
       inkscape:vp_z="744.09448 : 526.18109 : 1"
       inkscape:vp_y="0 : 1000 : 0"
       inkscape:vp_x="0 : 526.18109 : 1"
       sodipodi:type="inkscape:persp3d" />
  </defs>
  <sodipodi:namedview
     id="base"
     pagecolor="#ffffff"
     bordercolor="#666666"
     borderopacity="1.0"
     gridtolerance="10000"
     guidetolerance="10"
     objecttolerance="10"
     inkscape:pageopacity="0.0"
     inkscape:pageshadow="2"
     inkscape:zoom="12.04847"
     inkscape:cx="21.455163"
     inkscape:cy="20.576565"
     inkscape:document-units="px"
     inkscape:current-layer="layer1"
     height="45px"
     width="45px"
     inkscape:grid-points="true"
     showgrid="false"
     inkscape:window-width="1366"
     inkscape:window-height="741"
     inkscape:window-x="0"
     inkscape:window-y="0"
     inkscape:document-rotation="0"
     inkscape:window-maximized="1">
    <inkscape:grid
       id="GridFromPre046Settings"
       type="xygrid"
       originx="0"
       originy="0"
       spacingx="0.5"
       spacingy="0.5"
       color="#0000ff"
       empcolor="#0000ff"
       opacity="0.2"
       empopacity="0.4"
       empspacing="5" />
  </sodipodi:namedview>
  <metadata
     id="metadata3133">
    <rdf:RDF>
      <cc:Work
         rdf:about="">
        <dc:format>image/svg+xml</dc:format>
        <dc:type
           rdf:resource="http://purl.org/dc/dcmitype/StillImage" />
        <dc:title />
      </cc:Work>
    </rdf:RDF>
  </metadata>
  <g
     inkscape:label="Layer 1"
     inkscape:groupmode="layer"
     id="layer1"
     style="display: inline;">
    <path
       style="fill:#e76bc4;fill-opacity:1;fill-rule:evenodd;stroke:black;stroke-width:1.5;stroke-linecap:butt;stroke-linejoin:round;stroke-opacity:1;stroke-miterlimit:4;stroke-dasharray:none"
       d="M 9,39 L 36,39 L 36,36 L 9,36 L 9,39 z "
       id="path3119"
       sodipodi:nodetypes="ccccc" />
    <path
       style="fill:#e76bc4;fill-opacity:1;fill-rule:evenodd;stroke:black;stroke-width:1.5;stroke-linecap:butt;stroke-linejoin:round;stroke-opacity:1;stroke-miterlimit:4;stroke-dasharray:none"
       d="M 12,36 L 12,32 L 33,32 L 33,36 L 12,36 z "
       id="path3121"
       sodipodi:nodetypes="ccccc" />
    <path
       style="fill:#e76bc4;fill-opacity:1;fill-rule:evenodd;stroke:black;stroke-width:1.5;stroke-linecap:butt;stroke-linejoin:round;stroke-opacity:1;stroke-miterlimit:4;stroke-dasharray:none"
       d="M 11,14 L 11,9 L 15,9 L 15,11 L 20,11 L 20,9 L 25,9 L 25,11 L 30,11 L 30,9 L 34,9 L 34,14"
       id="path3129"
       sodipodi:nodetypes="cccccccccccc" />
    <path
       style="fill:#e76bc4;fill-opacity:1;fill-rule:evenodd;stroke:black;stroke-width:1.5;stroke-linecap:round;stroke-linejoin:round;stroke-opacity:1;stroke-miterlimit:4;stroke-dasharray:none"
       d="M 34,14 L 31,17 L 14,17 L 11,14"
       id="path3127"
       sodipodi:nodetypes="cccc" />
    <path
       style="fill:#e76bc4;fill-opacity:1;fill-rule:evenodd;stroke:black;stroke-width:1.5;stroke-linecap:butt;stroke-linejoin:miter;stroke-miterlimit:4;stroke-dasharray:none;stroke-opacity:1"
       d="M 31,17 L 31,29.500018 L 14,29.500018 L 14,17"
       id="path3125"
       sodipodi:nodetypes="cccc" />
    <path
       style="fill:#e76bc4;fill-opacity:1;fill-rule:evenodd;stroke:black;stroke-width:1.5;stroke-linecap:round;stroke-linejoin:round;stroke-opacity:1;stroke-miterlimit:4;stroke-dasharray:none"
       d="M 31,29.5 L 32.5,32 L 12.5,32 L 14,29.5"
       id="path3123"
       sodipodi:nodetypes="cccc" />
    <path
       style="fill:#ffdc00;fill-opacity:1;fill-rule:evenodd;stroke:black;stroke-width:1px;stroke-linecap:round;stroke-linejoin:miter;stroke-opacity:1"
       d="M 11,14 L 34,14"
       id="path5175" />
    <path
       d="m 14.591758,15.189306 0.367246,-0.367838 c 0.751051,0.272034 1.573659,0.460093 2.466641,0.563584 0.892982,0.103492 2.096437,0.106446 3.609775,0.0083 l 0.653475,0.653473 c -1.306948,0.555305 -2.684269,0.871101 -4.132555,0.947388 l 10.667292,10.666672 a 11.919831,11.919831 0 0 1 0.955667,-4.124867 l 0.644604,0.645193 c -0.09757,1.51393 -0.09462,2.717386 0.0089,3.610369 0.103493,0.892982 0.290959,1.714998 0.562993,2.466049 l -0.367246,0.367838 c -0.745711,-0.277948 -1.567136,-0.467189 -2.462484,-0.567724 -0.895938,-0.100528 -2.100577,-0.101716 -3.613915,-0.0042 l -0.645243,-0.644507 a 11.920422,11.920422 0 0 1 4.124275,-0.95626 L 16.763892,17.786642 a 12.110255,12.110255 0 0 1 -0.947389,4.132556 l -0.652882,-0.653475 c 0.09757,-1.513929 0.0964,-2.718568 -0.0042,-3.613916 -0.100538,-0.895939 -0.289775,-1.716772 -0.567723,-2.462501 z"
       id="path10757"
       style="fill:#d9de33;fill-opacity:1;stroke-width:0.591379" />
  </g>
</svg>
