<?xml version="1.0" encoding="UTF-8" standalone="no"?>
<svg
   xmlns:dc="http://purl.org/dc/elements/1.1/"
   xmlns:cc="http://creativecommons.org/ns#"
   xmlns:rdf="http://www.w3.org/1999/02/22-rdf-syntax-ns#"
   xmlns:svg="http://www.w3.org/2000/svg"
   xmlns="http://www.w3.org/2000/svg"
   xmlns:sodipodi="http://sodipodi.sourceforge.net/DTD/sodipodi-0.dtd"
   xmlns:inkscape="http://www.inkscape.org/namespaces/inkscape"
   width="45"
   height="45"
   version="1.1"
   id="svg5882"
   sodipodi:docname="mag_King_dark_filled.svg"
   inkscape:version="1.0.2 (e86c870879, 2021-01-15)">
  <metadata
     id="metadata5888">
    <rdf:RDF>
      <cc:Work
         rdf:about="">
        <dc:format>image/svg+xml</dc:format>
        <dc:type
           rdf:resource="http://purl.org/dc/dcmitype/StillImage" />
        <dc:title></dc:title>
      </cc:Work>
    </rdf:RDF>
  </metadata>
  <defs
     id="defs5886" />
  <sodipodi:namedview
     pagecolor="#ffffff"
     bordercolor="#666666"
     borderopacity="1"
     objecttolerance="10"
     gridtolerance="10"
     guidetolerance="10"
     inkscape:pageopacity="0"
     inkscape:pageshadow="2"
     inkscape:window-width="1366"
     inkscape:window-height="741"
     id="namedview5884"
     showgrid="false"
     inkscape:zoom="13.177778"
     inkscape:cx="22.5"
     inkscape:cy="22.5"
     inkscape:window-x="0"
     inkscape:window-y="0"
     inkscape:window-maximized="1"
     inkscape:current-layer="svg5882"
     inkscape:document-rotation="0" />
  <path
     d="M 22.5,11.63 V 6"
     stroke-linejoin="miter"
     id="path5868"
     style="fill:#63104b;fill-rule:evenodd;stroke:#63104b;stroke-width:1.5;stroke-linecap:round;fill-opacity:1;stroke-opacity:1" />
  <path
     d="m 22.5,25 c 0,0 4.5,-7.5 3,-10.5 0,0 -1,-2.5 -3,-2.5 -2,0 -3,2.5 -3,2.5 -1.5,3 3,10.5 3,10.5"
     fill="#000000"
     stroke-linecap="butt"
     stroke-linejoin="miter"
     id="path5870"
     style="fill-rule:evenodd;stroke:#63104b;stroke-width:1.5;fill:#63104b;fill-opacity:1;stroke-opacity:1" />
  <path
     d="m 11.5,37 c 5.5,3.5 15.5,3.5 21,0 v -7 c 0,0 9,-4.5 6,-10.5 -4,-6.5 -13.5,-3.5 -16,4 V 27 23.5 C 19,16 9.5,13 6.5,19.5 c -3,6 5,10 5,10 z"
     fill="#000000"
     id="path5872"
     style="fill-rule:evenodd;stroke:#63104b;stroke-width:1.5;stroke-linecap:round;stroke-linejoin:round;fill:#63104b;fill-opacity:1;stroke-opacity:1" />
  <path
     d="m 20,8 h 5"
     stroke-linejoin="miter"
     id="path5874"
     style="fill:#63104b;fill-rule:evenodd;stroke:#63104b;stroke-width:1.5;stroke-linecap:round;fill-opacity:1;stroke-opacity:1" />
  <path
     d="m 32,29.5 c 0,0 8.5,-4 6.03,-9.65 C 34.15,14 25,18 22.5,24.5 l 0.01,2.1 -0.01,-2.1 C 20,18 9.906,14 6.997,19.85 c -2.497,5.65 4.853,9 4.853,9"
     stroke="#ececec"
     id="path5876"
     style="fill:none;fill-rule:evenodd;stroke-width:1.5;stroke-linecap:round;stroke-linejoin:round" />
  <path
     d="m 11.5,30 c 5.5,-3 15.5,-3 21,0 m -21,3.5 c 5.5,-3 15.5,-3 21,0 m -21,3.5 c 5.5,-3 15.5,-3 21,0"
     stroke="#ececec"
     id="path5878"
     style="fill:none;fill-rule:evenodd;stroke-width:1.5;stroke-linecap:round;stroke-linejoin:round" />
</svg>
