<?xml version="1.0" encoding="UTF-8" standalone="no"?>
<svg
   clip-rule="evenodd"
   fill-rule="evenodd"
   height="177.17"
   image-rendering="optimizeQuality"
   shape-rendering="geometricPrecision"
   viewBox="0 0 50 50"
   width="177.17"
   version="1.1"
   id="svg8541"
   sodipodi:docname="bCaptain_white.svg"
   inkscape:version="1.2.1 (9c6d41e410, 2022-07-14)"
   xmlns:inkscape="http://www.inkscape.org/namespaces/inkscape"
   xmlns:sodipodi="http://sodipodi.sourceforge.net/DTD/sodipodi-0.dtd"
   xmlns:xlink="http://www.w3.org/1999/xlink"
   xmlns="http://www.w3.org/2000/svg"
   xmlns:svg="http://www.w3.org/2000/svg">
  <defs
     id="defs8545">
    <linearGradient
       id="linearGradient9054">
      <stop
         offset="0"
         stop-color="#e6e6e6"
         id="stop9050"
         style="stop-color:#ffffff;stop-opacity:1;" />
      <stop
         offset="1"
         stop-color="#aba9a8"
         id="stop9052"
         style="stop-color:#ffffff;stop-opacity:1;" />
    </linearGradient>
  </defs>
  <sodipodi:namedview
     id="namedview8543"
     pagecolor="#ffffff"
     bordercolor="#000000"
     borderopacity="0.25"
     inkscape:showpageshadow="2"
     inkscape:pageopacity="0.0"
     inkscape:pagecheckerboard="0"
     inkscape:deskcolor="#d1d1d1"
     showgrid="false"
     inkscape:zoom="4.9161822"
     inkscape:cx="88.483294"
     inkscape:cy="88.686704"
     inkscape:window-width="1920"
     inkscape:window-height="1051"
     inkscape:window-x="0"
     inkscape:window-y="0"
     inkscape:window-maximized="1"
     inkscape:current-layer="g8539" />
  <linearGradient
     id="a">
    <stop
       offset="0"
       stop-color="#e6e6e6"
       id="stop8519"
       style="stop-color:#ffffff;stop-opacity:1;" />
    <stop
       offset="1"
       stop-color="#aba9a8"
       id="stop8521"
       style="stop-color:#ffffff;stop-opacity:1;" />
  </linearGradient>
  <linearGradient
     id="b"
     gradientUnits="userSpaceOnUse"
     x1="27.894026"
     x2="40.880329"
     y1="24.891678"
     y2="24.891678">
    <stop
       offset="0"
       stop-color="#e6e6e6"
       id="stop8524"
       style="stop-color:#ffffff;stop-opacity:1;" />
    <stop
       offset="1"
       stop-color="#e6e6e6"
       stop-opacity="0"
       id="stop8526"
       style="stop-color:#ffffff;stop-opacity:1;" />
  </linearGradient>
  <linearGradient
     id="c"
     gradientUnits="userSpaceOnUse"
     x1="25.051853"
     x2="43.18313"
     xlink:href="#linearGradient9054"
     y1="26.219132"
     y2="26.297394" />
  <linearGradient
     id="d"
     gradientTransform="matrix(1 0 0 -1 -.130022 49.623217)"
     gradientUnits="userSpaceOnUse"
     x1="25.181875"
     x2="43.313152"
     xlink:href="#a"
     y1="25.17498"
     y2="25.253242" />
  <path
     d="m24.999899 3.9992154a17.919813 21.229329 0 0 0 -17.222791 15.3826666 6.0216842 5.7933741 0 0 1 5.978642 5.790307 6.0216842 5.7933741 0 0 1 -6.002559 5.791917 17.919813 21.229329 0 0 0 17.246708 15.493816 17.919813 21.229329 0 0 0 17.24691-15.493816 6.0216842 5.7933741 0 0 1 -6.00256-5.791917 6.0216842 5.7933741 0 0 1 5.981453-5.790508 17.919813 21.229329 0 0 0 -17.225803-15.3824656z"
     fill="#1f1a17"
     id="path8531" />
  <path
     d="m24.011962 9.4767733v14.3940807h-7.186005v2.25827h7.186005v14.177361h1.976055v-14.177361h7.144665v-2.25827h-7.144665v-14.3940807z"
     fill="url(#b)"
     id="path8533" />
  <g
     transform="translate(.000078 -.105116)"
     id="g8539">
    <path
       d="m25.030134 6.3752097c-5.966054-.010564-11.192699 2.8151272-14.923939 11.4774873l1.659467.761552c4.044823-8.347694 8.154426-10.5547251 13.262519-10.54568 5.108093.00905 9.399214 2.208417 13.151377 10.545701l1.714091-.617041c-3.679322-8.6605571-8.89746-11.611455-14.863515-11.6220193z"
       fill="url(#c)"
       id="path8535" />
    <path
       d="m25.030134 44.29216c-5.966054.010564-11.192699-2.815128-14.923939-11.477488l1.659467-.761552c4.044823 8.347694 8.154426 10.554725 13.262519 10.54568 5.108093-.0091 9.399214-2.208417 13.151377-10.545701l1.714091.617041c-3.679322 8.660557-8.89746 11.611455-14.863515 11.62202z"
       fill="url(#d)"
       id="path8537" />
  </g>
</svg>
