<?xml version="1.0" encoding="UTF-8" standalone="no"?>
<svg
   width="177.17"
   height="177.17"
   clip-rule="evenodd"
   fill-rule="evenodd"
   image-rendering="optimizeQuality"
   shape-rendering="geometricPrecision"
   version="1.1"
   viewBox="0 0 50 50"
   id="svg6771"
   sodipodi:docname="wCaptain_white.svg"
   inkscape:version="1.2.1 (9c6d41e410, 2022-07-14)"
   xmlns:inkscape="http://www.inkscape.org/namespaces/inkscape"
   xmlns:sodipodi="http://sodipodi.sourceforge.net/DTD/sodipodi-0.dtd"
   xmlns:xlink="http://www.w3.org/1999/xlink"
   xmlns="http://www.w3.org/2000/svg"
   xmlns:svg="http://www.w3.org/2000/svg">
  <defs
     id="defs6775">
    <linearGradient
       id="linearGradient7284">
      <stop
         stop-color="#e6e6e6"
         offset="0"
         id="stop7280"
         style="stop-color:#000000;stop-opacity:1;" />
      <stop
         stop-color="#aba9a8"
         offset="1"
         id="stop7282"
         style="stop-color:#000000;stop-opacity:1;" />
    </linearGradient>
  </defs>
  <sodipodi:namedview
     id="namedview6773"
     pagecolor="#ffffff"
     bordercolor="#000000"
     borderopacity="0.25"
     inkscape:showpageshadow="2"
     inkscape:pageopacity="0.0"
     inkscape:pagecheckerboard="0"
     inkscape:deskcolor="#d1d1d1"
     showgrid="false"
     inkscape:zoom="3.4762658"
     inkscape:cx="88.888485"
     inkscape:cy="82.27219"
     inkscape:window-width="1920"
     inkscape:window-height="1051"
     inkscape:window-x="0"
     inkscape:window-y="0"
     inkscape:window-maximized="1"
     inkscape:current-layer="svg6771" />
  <linearGradient
     id="a">
    <stop
       stop-color="#e6e6e6"
       offset="0"
       id="stop6749"
       style="stop-color:#000000;stop-opacity:1;" />
    <stop
       stop-color="#aba9a8"
       offset="1"
       id="stop6751"
       style="stop-color:#000000;stop-opacity:1;" />
  </linearGradient>
  <linearGradient
     id="b"
     x1="27.894"
     x2="40.88"
     y1="24.892"
     y2="24.892"
     gradientUnits="userSpaceOnUse">
    <stop
       stop-color="#e6e6e6"
       offset="0"
       id="stop6754"
       style="stop-color:#000000;stop-opacity:1;" />
    <stop
       stop-color="#e6e6e6"
       stop-opacity="0"
       offset="1"
       id="stop6756"
       style="stop-color:#000000;stop-opacity:1;" />
  </linearGradient>
  <linearGradient
     id="c"
     x1="25.052"
     x2="43.183"
     y1="26.219"
     y2="26.297"
     gradientUnits="userSpaceOnUse"
     xlink:href="#linearGradient7284" />
  <linearGradient
     id="d"
     x1="25.182"
     x2="43.313"
     y1="25.175"
     y2="25.253"
     gradientTransform="matrix(1 0 0 -1 -.13002 49.623)"
     gradientUnits="userSpaceOnUse"
     xlink:href="#a" />
  <path
     d="m25 3.9992a17.92 21.229 0 0 0-17.223 15.383 6.0217 5.7934 0 0 1 5.9786 5.7903 6.0217 5.7934 0 0 1-6.0026 5.7919 17.92 21.229 0 0 0 17.247 15.494 17.92 21.229 0 0 0 17.247-15.494 6.0217 5.7934 0 0 1-6.0026-5.7919 6.0217 5.7934 0 0 1 5.9815-5.7905 17.92 21.229 0 0 0-17.226-15.382z"
     fill="#8d0000"
     id="path6761"
     style="stroke:#000000;stroke-opacity:1;fill:#ffffff;fill-opacity:1" />
  <path
     d="m24.012 9.4768v14.394h-7.186v2.2583h7.186v14.177h1.9761v-14.177h7.1447v-2.2583h-7.1447v-14.394z"
     fill="url(#b)"
     id="path6763" />
  <g
     transform="translate(7.8e-5 -.10512)"
     id="g6769"
     style="stroke-width:0.99988712;stroke-dasharray:none">
    <path
       d="m25.03 6.3752c-5.9661-0.010564-11.193 2.8151-14.924 11.477l1.6595 0.76155c4.0448-8.3477 8.1544-10.555 13.263-10.546 5.1081 0.00905 9.3992 2.2084 13.151 10.546l1.7141-0.61704c-3.6793-8.6606-8.8975-11.611-14.864-11.622z"
       fill="url(#c)"
       id="path6765"
       style="stroke-width:0.99988712;stroke-dasharray:none" />
    <path
       d="m25.03 44.292c-5.9661 0.010564-11.193-2.8151-14.924-11.477l1.6595-0.76155c4.0448 8.3477 8.1544 10.555 13.263 10.546 5.1081-0.0091 9.3992-2.2084 13.151-10.546l1.7141 0.61704c-3.6793 8.6606-8.8975 11.611-14.864 11.622z"
       fill="url(#d)"
       id="path6767"
       style="stroke-width:0.99988712;stroke-dasharray:none" />
  </g>
</svg>
