<svg width="177.17" height="177.17" clip-rule="evenodd" fill-rule="evenodd" image-rendering="optimizeQuality" shape-rendering="geometricPrecision" version="1.1" viewBox="0 0 50 50" xmlns="http://www.w3.org/2000/svg">
 <linearGradient id="a" x1="30.11" x2="48.481" y1="19.456" y2="19.456" gradientUnits="userSpaceOnUse">
  <stop stop-color="#fff" offset="0"/>
  <stop stop-color="#ebeaea" stop-opacity="0" offset="1"/>
 </linearGradient>
 <linearGradient id="b" x1="24.235" x2="66.949" y1="27.382" y2="27.382" gradientUnits="userSpaceOnUse">
  <stop stop-color="#f8f8f8" offset="0"/>
  <stop stop-opacity="0" offset="1"/>
 </linearGradient>
 <g transform="translate(.92862)">
  <path d="m8.283 46.458c0.33311-1.5032 2.5681-11.138 2.6978-11.622 2.426-0.63261 2.2225-0.23618 4.8683-0.41952 0.97119-0.03178 1.8956 0.16832 3.0835-0.13273 0.31139-0.44744 0.35474-0.32358 0.3547-0.64855-1.32e-4 -0.93019 0.2228-1.3849-0.56487-1.6195-0.63116-0.18798-1.1597-0.19971-3.077-0.06832-0.48548 0.03325-1.1806 0.07871-1.5447 0.10099-1.9054 0.11654-2.6106 0.16274-2.8287 0.18535l-0.24074 0.02497-0.2608 0.36317c-0.14344 0.19974-0.31535 0.43724-0.38202 0.52776-0.41155 0.55878-1.8178 2.5094-2.5557 3.545-0.12973 0.18206-0.25304 0.33101-0.27403 0.33101-0.02322 0-0.03803-0.42854-0.0379-1.0933 6.46e-4 -2.6493 0.37816-5.2268 1.1502-7.854 0.29708-1.0109 3.0082-7.6045 3.0824-7.6045l1.5434 0.39299c1.7032-3.0065 5.8535-2.6393 8.6278-2.665 0.94147 5.69e-4 1.6354 0.05795 2.4676 0.20416 0.2442 0.04289 1.1827 0.27295 1.4043 0.34422 0.08827 0.0284 0.31396 0.09953 0.50154 0.15808 0.18757 0.05853 0.39794 0.1326 0.46748 0.16454 0.06953 0.03195 0.14652 0.05809 0.17107 0.05809 0.02458 0 0.07598 0.01675 0.1143 0.03719 0.03829 0.02043 0.30439 0.13192 0.59126 0.24765 1.4311 0.57736 3.1214 1.568 4.3333 2.5397 1.9657 1.5761 3.1494 3.3025 3.5562 5.1863 0.11344 0.52532 0.12354 1.6721 0.019 2.1602-0.26648 1.2448-0.81387 2.1947-1.904 3.3042l-0.44753 0.45551 6e-6 3.2358c1.4e-5 3.4732-0.0078 3.3188 0.2153 4.2589 0.3363 1.4172 0.97471 2.7381 1.7146 3.5476 0.2088 0.22847 0.23249 0.31288 0.06613 0.23566-0.11153-0.05177-0.14127-0.06398-1.1535-0.47343-0.45239-0.183-1.1114-0.44995-1.4645-0.59323-0.35308-0.14328-1.1204-0.45301-1.7052-0.68828-0.58479-0.23527-1.1174-0.45246-1.1836-0.48263-0.0662-0.03018-0.24656-0.10224-0.40081-0.16015-0.40401-0.15169-0.58064-0.26658-0.83929-0.54595-0.42453-0.45854-0.64054-0.78915-0.83695-1.281-0.15637-0.39158-0.21938-0.7424-0.28824-1.6049-0.03434-0.43031-0.08046-0.94489-0.10246-1.1435-0.10166-0.91778-0.1603-1.6115-0.16031-1.8962-2e-5 -0.69176-0.24976-1.4472-0.56695-1.7149-0.16691-0.14088-0.26988-0.18057-0.46567-0.17956-0.36371 0.0019-0.69023 0.35573-0.91076 0.98695-0.08544 0.24455-0.17122 0.60834-0.34412 1.4596-0.02017 0.09931-0.06496 0.30694-0.09951 0.46141-0.03454 0.15448-0.07959 0.37114-0.10005 0.48148-0.03836 0.20672-0.25951 1.2729-0.40366 1.946-0.13605 0.6352-0.19589 0.92435-0.27818 1.3441-0.10728 0.54719-0.16839 0.73568-0.33527 1.0341-0.54453 0.97372-1.5319 1.8582-2.7968 2.5052-4.3787 1.33-8.3836 1.7742-12.476 2.663zm27.57-3.8409c-0.24759-0.34772-0.68099-1.4464-0.81498-2.0661-0.12452-0.57583-0.14738-0.73719-0.19275-1.3603-0.07021-0.96409-0.16757-1.6854 0.08829-2.9917 0.0753-0.38446 0.0895-0.45003 0.21901-1.0132 0.11457-0.49804 0.34227-1.3914 0.48063-1.8858 0.12275-0.43861 0.18474-0.66822 0.42782-1.5849 0.13478-0.50822 0.39613-1.5602 0.43681-1.7583 0.17497-0.85199 0.23266-1.2039 0.29951-1.8269 0.13929-1.2981-0.0814-2.4076-0.6427-3.4294-1.2974-2.3619-2.5522-3.388-4.7313-4.8456-2.7562-1.8436-3.4324-2.0515-6.7701-2.5893-1.1622-0.18725-2.7251-0.15785-4.0953-0.10593-1.326 0.05026-2.6852 0.27189-3.9353 0.64177-0.30438 0.09005-0.5821 0.17208-0.61716 0.18228-0.05142 0.01494-1.4829-3.5445-2.8197-7.0191-0.91118-2.3684-1.6589-4.3325-1.6615-4.3647 2.2076-0.2777 4.4022-0.43115 6.9329-0.43231l0.72504 3.7605c0.94336 0.0251 1.9374 0.0044 2.8369 0.11586l0.8016-3.739c2.3166 0.18845 4.4224 0.4366 6.5926 1.033l-0.89031 3.6972c0.82456 0.27892 2.2986 0.97988 2.9907 1.4796l1.9983-3.7975c2.314 0.93429 4.7021 3.4003 5.9245 4.897l-2.9466 3.3281 4.1688-1.1362c0.82312 1.3943 1.0436 1.8968 1.3368 3.7318 0.31697 5.207 0.14618 6.4831-1.3137 10.19-0.60648 1.3573-1.0568 2.1677-2.3862 4.2941-1.9728 3.1556-2.3454 3.9451-2.5614 5.8466-0.0922 0.81164 9e-3 2.0816 0.22145 2.7785 0.0379 0.12433-2.9e-4 0.113-0.10239-0.03034z" fill="#8d0000" stroke-width=".040123"/>
  <path d="m15.839 13.331 1.0326 2.465c11.924-1.7272 16.947 3.1156 19.979 7.3513 0.13622-2.2686-2.6927-6.2592-7.0206-8.3506-4.0352-1.3797-9.5877-1.9333-13.991-1.4657z" fill="url(#a)"/>
  <path d="m15.682 20.29c-0.4892 0.24959-0.84939 0.58949-0.89626 1.1487 7.9479 2.398 10.718 9.9818 18.245 10.24l0.94171-0.93711c-7.1951-0.84984-11.995-8.7147-18.291-10.451z" fill="url(#b)"/>
 </g>
</svg>
