<svg width="177.17" height="177.17" clip-rule="evenodd" fill-rule="evenodd" image-rendering="optimizeQuality" shape-rendering="geometricPrecision" version="1.1" viewBox="0 0 50 50" xmlns="http://www.w3.org/2000/svg" xmlns:xlink="http://www.w3.org/1999/xlink">
 <linearGradient id="a">
  <stop stop-color="#fff" offset="0"/>
  <stop stop-color="#fff" stop-opacity="0" offset="1"/>
 </linearGradient>
 <linearGradient id="b" x1="112.73" x2="123.52" y1="29.209" y2="29.209" gradientUnits="userSpaceOnUse" xlink:href="#a"/>
 <linearGradient id="c" x1="111.37" x2="143.87" y1="24.461" y2="24.461" gradientUnits="userSpaceOnUse" xlink:href="#a"/>
 <g transform="translate(-85.68 -8.2902)">
  <path d="m110.68 13.177a22.565 22.565 0 0 0-22.565 22.565 22.565 22.565 0 0 0 0.03914 1.1063l8.5111-2.4253h28.03l8.5111 2.4253a22.565 22.565 0 0 0 0.0397-1.1063 22.565 22.565 0 0 0-22.566-22.565z" fill="#8d0000"/>
  <path d="m110.67091 22.713197a14.203283 12.269219 0 0 0 -14.17035 11.725119h3.81136c-.371451 1.099496-.608477 2.835407-.615055 4.550935-.0034.895574.02206 1.697145.05651 1.781169.03445.08402.261945.259426.506045.390038.47176.252426.97029.800323 1.26112 1.385632.22829.45943.31006 1.921389.16152 2.889276-.0887.577896-.37946 3.581477-.39554 4.086889-.002.0724.52472.473473 1.19661.910588.66016.429479 1.22218.799198 1.24912.822078.0269.02287.35712.237129.73408.475545.37695.238415.75196.476271.83308.529051.0811.05278.65954.426714 1.28511.831079 1.5809 1.021871 1.9491 1.263244 2.23722 1.46514.23223.162719.5021.227979.60356.146014.0448-.03622-.0945-1.119676-.34153-2.656754-.20722-1.28941-.57049-3.578393-.89209-5.620536-.0857-.544219-.21901-1.416734-.29603-1.939185-.077-.52245-.18521-1.16341-.24053-1.424636-.0553-.261226-.1007-.621913-.101-.801077-.00037-.206649-.0732-.400296-.19902-.52955-.19522-.200499-.36023-.272678-2.1087-.926088-1.47394-.550816-2.09581-.807861-2.18021-.900586-.0444-.04875-.18054-.391004-.30302-.761073-.12249-.370069-.26357-.755074-.31304-.855081-.0494-.100009-.0895-.290631-.0895-.424041 0-.234876.0106-.240939.34653-.190018.19082.02892 1.0396.104713 1.88617.168516 4.40955.332328 4.39991.331437 4.46693.472545.0522.109893-.0484 1.272242-.22902 2.648252-.18279 1.393204-.1716 1.44745.45154 2.211211 1.1417 1.399334 1.26181 1.536918 1.36714 1.56515.12404.03325 1.85813-2.065641 1.94668-2.356224.0323-.106035.0124-.58469-.044-1.063602-.28398-2.409898-.32382-2.977701-.21602-3.064792.1104-.0892.85932-.154424 6.3871-.558554.21439-.01568.24331.01166.23103.219521-.007.130611-.14543.629192-.30604 1.108106l-.29202.870583-1.28263.514549c-.70527.282994-1.65756.653237-2.1162.822578-.45863.169339-.89798.36537-.97658.435542-.0869.07757-.18201.437828-.24253.919087-.0547.435323-.191 1.343361-.30253 2.018193-.11153.674831-.24442 1.530112-.29553 1.900182-.0511.370069-.16194 1.064734-.24602 1.543647-.0841.478913-.21435 1.317251-.29003 1.863178-.0757.545927-.16423 1.080477-.19652 1.187613-.0323.107135-.0997.515249-.15001.907087-.0503.391837-.15839 1.136116-.23953 1.654158-.14614.933002-.13821 1.076602.0565 1.076602.24204 0 7.74859-4.899741 7.88225-5.144991.11446-.209993.0433-1.614608-.15851-3.126798-.0581-.435374-.14826-1.112306-.20052-1.504144-.20147-1.510839.21715-2.858683 1.08661-3.496833.22706-.166655.54011-.39817.69556-.514549l.28253-.211521v-1.517144c0-1.786337-.24109-3.587634-.63556-4.781957h3.83136a14.203283 12.269219 0 0 0 -14.18785-11.725119z" fill="#8d0000"/>
  <path d="m110.68 25.488-0.0475 0.0035c-2.5412 0.18988-4.493 0.73682-5.9961 1.7687-1.5031 1.0318-2.5098 2.5354-3.1968 4.4704l-0.42504 1.1996 1.2156-0.37254 8.4498-2.5902 9.6659 2.9628-0.42554-1.1996c-0.68697-1.9351-1.6932-3.4386-3.1963-4.4704-1.5031-1.0318-3.4549-1.5788-5.9961-1.7687zm-0.57805 1.3416c-0.0122 0.068-0.0185 0.13897-0.0185 0.21252v1.6017c0 0.05665 4e-3 0.11201 0.011 0.16552l-6.8226 2.0902c0.54831-1.0646 1.1873-1.9641 2.0892-2.5832 1.1372-0.78068 2.6629-1.2692 4.741-1.4866zm1.1561 0c2.0782 0.21741 3.6042 0.70593 4.7414 1.4866 0.90185 0.61911 1.5404 1.5186 2.0887 2.5832l-6.8222-2.0902c7e-3 -0.05351 0.011-0.10887 0.011-0.16552v-1.6017c0-0.07355-7e-3 -0.14452-0.019-0.21252z" fill="url(#b)" stroke-width=".9072"/>
  <path d="m110.67 14.797c-1.7022 0-2.8911 0.08121-4.2431 0.53852l2.5758 5.6426 0.0926 0.19843c0.6701-0.05643 0.92835-0.07596 1.5748-0.0915 0.64644 0.01554 0.90468 0.03507 1.5748 0.0915l0.0926-0.19843 2.5763-5.6426c-1.3521-0.45731-2.5414-0.53852-4.2437-0.53852zm-8.2372 2.2583c-1.6524 0.6469-2.9196 1.5408-3.7107 2.196l4.4746 3.8722c0.85308-0.34977 1.7266-0.78927 2.6232-1.0848zm16.513 0-3.3866 4.9834c0.89651 0.29549 1.7695 0.73499 2.6226 1.0848l4.4746-3.8722c-0.79108-0.65517-2.0582-1.5491-3.7107-2.196zm-23.493 5.108c-1.2293 1.2798-1.976 2.4337-2.4198 3.3601l5.3395 1.6062c0.62799-0.67507 1.2346-1.3613 1.9248-2.0053zm30.474 0-4.8445 2.9611c0.69017 0.64398 1.2963 1.3302 1.9242 2.0053l5.3395-1.6062c-0.44373-0.92638-1.19-2.0803-2.4192-3.3601zm-29.36 7.929-5.4822 0.02205c-0.5161 1.9815-0.58038 2.8242-0.66861 4.0111l5.4679-1.27c0.12578-0.60007-0.05116-0.24687 0.68294-2.7632zm28.246 0c0.7341 2.5163 0.55771 2.1631 0.68349 2.7632l5.4679 1.27c-0.0882-1.1869-0.1525-2.0296-0.6686-4.0111z" fill="url(#c)"/>
  <g transform="translate(-.094927 .12024)" fill="#8d0000">
   <path d="m91.147 35.505-0.29933 0.99778c-0.57842 1.9281 1.7756 4.4419 1.9112 5.7636 0.36263 3.5359 2.2191 4.9888 2.8406 5.4678 0 0 0.18322 0.1319 0.12678-0.84362-0.08274-1.4303-1.1931-6.4219-1.89-8.0294-0.51216-1.1813 2.3495-4.4538 2.3495-4.4538z"/>
   <path d="m130.4 35.505 0.29933 0.99778c0.57842 1.9281-1.7756 4.4419-1.9112 5.7636-0.36263 3.5359-2.2191 4.9888-2.8406 5.4678 0 0-0.18322 0.1319-0.12679-0.84362 0.0827-1.4303 1.1931-6.4219 1.89-8.0294 0.51216-1.1813-2.3495-4.4538-2.3495-4.4538z"/>
  </g>
 </g>
</svg>
