<?xml version="1.0" encoding="UTF-8" standalone="no"?>
<svg
   width="177.17"
   height="177.17"
   clip-rule="evenodd"
   fill-rule="evenodd"
   image-rendering="optimizeQuality"
   shape-rendering="geometricPrecision"
   version="1.1"
   viewBox="0 0 50 50"
   id="svg4687"
   sodipodi:docname="wLieutenant_white.svg"
   inkscape:version="1.2.1 (9c6d41e410, 2022-07-14)"
   xmlns:inkscape="http://www.inkscape.org/namespaces/inkscape"
   xmlns:sodipodi="http://sodipodi.sourceforge.net/DTD/sodipodi-0.dtd"
   xmlns="http://www.w3.org/2000/svg"
   xmlns:svg="http://www.w3.org/2000/svg">
  <defs
     id="defs4691" />
  <sodipodi:namedview
     id="namedview4689"
     pagecolor="#ffffff"
     bordercolor="#000000"
     borderopacity="0.25"
     inkscape:showpageshadow="2"
     inkscape:pageopacity="0.0"
     inkscape:pagecheckerboard="0"
     inkscape:deskcolor="#d1d1d1"
     showgrid="false"
     inkscape:zoom="3.4762658"
     inkscape:cx="52.93036"
     inkscape:cy="123.40828"
     inkscape:window-width="1920"
     inkscape:window-height="1051"
     inkscape:window-x="0"
     inkscape:window-y="0"
     inkscape:window-maximized="1"
     inkscape:current-layer="g4679" />
  <g
     transform="matrix(.66522 .66396 -.66396 .66522 94.268 31.287)"
     id="g4679"
     style="stroke:#000000;stroke-opacity:1;fill:#ffffff;fill-opacity:1;stroke-width:0.99989653;stroke-dasharray:none">
    <path
       d="m-53.701 74.162s0.82982-4.7081 0.5399-5.0905c-0.28993-0.38239-2.5399-0.27089-2.5399-0.27089 0.62314-3.2329 2.3551-5.433 0.67435-11.546l5.4255-0.42361-0.4264-2.1255-3.8861-0.23341-0.81717-28.342c-0.2568-1.274-1.7388-2.9914-2.8048-4.5676-1.066 1.5762-2.548 3.2936-2.8048 4.5676l-0.81717 28.342-3.8861 0.23341-0.4264 2.1255 5.4255 0.42361c-1.6808 6.1134 0.05121 8.3134 0.67435 11.546 0 0-2.25-0.1115-2.5399 0.27089-0.28992 0.38239 0.5399 5.0905 0.5399 5.0905h3.8346z"
       fill="#8d0000"
       id="path4675"
       style="stroke:#000000;stroke-opacity:1;fill:#ffffff;fill-opacity:1;stroke-width:1.50134614;stroke-dasharray:none" />
    <path
       d="m-57.536 24.778 1e-6 29.292"
       fill="none"
       stroke="#fff"
       stroke-width=".84664"
       id="path4677"
       style="stroke:#000000;stroke-opacity:1;fill:#ffffff;fill-opacity:1;stroke-width:0.99989653;stroke-dasharray:none" />
  </g>
  <g
     transform="matrix(-.66522 .66396 .66396 .66522 -44.268 31.287)"
     id="g4685">
    <path
       d="m-53.701 74.162s0.82982-4.7081 0.5399-5.0905c-0.28993-0.38239-2.5399-0.27089-2.5399-0.27089 0.62314-3.2329 2.3551-5.433 0.67435-11.546l5.4255-0.42361-0.4264-2.1255-3.8861-0.23341-0.81717-28.342c-0.2568-1.274-1.7388-2.9914-2.8048-4.5676-1.066 1.5762-2.548 3.2936-2.8048 4.5676l-0.81717 28.342-3.8861 0.23341-0.4264 2.1255 5.4255 0.42361c-1.6808 6.1134 0.05121 8.3134 0.67435 11.546 0 0-2.25-0.1115-2.5399 0.27089-0.28992 0.38239 0.5399 5.0905 0.5399 5.0905h3.8346z"
       fill="#8d0000"
       id="path4681"
       style="stroke:#000000;stroke-opacity:1;fill:#ffffff;fill-opacity:1;stroke-width:1.51035422;stroke-dasharray:none" />
    <path
       d="m-57.536 24.778 1e-6 29.292"
       fill="none"
       stroke="#fff"
       stroke-width=".84664"
       id="path4683"
       style="stroke:#000000;stroke-opacity:1" />
  </g>
</svg>
