<svg width="177.17" height="177.17" clip-rule="evenodd" fill-rule="evenodd" image-rendering="optimizeQuality" shape-rendering="geometricPrecision" version="1.1" viewBox="0 0 50 50" xmlns="http://www.w3.org/2000/svg">
 <g transform="matrix(.66522 .66396 -.66396 .66522 94.268 31.287)">
  <path d="m-53.701 74.162s0.82982-4.7081 0.5399-5.0905c-0.28993-0.38239-2.5399-0.27089-2.5399-0.27089 0.62314-3.2329 2.3551-5.433 0.67435-11.546l5.4255-0.42361-0.4264-2.1255-3.8861-0.23341-0.81717-28.342c-0.2568-1.274-1.7388-2.9914-2.8048-4.5676-1.066 1.5762-2.548 3.2936-2.8048 4.5676l-0.81717 28.342-3.8861 0.23341-0.4264 2.1255 5.4255 0.42361c-1.6808 6.1134 0.05121 8.3134 0.67435 11.546 0 0-2.25-0.1115-2.5399 0.27089-0.28992 0.38239 0.5399 5.0905 0.5399 5.0905h3.8346z" fill="#8d0000"/>
  <path d="m-57.536 24.778 1e-6 29.292" fill="none" stroke="#fff" stroke-width=".84664"/>
 </g>
 <g transform="matrix(-.66522 .66396 .66396 .66522 -44.268 31.287)">
  <path d="m-53.701 74.162s0.82982-4.7081 0.5399-5.0905c-0.28993-0.38239-2.5399-0.27089-2.5399-0.27089 0.62314-3.2329 2.3551-5.433 0.67435-11.546l5.4255-0.42361-0.4264-2.1255-3.8861-0.23341-0.81717-28.342c-0.2568-1.274-1.7388-2.9914-2.8048-4.5676-1.066 1.5762-2.548 3.2936-2.8048 4.5676l-0.81717 28.342-3.8861 0.23341-0.4264 2.1255 5.4255 0.42361c-1.6808 6.1134 0.05121 8.3134 0.67435 11.546 0 0-2.25-0.1115-2.5399 0.27089-0.28992 0.38239 0.5399 5.0905 0.5399 5.0905h3.8346z" fill="#8d0000"/>
  <path d="m-57.536 24.778 1e-6 29.292" fill="none" stroke="#fff" stroke-width=".84664"/>
 </g>
</svg>
