<svg width="177.17" height="177.17" clip-rule="evenodd" fill-rule="evenodd" image-rendering="optimizeQuality" shape-rendering="geometricPrecision" version="1.1" viewBox="0 0 50 50" xmlns="http://www.w3.org/2000/svg" xmlns:xlink="http://www.w3.org/1999/xlink">
 <defs>
  <linearGradient id="0-7" x1="21.253" x2="77.64" y1="37.592" y2="37.469" gradientTransform="matrix(.73293 0 0 .73293 6.6713 47.847)" gradientUnits="userSpaceOnUse">
   <stop stop-color="#fff" offset="0"/>
   <stop stop-color="#fff" stop-opacity="0" offset="1"/>
  </linearGradient>
  <linearGradient id="linearGradient6004" x1="21.664" x2="27.527" y1="34.097" y2="34.097" gradientTransform="translate(0 -3.8594)" gradientUnits="userSpaceOnUse">
   <stop stop-color="#fff" offset="0"/>
   <stop stop-color="#e4e3e3" offset="1"/>
  </linearGradient>
  <linearGradient id="linearGradient3877" x1="-95.809" x2="-54.847" y1="25.856" y2="25.856" gradientTransform="matrix(.5981 0 0 .5981 93.972 6.939)" gradientUnits="userSpaceOnUse">
   <stop stop-color="#e9e9e8" offset="0"/>
   <stop stop-color="#e9e9e8" stop-opacity="0" offset="1"/>
  </linearGradient>
  <linearGradient id="linearGradient4070" x1="-101.56" x2="-72.795" y1="24.61" y2="24.61" gradientTransform="matrix(.5981 0 0 .5981 93.969 6.6077)" gradientUnits="userSpaceOnUse">
   <stop stop-color="#fff" offset="0"/>
   <stop stop-color="#fff" stop-opacity="0" offset="1"/>
  </linearGradient>
 </defs>
 <g transform="translate(0 -.51844)">
  <g transform="matrix(1.1348 0 0 1.1348 -4.0409 -44.179)" stroke-width=".73293">
   <path d="m25.859 54.733c1.9049 0.12387 3.6647 0.6142 5.2932 1.4805 1.6198 0.85606 3.0036 1.9606 4.1455 3.3077 0.80036 0.94328 1.5516 2.0852 2.2589 3.4191 0.71388 1.3281 1.2782 2.7426 1.7004 4.2319 0.48373 1.7378 0.91669 3.5554 1.0406 5.4669 0.13046 1.9049 0.30432 6.0636 0.30432 7.6907l-22.24-0.0025c-0.06179-0.94905 1.5145-4.8899 2.2409-5.6345 0.75758-1.1761 1.5641-1.6132 2.5132-2.5938 0.54603-0.55849 0.9682-1.2599 1.2782-2.1101 0.31003-0.8436 0.44049-1.6132 0.39065-2.3087-0.44709 0.36647-0.93742 0.66404-1.4732 0.89344-2.5689 0.91836-4.4342 2.2523-5.5783 3.9959-0.08722 0.11141-0.35987 0.60174-0.81942 1.4805-0.24187 0.45955-0.45295 0.77544-0.62079 0.94328-0.22941 0.22941-0.56509 0.35987-0.99898 0.38479-0.6765 0.03079-1.2042-0.29171-1.5824-0.98653-0.50866 0.14878-0.9616 0.21108-1.3655 0.18616-0.6765-0.25435-1.1668-0.52773-1.4732-0.81944-0.62079-0.62079-1.018-1.235-1.2101-1.8558-0.18616-0.62079-0.27925-1.2848-0.27925-1.998 0-1.018 0.62666-2.3644 1.8924-4.0399 1.4805-1.9239 2.2648-3.3942 2.3578-4.3976 0-0.43463 0.04325-0.92496 0.13046-1.4732 0.07477-0.37893 0.22354-0.74026 0.45295-1.0921 0.16124-0.24187 0.26679-0.40971 0.31662-0.4962 0.0557-0.09308 0.15538-0.22941 0.30417-0.40971 0.10554-0.14879 0.19862-0.26092 0.27338-0.33495 0.06816-0.08062 0.16125-0.18616 0.27338-0.32249 0.13046-0.15538 0.29757-0.33495 0.50865-0.54604-0.64498-1.7686-0.9059-3.5928-0.78204-5.4669 2.4077 0.85606 4.4342 2.2061 6.0687 4.0524 0.40311-1.3713 1.1917-2.4824 2.3644-3.326 0.9682 0.6765 1.7378 1.5765 2.3087 2.6869" fill="#8d0000"/>
   <path d="m18.12 60.847c0.26479-0.13531 0.39428-0.20296 0.39428-0.20296 0.363-0.14185 0.4743-0.40665 0.34481-0.79438-0.14185-0.35718-0.72184-0.60481-1.1343-0.48187-0.88907 0.83654-1.3618 2.0245-2.6361 2.9763-0.08583 0.39428 0.05528 0.66489 0.43138 0.81329 0.37537 0.11713 0.62852-0.01237 0.75728-0.4001 0.09892-0.20296 0.16659-0.33899 0.21532-0.39428 0.1353 0.10475 0.30771 0.17823 0.52377 0.21533 0.73473 0.11713 1.1639-0.20296 1.281-0.97333 0.03709-0.26479-0.02473-0.51722-0.17895-0.75728m-2.9935 12.195c0.04293-0.11058 0.12294-0.27134 0.23424-0.48667 0.20296-0.50485 0.65816-0.69986 0.65816-0.7988-0.01818-0.33244-0.39308-0.55829-0.71971-0.55829-0.24006 0-0.67754 0.29137-1.0042 0.97518-0.04948 0.09893-0.12294 0.18477-0.21533 0.25242-0.32663 0.33899-0.27716 0.62197 0.14185 0.84966 0.38773 0.22769 0.68381 0.15422 0.90568-0.23424m10.643-6.6947c0.84385-1.1086 1.2563-2.3402 1.2439-3.6955-0.04948-0.4001-0.27716-0.59724-0.68381-0.59724-0.55432 0-0.76964 0.20296-0.65325 0.6096 0.03709 0.66489-0.02473 1.2134-0.19714 1.6448-0.27716 0.6838-0.58487 1.1945-0.91732 1.5335-0.18477 0.36373-0.0742 0.62852 0.32663 0.79438 0.38191 0.17823 0.67726 0.08657 0.88094-0.28953m-4.7117-8.8094c-0.05528-0.43138-0.04292-0.89913 0.03709-1.404-0.72091 0.14185-1.3982 0.48012-2.0383 1.0104-0.38191 0.20296-0.4743 0.48666-0.27134 0.84966 0.20296 0.36955 0.48667 0.43138 0.84966 0.17896 0.25243-0.13531 0.48667-0.25898 0.69617-0.36955 0.20951-0.11711 0.44957-0.20296 0.72672-0.26479m17.449 20.976c0.13983-3.0691-0.69241-9.1463-1.0968-10.672-0.61106-2.4079-1.5451-4.7175-2.9622-6.7624-1.9161-2.7971-4.9569-4.3865-8.21-5.0747 0.09166 0.55723 0.02401 1.1203 0.05528 1.6811 1.1639 0.39428 2.2667 0.88676 3.3012 1.4782 3.0851 1.8579 4.6659 5.2922 5.2355 8.6785 0.72522 4.5339 0.52964 6.5591 0.59142 10.672m-21.847-8.6821c0.34481-0.24661 0.38191-0.52959 0.10475-0.86858-0.28953-0.27716-0.60378-0.30189-0.95442-0.0742-0.73473 0.48012-1.1268 1.1145-1.1763 1.8972 0.01236 0.39428 0.25243 0.58487 0.70854 0.56087 0.43138-0.0371 0.64088-0.25897 0.62852-0.67144 0.0982-0.38191 0.32663-0.66489 0.68962-0.84384" fill="url(#0-7)"/>
  </g>
  <path d="m25.99 21.325c-0.10634-0.02747-1.567 1.8444-4.4729 5.2422l-2.5987-5.2321c-0.52396 0.39531-0.40875 0.30486-1.2093 0.54038l2.959 5.6871c-1.4699 1.7242-2.936 3.4564-4.2839 5.064l-4.9475-3.5296c-0.25593 0.6044-0.31683 0.78146-0.89218 1.3859l4.8906 3.2801c-1.7864 2.1427-3.1392 3.7997-3.2454 4.0219-0.05487 0.10974-0.13636 0.20471-0.23884 0.27975-0.36229 0.37601-0.30777 0.69033 0.157 0.94289 0.42969 0.25233 0.75779 0.17059 1.0038-0.2593 0.04761-0.12265 6.9958-8.1862 7.1192-8.425 0.22512-0.55998 7.1675-7.8501 7.2957-8.43-0.36208-0.17643-1.1743-0.47456-1.5366-0.56817z" fill="url(#linearGradient6004)" stroke-width=".80689"/>
 </g>
 <path d="m-81.79 53.666v-43.746" color="#000000" fill="#1f1a17" stroke-width="1.6933" style="-inkscape-stroke:none"/>
 <path d="m5.869 3.8146 4.4592 7.4972c0.54713-0.22201 1.0925-0.36589 1.6421-0.69987l31.82 29.568 1.1526-1.2404-31.829-29.576c0.2783-0.5591 0.38147-1.1013 0.55879-1.6508z" color="#000000" fill="#8d0000" style="-inkscape-stroke:none"/>
 <circle cx="33.986" cy="22.403" r="11.23" fill="#8d0000" style="paint-order:stroke fill markers"/>
 <circle cx="33.986" cy="22.403" r="9.0753" fill="none" stroke="url(#linearGradient3877)" stroke-linecap="round" stroke-linejoin="round" stroke-width="1.0128" style="paint-order:stroke fill markers"/>
 <path d="m33.002 15.932-5.2781 10.791h2.0258l4.2367-8.7578 4.2363 8.7578h2.0262l-5.2784-10.791h-1.9675z" color="#000000" fill="url(#linearGradient4070)" stroke-width=".5981"/>
</svg>
