<?xml version="1.0" encoding="UTF-8" standalone="no"?>
<svg
   height="45"
   width="45"
   version="1.1"
   id="svg18"
   sodipodi:docname="bK.svg"
   inkscape:version="1.2.1 (9c6d41e410, 2022-07-14)"
   xmlns:inkscape="http://www.inkscape.org/namespaces/inkscape"
   xmlns:sodipodi="http://sodipodi.sourceforge.net/DTD/sodipodi-0.dtd"
   xmlns="http://www.w3.org/2000/svg"
   xmlns:svg="http://www.w3.org/2000/svg">
  <defs
     id="defs22" />
  <sodipodi:namedview
     id="namedview20"
     pagecolor="#ffffff"
     bordercolor="#000000"
     borderopacity="0.25"
     inkscape:showpageshadow="2"
     inkscape:pageopacity="0.0"
     inkscape:pagecheckerboard="0"
     inkscape:deskcolor="#d1d1d1"
     showgrid="false"
     inkscape:zoom="18.377778"
     inkscape:cx="22.472793"
     inkscape:cy="22.472793"
     inkscape:window-width="1920"
     inkscape:window-height="1007"
     inkscape:window-x="0"
     inkscape:window-y="0"
     inkscape:window-maximized="1"
     inkscape:current-layer="g16" />
  <g
     style="fill:none;fill-rule:evenodd;stroke:#000;stroke-width:1.5;stroke-linecap:round;stroke-linejoin:round"
     id="g16">
    <path
       d="m22.5 11.63v-5.63"
       stroke-linejoin="miter"
       id="path2"
       style="stroke:#6e2828;stroke-opacity:1" />
    <path
       d="m22.5 25s4.5-7.5 3-10.5c0 0-1-2.5-3-2.5s-3 2.5-3 2.5c-1.5 3 3 10.5 3 10.5"
       fill="#000"
       stroke-linecap="butt"
       stroke-linejoin="miter"
       id="path4"
       style="stroke:#6e2828;stroke-opacity:1;fill:#6e2828;fill-opacity:1" />
    <path
       d="m11.5 37c5.5 3.5 15.5 3.5 21 0v-7s9-4.5 6-10.5c-4-6.5-13.5-3.5-16 4v3.5-3.5c-3.5-7.5-13-10.5-16-4-3 6 5 10 5 10z"
       fill="#000"
       id="path6"
       style="fill:#6e2828;fill-opacity:1;stroke:#6e2828;stroke-opacity:1" />
    <path
       d="m20 8h5"
       stroke-linejoin="miter"
       id="path8"
       style="stroke:#6e2828;stroke-opacity:1" />
    <g
       stroke="#ececec"
       id="g14">
      <path
         d="m32 29.5s8.5-4 6.03-9.65c-3.88-5.85-13.03-1.85-15.53 4.65l.01 2.1-.01-2.1c-2.5-6.5-12.594-10.5-15.503-4.65-2.497 5.65 4.853 9 4.853 9"
         id="path10" />
      <path
         d="m11.5 30c5.5-3 15.5-3 21 0m-21 3.5c5.5-3 15.5-3 21 0m-21 3.5c5.5-3 15.5-3 21 0"
         id="path12" />
    </g>
  </g>
</svg>
