<?xml version="1.0" encoding="UTF-8" standalone="no"?>
<svg
   height="45"
   width="45"
   version="1.1"
   id="svg26"
   sodipodi:docname="bNM_gray.svg"
   inkscape:version="1.2.1 (9c6d41e410, 2022-07-14)"
   xmlns:inkscape="http://www.inkscape.org/namespaces/inkscape"
   xmlns:sodipodi="http://sodipodi.sourceforge.net/DTD/sodipodi-0.dtd"
   xmlns="http://www.w3.org/2000/svg"
   xmlns:svg="http://www.w3.org/2000/svg">
  <defs
     id="defs30" />
  <sodipodi:namedview
     id="namedview28"
     pagecolor="#ffffff"
     bordercolor="#000000"
     borderopacity="0.25"
     inkscape:showpageshadow="2"
     inkscape:pageopacity="0.0"
     inkscape:pagecheckerboard="0"
     inkscape:deskcolor="#d1d1d1"
     showgrid="false"
     inkscape:zoom="19.355556"
     inkscape:cx="22.525832"
     inkscape:cy="22.525832"
     inkscape:window-width="1920"
     inkscape:window-height="1051"
     inkscape:window-x="0"
     inkscape:window-y="0"
     inkscape:window-maximized="1"
     inkscape:current-layer="g14" />
  <g
     transform="matrix(.75 0 0 .75 13.11075 23.35875)"
     id="g14">
    <path
       d="m 13.087878,-18.196674 c 0,0 4.5,-1.557497 3,-4.557497 0,0 -1,-2.5 -3,-2.5 -2,0 -3,2.5 -3,2.5 -1.4999998,3 3,4.557497 3,4.557497"
       id="path2"
       style="fill:#4b4b4b;fill-opacity:1" />
    <path
       d="m 2.0878782,-3.895 c 5.8630816,-3.5800921 15.8094588,-2.5344456 20.9999998,0 v -3.4996738 c 0,0 9,-4.5000002 6,-10.5000002 -4,-6.5 -13.5,-4.257 -16.5,-4.257 -2.9999998,0 -12.49999984,-2.243 -15.4999998,4.257 -3,6 5,10.0000002 5,10.0000002 z"
       stroke="#3e588a"
       stroke-width="2"
       id="path4"
       style="fill:#4b4b4b;fill-opacity:1;stroke:#4b4b4b;stroke-opacity:1" />
    <path
       d="m 22.587878,-7.8946738 c 0,0 8.5,-4.0000002 6.03,-9.6500002 -3.88,-5.85 -13.03,-3.554632 -15.53,-3.554632 -2.5,0 -12.59399984,-2.295368 -15.5029998,3.554632 -2.497,5.65 4.853,9.0000002 4.853,9.0000002"
       stroke="#ececec"
       stroke-width="1.33333"
       id="path6"
       style="fill:#4b4b4b;fill-opacity:1" />
    <path
       d="m2.0878782-7.3946738c5.5-3.0000002 15.4999998-3.0000002 20.9999998 0"
       fill="none"
       stroke="#ececec"
       stroke-width="1.333333"
       id="path10" />
    <path
       d="m2.0878782-3.895c5.5-3.0000002 15.4999998-3.0000002 20.9999998 0"
       fill="none"
       stroke="#ececec"
       stroke-width="1.333333"
       id="path12" />
  </g>
  <g
     style="fill:none;fill-rule:evenodd;stroke:#000;stroke-width:1.5;stroke-linecap:round;stroke-linejoin:round"
     transform="matrix(.75 0 0 .75 5.676659 9.9375)"
     id="g22">
    <path
       d="m22 10c10.5 1 16.5 8 16 29h-23c0-9 10-6.5 8-21"
       fill="#000"
       id="path16" />
    <path
       d="m24 18c.38 2.91-5.55 7.37-8 9-3 2-2.82 4.34-5 4-1.042-.94 1.41-3.04 0-3-1 0 .19 1.23-1 2-1 0-4.003 1-4-4 0-2 6-12 6-12s1.89-1.9 2-3.5c-.73-.994-.5-2-.5-3 1-1 3 2.5 3 2.5h2s.78-1.992 2.5-3c1 0 1 3 1 3"
       fill="#000"
       id="path18" />
    <path
       d="m9.5 25.5a.5.5 0 1 1 -1 0 .5.5 0 1 1 1 0zm5.433-9.75a.5 1.5 30 1 1 -.866-.5.5 1.5 30 1 1 .866.5z"
       fill="#ececec"
       stroke="#ececec"
       id="path20" />
  </g>
  <path
     d="m23.731213 17.570471-.337496 1.087501.374999.112501c2.3625.75 4.237501 1.8675 5.925 5.0625 1.687501 3.195 2.437501 7.7325 2.062501 15.1875l-.0375.374999h1.687499l.0375-.375002c.375006-7.544999-.659994-12.637499-2.437495-16.004999-1.777499-3.3675-4.342499-4.979999-6.892499-5.37z"
     fill="#ececec"
     id="path24" />
</svg>
