<?xml version="1.0" encoding="UTF-8" standalone="no"?>
<svg
   height="45"
   width="45"
   version="1.1"
   id="svg2115"
   sodipodi:docname="wNM_gray.svg"
   inkscape:version="1.2.1 (9c6d41e410, 2022-07-14)"
   xmlns:inkscape="http://www.inkscape.org/namespaces/inkscape"
   xmlns:sodipodi="http://sodipodi.sourceforge.net/DTD/sodipodi-0.dtd"
   xmlns="http://www.w3.org/2000/svg"
   xmlns:svg="http://www.w3.org/2000/svg">
  <defs
     id="defs2119" />
  <sodipodi:namedview
     id="namedview2117"
     pagecolor="#ffffff"
     bordercolor="#000000"
     borderopacity="0.25"
     inkscape:showpageshadow="2"
     inkscape:pageopacity="0.0"
     inkscape:pagecheckerboard="0"
     inkscape:deskcolor="#d1d1d1"
     showgrid="false"
     inkscape:zoom="6.8432223"
     inkscape:cx="6.2835895"
     inkscape:cy="24.257578"
     inkscape:window-width="1920"
     inkscape:window-height="1051"
     inkscape:window-x="0"
     inkscape:window-y="0"
     inkscape:window-maximized="1"
     inkscape:current-layer="svg2115" />
  <path
     d="m 22.5,9.4766565 c 0,0 3.375,-1.1681228 2.25,-3.4181228 0,0 -0.75,-1.875 -2.25,-1.875 -1.5,0 -2.25,1.875 -2.25,1.875 -1.125,2.25 2.25,3.4181228 2.25,3.4181228"
     stroke="#d35f5f"
     stroke-linecap="butt"
     stroke-linejoin="miter"
     id="path2091"
     style="fill:#4b4b4b;fill-rule:evenodd;stroke-width:1.125;fill-opacity:1;stroke:#000000;stroke-opacity:1" />
  <path
     d="m 14.25,20.202912 c 4.397311,-2.685069 11.857094,-1.900834 15.75,0 v -2.624755 c 0,0 6.75,-3.375001 4.5,-7.8750005 -3,-4.875 -10.125,-3.19275 -12.375,-3.19275 -2.25,0 -9.375,-1.68225 -11.625,3.19275 -2.2500003,4.4999995 3.75,7.5000005 3.75,7.5000005 z"
     stroke="#d35f5f"
     stroke-width="1.5"
     id="path2093"
     style="fill:#ffffff;fill-rule:evenodd;stroke-linecap:round;stroke-linejoin:round;stroke:#4b4b4b;stroke-opacity:1;fill-opacity:1" />
  <path
     d="m 29.625,17.203157 c 0,0 6.375,-3.000001 4.5225,-7.2375005 -2.91,-4.3875 -9.7725,-2.665974 -11.6475,-2.665974 -1.875,0 -9.4455,-1.721526 -11.62725,2.665974 -1.8727503,4.2374995 3.63975,6.7500005 3.63975,6.7500005"
     stroke="#ececec"
     stroke-width="0.999997"
     id="path2095"
     style="fill:#ffffff;fill-rule:evenodd;stroke-linecap:round;stroke-linejoin:round;stroke:#000000;stroke-opacity:1;fill-opacity:1" />
  <path
     d="m 14.25,17.578157 c 4.125,-2.250001 11.625,-2.250001 15.75,0"
     fill="none"
     stroke="#ececec"
     stroke-width="0.999997"
     id="path2099"
     style="fill-rule:evenodd;stroke-linecap:round;stroke-linejoin:round;stroke:#4b4b4b;stroke-opacity:1" />
  <path
     d="m 14.25,20.202912 c 4.125,-2.25 11.625,-2.25 15.75,0"
     fill="none"
     stroke="#ececec"
     stroke-width="0.999997"
     id="path2101"
     style="fill-rule:evenodd;stroke-linecap:round;stroke-linejoin:round;stroke:#4b4b4b;stroke-opacity:1" />
  <g
     stroke="#000000"
     stroke-width="2"
     id="g2111"
     transform="matrix(0.75,0,0,0.75,5.273555,9.75)"
     style="fill:none;fill-rule:evenodd;stroke-linecap:round;stroke-linejoin:round">
    <path
       d="m 22,10 c 10.5,1 16.5,8 16,29 H 15 c 0,-9 10,-6.5 8,-21"
       fill="#ffffff"
       id="path2105" />
    <path
       d="m 24,18 c 0.38,2.91 -5.55,7.37 -8,9 -3,2 -2.82,4.34 -5,4 C 9.958,30.06 12.295259,28.894523 10.885259,28.934523 9.885259,28.934523 11.19,29.23 10,30 9,30 5.997,31 6,26 c 0,-2 6,-12 6,-12 0,0 1.89,-1.9 2,-3.5 -0.73,-0.994 -0.5,-2 -0.5,-3 1,-1 3,2.5 3,2.5 h 2 c 0,0 0.78,-1.992 2.5,-3 1,0 1,3 1,3"
       fill="#ffffff"
       id="path2107" />
    <path
       d="m 9.5,25.5 a 0.5,0.5 0 1 1 -1,0 0.5,0.5 0 1 1 1,0 z m 5.433,-9.75 a 0.5,1.5 30 1 1 -0.866,-0.5 0.5,1.5 30 1 1 0.866,0.5 z"
       fill="#000080"
       id="path2109"
       style="fill:#000000;fill-opacity:1" />
  </g>
</svg>
