<?xml version="1.0" encoding="UTF-8" standalone="no"?>
<svg
   id="svg2"
   height="45"
   width="45"
   version="1.1"
   viewBox="0 0 45 45"
   inkscape:version="1.2.1 (9c6d41e410, 2022-07-14)"
   sodipodi:docname="bwildebeest.svg"
   inkscape:export-filename="S:\Greg\Projects\Chess\CVP\Graphics\Alfaerie SVG\WWildebeest.png"
   inkscape:export-xdpi="18.75"
   inkscape:export-ydpi="18.75"
   xmlns:inkscape="http://www.inkscape.org/namespaces/inkscape"
   xmlns:sodipodi="http://sodipodi.sourceforge.net/DTD/sodipodi-0.dtd"
   xmlns="http://www.w3.org/2000/svg"
   xmlns:svg="http://www.w3.org/2000/svg"
   xmlns:rdf="http://www.w3.org/1999/02/22-rdf-syntax-ns#"
   xmlns:cc="http://creativecommons.org/ns#"
   xmlns:dc="http://purl.org/dc/elements/1.1/">
  <defs
     id="defs9">
    <inkscape:perspective
       sodipodi:type="inkscape:persp3d"
       inkscape:vp_x="0 : -2002.5 : 1"
       inkscape:vp_y="0 : 0.48828125 : 0"
       inkscape:vp_z="1 : -2002.5 : 1"
       inkscape:persp3d-origin="0.5 : -2002.6667 : 1"
       id="perspective10" />
    <inkscape:perspective
       id="perspective2845"
       inkscape:persp3d-origin="0.00024414062 : -2002.9998 : 1"
       inkscape:vp_z="0.00048828125 : -2002.9998 : 1"
       inkscape:vp_y="0 : 0.48828125 : 0"
       inkscape:vp_x="0 : -2002.9998 : 1"
       sodipodi:type="inkscape:persp3d" />
    <inkscape:perspective
       id="perspective3641"
       inkscape:persp3d-origin="0.00024414062 : -2002.9998 : 1"
       inkscape:vp_z="0.00048828125 : -2002.9998 : 1"
       inkscape:vp_y="0 : 0.48828125 : 0"
       inkscape:vp_x="0 : -2002.9998 : 1"
       sodipodi:type="inkscape:persp3d" />
    <inkscape:perspective
       id="perspective3641-5"
       inkscape:persp3d-origin="0.00024414062 : -2002.9998 : 1"
       inkscape:vp_z="0.00048828125 : -2002.9998 : 1"
       inkscape:vp_y="0 : 0.48828125 : 0"
       inkscape:vp_x="0 : -2002.9998 : 1"
       sodipodi:type="inkscape:persp3d" />
    <inkscape:perspective
       id="perspective3703"
       inkscape:persp3d-origin="0.00024414062 : -2002.9998 : 1"
       inkscape:vp_z="0.00048828125 : -2002.9998 : 1"
       inkscape:vp_y="0 : 0.48828125 : 0"
       inkscape:vp_x="0 : -2002.9998 : 1"
       sodipodi:type="inkscape:persp3d" />
    <inkscape:perspective
       id="perspective2830"
       inkscape:persp3d-origin="0.00024414062 : -2002.9998 : 1"
       inkscape:vp_z="0.00048828125 : -2002.9998 : 1"
       inkscape:vp_y="0 : 0.48828125 : 0"
       inkscape:vp_x="0 : -2002.9998 : 1"
       sodipodi:type="inkscape:persp3d" />
  </defs>
  <sodipodi:namedview
     pagecolor="#ffffff"
     bordercolor="#666666"
     borderopacity="1"
     objecttolerance="10"
     gridtolerance="10"
     guidetolerance="10"
     inkscape:pageopacity="0"
     inkscape:pageshadow="2"
     inkscape:window-width="1920"
     inkscape:window-height="1051"
     id="namedview7"
     showgrid="false"
     inkscape:zoom="10.24"
     inkscape:cx="-7.2265625"
     inkscape:cy="31.347656"
     inkscape:window-x="0"
     inkscape:window-y="0"
     inkscape:window-maximized="1"
     inkscape:current-layer="layer3"
     inkscape:document-rotation="0"
     inkscape:showpageshadow="2"
     inkscape:pagecheckerboard="0"
     inkscape:deskcolor="#d1d1d1" />
  <metadata
     id="metadata12">
    <rdf:RDF>
      <cc:Work
         rdf:about="">
        <dc:format>image/svg+xml</dc:format>
        <dc:type
           rdf:resource="http://purl.org/dc/dcmitype/StillImage" />
      </cc:Work>
    </rdf:RDF>
  </metadata>
  <g
     inkscape:groupmode="layer"
     id="layer4"
     inkscape:label="Lower Horn"
     style="display:inline" />
  <g
     inkscape:groupmode="layer"
     id="layer2"
     inkscape:label="Head"
     style="display:inline;opacity:1" />
  <g
     inkscape:groupmode="layer"
     id="layer3"
     inkscape:label="Head 1"
     style="display:inline">
    <path
       style="display:inline;fill:#000000;fill-opacity:1;stroke:#000000;stroke-width:0.933121;stroke-linecap:butt;stroke-linejoin:miter;stroke-miterlimit:4;stroke-dasharray:none;stroke-opacity:1"
       d="M 15.662465,14.782388 C 15.15563,14.633033 15.440827,13.737906 15.206976,13.264089 15.041198,12.928197 14.816965,12.614884 14.549046,12.35311 14.314759,12.124195 14.030054,11.947222 13.739287,11.7964 13.308113,11.57275 12.828229,11.459212 12.372818,11.2903 11.782266,11.071265 11.172662,10.897827 10.601469,10.632371 10.197285,10.444531 9.7922746,10.244146 9.4374399,9.9744414 9.1905197,9.7867608 8.9584315,9.5698512 8.7795104,9.3165118 8.5531492,8.9960008 8.3598867,8.636441 8.2734106,8.2537026 c -0.096666,-0.4278353 -0.079384,-0.8844829 0,-1.315859 C 8.3420237,6.5649984 8.4667655,6.1896427 8.6782905,5.8750344 8.871424,5.5877807 9.1374953,5.3392614 9.4374399,5.1664947 9.9415101,4.8761527 10.532144,4.7456662 11.107569,4.6603952 c 0.550696,-0.081607 1.096213,-0.095357 1.670128,0 0.09704,0.016123 0.141097,0.155269 0.15183,0.2530499 0.0058,0.053029 -0.01449,0.1125722 -0.05061,0.1518298 -0.08699,0.094544 -0.228415,0.1259974 -0.354269,0.15183 -0.18178,0.037312 -0.371143,-9.681e-4 -0.55671,0 -0.308726,0.00161 -0.858252,0.078366 -1.178852,0.223403 C 10.441163,5.5979049 10.251818,5.759992 10.04476,5.9880074 9.815584,6.2403789 9.6729844,6.4053213 9.5207665,6.8662704 9.449312,7.08265 9.4522103,7.3714631 9.4911198,7.6198066 c 0.037599,0.2399803 0.1109565,0.4853156 0.2499799,0.684506 0.164422,0.2355809 0.4180913,0.3985615 0.6579293,0.5567096 0.220446,0.145361 0.463535,0.2557875 0.70854,0.3542698 0.497445,0.1999534 1.019751,0.3325049 1.536192,0.4764528 0.580054,0.1616787 1.170459,0.2838028 1.753455,0.4345262 0.336246,0.08693 0.679668,0.152256 1.006059,0.270943 0.228277,0.08301 0.458048,0.173273 0.661,0.30673 0.197946,0.130166 0.362833,0.305644 0.530133,0.473383 0.234747,0.235364 0.450902,0.489034 0.662271,0.745598 0.325581,0.395197 1.150709,0.536189 0.126525,1.391774 -0.578565,0.483323 -0.9976,1.680784 -1.720739,1.467689 z"
       id="path844"
       inkscape:connector-curvature="0"
       sodipodi:nodetypes="aaaaaaaaaaaaasaaassasaaaaaaaaassa" />
    <path
       style="display:inline;fill:#000000;fill-opacity:1;stroke:#000000;stroke-width:1.39968;stroke-linecap:butt;stroke-linejoin:miter;stroke-miterlimit:4;stroke-dasharray:none;stroke-opacity:1"
       d="m 13.984993,31.280514 -2.361918,1.717759 c -0.715733,0.310151 -1.431466,0.620302 -2.1471994,0.930453 H 8.6885696 C 8.4261341,33.737863 8.1636987,33.547002 7.9012632,33.356139 7.6306411,32.486881 7.2830504,30.899345 7.0124284,30.030087 c 0.1273552,-0.809014 -0.033326,-1.158405 0.1250352,-2.1779 0.1326071,-0.842886 0.5998878,-2.405384 0.7625856,-2.973963 0.2187092,-0.764319 0.6284212,-1.873327 0.7820718,-2.401357 0.2084495,-0.716347 0.4829565,-1.656056 0.7526565,-2.391806 0.3084341,-0.841418 0.6869845,-1.492485 0.9043195,-1.935705 0.302348,-0.477096 0.56148,-1.068471 0.877214,-1.479174 0.309688,-0.40284 0.860514,-1.004013 1.126838,-1.358453 0.338576,-0.254329 0.591932,-0.570172 1.036446,-0.819365 0.261319,-0.146495 0.708756,-0.397502 1.004333,-0.449317 0.463269,-0.129241 0.703661,-0.22226 1.079705,-0.395638 0.376044,-0.173378 0.599291,-0.233718 0.823729,-0.355425 0.224439,-0.121707 0.482128,-0.207679 0.763229,-0.31336 0.348312,-0.130949 0.407957,-0.146593 0.846679,-0.247016 0.339883,-0.106486 0.603862,-0.141932 0.954328,-0.2183 0.156256,-0.03405 0.640051,-0.105933 1.027897,-0.173235 0.793377,-0.137672 1.447397,-0.24294 1.818793,-0.28313 0.782641,-0.07267 1.204902,-0.158055 1.829366,-0.167306 0.733962,-0.01087 1.609844,-0.04359 2.704311,-0.0561 0.862498,-0.01555 1.592145,-0.02477 2.321792,8.07e-4 0.729645,0.02557 1.459292,0.08594 2.32179,0.209572 0.682489,0.09109 1.394626,0.517284 1.773457,0.937338 0.468152,0.534127 0.955099,1.277016 1.225426,1.839942 0.364585,1.274508 0.699848,1.157968 0.839716,1.862704 0.165806,0.498544 0.470897,0.982542 0.595056,1.5222 0.135347,0.588275 0.304863,1.123959 0.365042,1.686598 0.15703,0.764073 0.185367,1.120188 0.228169,1.738343 0.04434,0.640315 0.05505,1.037032 0.09376,1.503513 0.03859,0.465063 -0.0024,0.801215 0.02236,1.418349 0,0 0.05068,0.482281 0.112217,0.895311 0.03576,0.387259 0.0691,0.815072 0.156407,1.38275 0.251864,0.870056 0.274352,1.51908 1.201581,3.240812 -1.703401,-0.569622 -1.768951,-0.362602 -1.817042,0.206707 -0.02982,0.310151 0.74276,2.197319 1.607603,3.366349 -0.81912,-0.188871 -2.242624,-1.487542 -2.272447,-1.177391 l -0.166035,0.8053 c -0.0052,0.567785 0.06624,1.274062 0.137311,1.676751 0.145096,0.70236 0.332199,1.331207 0.551403,1.660403 0,0 0.302354,0.60763 0.768934,1.296693 0.489657,0.618239 0.877339,0.737308 1.617173,1.840708 -0.715734,-0.01789 -1.509116,-0.05623 -3.275647,-0.501602 -0.571924,-0.219029 -1.232516,-0.474511 -1.823662,-0.873798 -0.354882,-0.24305 -0.85026,-0.520563 -1.40197,-0.924653 l -1.383415,-1.299749 c 0,0 0.04394,1.056234 0.11849,1.736181 0.01491,0.417511 0.284201,0.948684 0.54962,1.54513 -0.764679,-0.437947 -1.474458,-0.602437 -2.051518,-1.073626 -0.516751,-0.383711 -1.256161,-0.890867 -1.700012,-1.456164 0.04142,0.76743 0.09278,1.990273 0.351574,2.719263 -1.365863,-0.660734 -3.027954,-2.256691 -3.027954,-2.256691 l 0.219362,2.010022 c 0,0 -1.497743,-0.382362 -2.223415,-0.644821 -0.417787,-0.151105 -0.835645,-0.313079 -1.221388,-0.533485 -0.326469,-0.186537 -0.660328,-0.383601 -0.913843,-0.661284 -0.414288,-0.453781 -0.649187,-1.044368 -0.94058,-1.585333 -0.329563,-0.611827 -0.534709,-1.291146 -0.911896,-1.874818 -0.303406,-0.469502 -0.715733,-0.811165 -1.073599,-1.288321 0,0 -0.496208,1.176312 -0.930453,1.62445 -0.253423,0.261531 -0.582388,0.465474 -0.930453,0.572586 -0.502172,0.154537 -1.049249,0.07875 -1.574613,0.07157 -0.884995,-0.01209 -1.765474,-0.09755 -2.648212,-0.192981 -0.214719,-0.143148 -0.429439,-0.286293 -0.644159,-0.429441 1.16903,-1.04974 2.338061,-2.099483 3.507091,-3.149223 z"
       id="path834"
       inkscape:connector-curvature="0"
       sodipodi:nodetypes="cccccccssscscscssscsscscsccccscsscccccccccccccccccccccccaaaaacaaaccc" />
    <path
       style="fill:none;stroke:#000000;stroke-width:1.39968;stroke-linecap:butt;stroke-linejoin:miter;stroke-miterlimit:4;stroke-dasharray:none;stroke-opacity:1"
       d="m 34.835585,33.840529 c 0,0 0.258136,-8.298552 0.258136,-9.261473 0,-0.759147 -0.07817,-3.635477 -0.177134,-4.719377 -0.09239,-1.011892 -0.733846,-4.21328 -0.733846,-4.21328"
       id="path841"
       inkscape:connector-curvature="0"
       sodipodi:nodetypes="cssc" />
    <path
       style="display:inline;fill:#000000;fill-opacity:1;stroke:#000000;stroke-width:0.933121;stroke-linecap:butt;stroke-linejoin:miter;stroke-miterlimit:4;stroke-dasharray:none;stroke-opacity:1"
       d="m 28.199064,14.153916 c 0.355297,-0.252938 0.462874,-0.752049 0.710639,-1.117349 0.210256,-0.309997 0.390012,-0.649205 0.65793,-0.910979 0.234288,-0.228915 0.518992,-0.405888 0.80976,-0.556709 0.431174,-0.223651 0.911058,-0.337188 1.36647,-0.5061 0.590551,-0.219035 1.200155,-0.392474 1.771348,-0.65793 0.404184,-0.18784 0.809194,-0.388225 1.164029,-0.6579292 0.246921,-0.1876805 0.479009,-0.4045901 0.65793,-0.6579295 0.226361,-0.3205111 0.419622,-0.6800709 0.506099,-1.0628092 0.09667,-0.4278354 0.07938,-0.884483 0,-1.3158591 C 35.774657,6.3374769 35.649915,5.9621212 35.438388,5.6475129 35.245255,5.3602592 34.979185,5.1117399 34.67924,4.9389732 34.175171,4.6486311 33.584535,4.5181446 33.009112,4.4328737 c -0.550698,-0.081607 -1.096214,-0.095357 -1.670131,0 -0.09704,0.016123 -0.141095,0.155269 -0.151828,0.2530498 -0.0058,0.053029 0.01449,0.1125722 0.05061,0.1518298 0.08699,0.094545 0.228414,0.1259975 0.354269,0.15183 0.181779,0.037312 0.371142,-9.681e-4 0.55671,0 0.308725,0.00161 0.858252,0.078366 1.178851,0.223403 0.347924,0.157397 0.537268,0.3194841 0.744328,0.5474995 0.229174,0.2523715 0.371774,0.417314 0.523992,0.878263 0.07146,0.2163797 0.06856,0.5051928 0.02965,0.7535362 -0.0376,0.2399804 -0.110957,0.4853157 -0.249981,0.684506 -0.16442,0.2355809 -0.418092,0.3985615 -0.657929,0.5567097 -0.220446,0.1453609 -0.463535,0.2557874 -0.708538,0.3542697 -0.497447,0.1999534 -1.019752,0.3325049 -1.536193,0.4764529 -0.580054,0.1616786 -1.17046,0.2838027 -1.753456,0.4345265 -0.336245,0.086931 -0.679667,0.1522562 -1.006058,0.2709432 -0.228277,0.08301 -0.458049,0.173272 -0.661,0.30673 -0.197945,0.130166 -0.362833,0.305643 -0.530134,0.473383 -0.234746,0.235364 -0.450901,0.489033 -0.662271,0.745597 -0.32558,0.395197 -0.445962,1.141994 -0.162975,1.610475 0.505666,0.592673 1.033642,1.181492 1.502039,0.848038 z"
       id="path844-3"
       inkscape:connector-curvature="0"
       sodipodi:nodetypes="saaaaaaaaaaaasaaassasaaaaaaaaascs" />
    <path
       style="fill:#ffffff;stroke:#ffffff;stroke-width:0.23328;stroke-linecap:butt;stroke-linejoin:round;stroke-miterlimit:4;stroke-dasharray:none;stroke-opacity:1;fill-opacity:1"
       d="m 7.4544461,31.017807 c -0.113559,0.06301 -0.2530541,0.08006 -0.3827255,0.0729 -0.1650069,-0.0091 -0.3157302,-0.09776 -0.4738506,-0.1458 -0.1213711,-0.03688 -0.2531817,-0.04853 -0.3645005,-0.10935 -0.098302,-0.05371 -0.1921257,-0.126095 -0.2551503,-0.2187 -0.046797,-0.06876 -0.063652,-0.154595 -0.081555,-0.235821 -0.019794,-0.08981 -0.035941,-0.18288 -0.027795,-0.27448 0.00783,-0.08811 0.022097,-0.182742 0.0729,-0.25515 0.077472,-0.110421 0.2126747,-0.167047 0.3280505,-0.236924 0.104573,-0.06334 0.2162828,-0.11448 0.3280504,-0.164027 0.1072609,-0.04755 0.2196758,-0.08262 0.3280504,-0.127574 0.2085311,-0.08649 0.4078498,-0.195227 0.6196508,-0.273376 0.1190075,-0.04391 0.2403181,-0.08347 0.3645005,-0.10935 0.149748,-0.03121 0.3032025,-0.04181 0.4556256,-0.05468 0.1311938,-0.01107 0.2629829,-0.01334 0.394507,-0.01933 0.1357773,-0.0062 0.2614272,-0.03427 0.407394,-0.01712 0.076795,0.009 0.1344352,0.09259 0.1640252,0.164027 0.013949,0.03368 0.00325,0.07304 0,0.10935 -0.00323,0.03614 0.00136,0.07732 -0.01933,0.107139 -0.027955,0.04028 -0.081773,0.05496 -0.1264697,0.07511 -0.059528,0.02684 -0.1257318,0.03607 -0.1864826,0.06001 -0.1048693,0.04134 -0.1277747,0.03534 -0.1857012,0.0729 -0.080466,0.05217 -0.1118439,0.146036 -0.1799048,0.24337 -0.053028,0.07583 -0.1080377,0.158096 -0.1885043,0.203789 -0.1015317,0.05766 -0.2156795,0.106254 -0.3162686,0.171575 -0.089998,0.05844 -0.1893722,0.111417 -0.2553402,0.196053 -0.056455,0.07243 -0.1072354,0.161062 -0.1093501,0.252872 -0.00202,0.0875 -0.059863,0.215907 -0.1161846,0.302993 -0.054109,0.08366 -0.1104703,0.163439 -0.1936408,0.209586 z"
       id="path866"
       inkscape:connector-curvature="0"
       sodipodi:nodetypes="aaaaaaaaaaaaaaasaaaassssaassa" />
    <ellipse
       style="fill:#ffffff;fill-opacity:1;stroke:#ffffff;stroke-width:0.23328;stroke-linecap:round;stroke-linejoin:round;stroke-miterlimit:4;stroke-dasharray:none;stroke-opacity:1"
       id="path868"
       cx="10.146684"
       cy="29.942476"
       rx="0.30928889"
       ry="0.32861945" />
    <ellipse
       style="fill:#ffffff;fill-opacity:1;stroke:#ffffff;stroke-width:0.221712;stroke-linecap:round;stroke-linejoin:round;stroke-miterlimit:4;stroke-dasharray:none;stroke-opacity:1"
       id="path870"
       cx="19.779982"
       cy="19.401966"
       rx="1.346036"
       ry="1.251784" />
    <ellipse
       style="fill:#ffffff;fill-opacity:1;stroke:#ffffff;stroke-width:0.244781;stroke-linecap:round;stroke-linejoin:round;stroke-miterlimit:4;stroke-dasharray:none;stroke-opacity:1"
       id="path872"
       cx="19.723547"
       cy="18.775436"
       rx="2.1322021"
       ry="0.63860106" />
    <ellipse
       style="fill:#ffffff;fill-opacity:1;stroke:#ffffff;stroke-width:0.255696;stroke-linecap:round;stroke-linejoin:round;stroke-miterlimit:4;stroke-dasharray:none;stroke-opacity:1"
       id="path874"
       cx="18.471474"
       cy="19.290005"
       rx="1.4194564"
       ry="0.98205584" />
    <ellipse
       style="fill:#000000;fill-opacity:1;stroke:#000000;stroke-width:0.23328;stroke-linecap:round;stroke-linejoin:round;stroke-miterlimit:4;stroke-dasharray:none"
       id="path876"
       cx="35.798779"
       cy="28.767508"
       rx="0.47385061"
       ry="1.4079711" />
    <path
       style="fill:#000000;fill-opacity:1;stroke:#000000;stroke-width:1.47;stroke-linecap:round;stroke-linejoin:round;stroke-dasharray:none;stroke-opacity:1"
       d="m 7.2863677,30.899623 -0.2028185,-1.469 -0.027362,-0.686404"
       id="path3950"
       sodipodi:nodetypes="ccc" />
    <path
       style="fill:#000000;fill-opacity:1;stroke:#ffffff;stroke-width:1;stroke-linecap:round;stroke-linejoin:round;stroke-dasharray:none;stroke-opacity:1"
       d="m 23.226296,37.868339 -0.303765,-3.319625 3.016292,3.080184 -0.241906,-3.804611 c 0,0 1.101803,1.732544 2.334794,2.807588 1.232991,1.075043 1.127413,0.96751 1.127413,0.96751 l -0.172856,-4.059509 c 0,0 2.216313,2.773469 4.333644,3.865067 2.117331,1.091597 2.117331,1.091597 2.117331,1.091597"
       id="path4480" />
    <path
       style="fill:#000000;fill-opacity:1;stroke:#ffffff;stroke-width:1;stroke-linecap:round;stroke-linejoin:round;stroke-dasharray:none;stroke-opacity:1"
       d="m 34.956664,25.270452 c 0,0 0.134895,2.345105 0.922067,3.217509 0.787173,0.872404 0.751487,0.867871 0.751487,0.867871 l -2.632045,-0.863905 c 0,0 1.561199,3.306724 1.90446,3.763855 0.343261,0.457131 0.343261,0.457131 0.343261,0.457131"
       id="path4644" />
  </g>
</svg>
