<?xml version="1.0" encoding="UTF-8" standalone="no"?>
<svg
   xmlns:dc="http://purl.org/dc/elements/1.1/"
   xmlns:cc="http://creativecommons.org/ns#"
   xmlns:rdf="http://www.w3.org/1999/02/22-rdf-syntax-ns#"
   xmlns:svg="http://www.w3.org/2000/svg"
   xmlns="http://www.w3.org/2000/svg"
   xmlns:sodipodi="http://sodipodi.sourceforge.net/DTD/sodipodi-0.dtd"
   xmlns:inkscape="http://www.inkscape.org/namespaces/inkscape"
   width="45"
   height="45"
   version="1.1"
   id="svg5107"
   sodipodi:docname="bR_left.svg"
   inkscape:version="1.0.2 (e86c870879, 2021-01-15)">
  <metadata
     id="metadata5113">
    <rdf:RDF>
      <cc:Work
         rdf:about="">
        <dc:format>image/svg+xml</dc:format>
        <dc:type
           rdf:resource="http://purl.org/dc/dcmitype/StillImage" />
        <dc:title></dc:title>
      </cc:Work>
    </rdf:RDF>
  </metadata>
  <defs
     id="defs5111" />
  <sodipodi:namedview
     pagecolor="#ffffff"
     bordercolor="#666666"
     borderopacity="1"
     objecttolerance="10"
     gridtolerance="10"
     guidetolerance="10"
     inkscape:pageopacity="0"
     inkscape:pageshadow="2"
     inkscape:window-width="1366"
     inkscape:window-height="741"
     id="namedview5109"
     showgrid="false"
     inkscape:zoom="9.2877842"
     inkscape:cx="37.797302"
     inkscape:cy="27.77652"
     inkscape:window-x="0"
     inkscape:window-y="0"
     inkscape:window-maximized="1"
     inkscape:current-layer="svg5107" />
  <g
     id="g5685"
     transform="matrix(-1,0,0,1,45,0)">
    <path
       d="M 9,39 H 36 V 36 H 9 Z M 12.5,32 14,29.5 H 31 L 32.5,32 Z M 12,36 v -4 h 21 v 4 z"
       stroke-linecap="butt"
       id="path5097"
       style="fill-rule:evenodd;stroke:#000000;stroke-width:1.5;stroke-linejoin:round" />
    <path
       d="m 14,29.5 v -13 h 17 v 13 z"
       stroke-linecap="butt"
       stroke-linejoin="miter"
       id="path5099"
       style="fill-rule:evenodd;stroke:#000000;stroke-width:1.5" />
    <path
       d="M 14,16.5 11,14 h 23 l -3,2.5 z M 11,14 V 9 h 4 v 2 h 5 V 9 h 5 v 2 h 5 V 9 h 4 v 5 z"
       stroke-linecap="butt"
       id="path5101"
       style="fill-rule:evenodd;stroke:#000000;stroke-width:1.5;stroke-linejoin:round" />
  </g>
  <path
     id="rect5680"
     style="fill:#969696;fill-opacity:0.5;stroke-width:0.0633731;stroke-linecap:square;stroke-linejoin:round;stroke-miterlimit:4;stroke-dasharray:none;stroke-opacity:0.5"
     d="m 17.628906,16.664062 12.640625,12.640626 -0.193359,0.193359 H 27.314453 L 14.482422,16.664062 Z" />
  <path
     d="M 33,35.5 H 12 m 20,-4 H 13 m 18,-2 H 14 m 17,-13 H 14 M 34,14 H 11"
     fill="none"
     stroke="#ececec"
     stroke-width="1"
     stroke-linejoin="miter"
     id="path5103"
     style="fill-rule:evenodd;stroke-linecap:round" />
</svg>
