<?xml version="1.0" encoding="UTF-8" standalone="no"?>
<svg
   xmlns:dc="http://purl.org/dc/elements/1.1/"
   xmlns:cc="http://creativecommons.org/ns#"
   xmlns:rdf="http://www.w3.org/1999/02/22-rdf-syntax-ns#"
   xmlns:svg="http://www.w3.org/2000/svg"
   xmlns="http://www.w3.org/2000/svg"
   xmlns:sodipodi="http://sodipodi.sourceforge.net/DTD/sodipodi-0.dtd"
   xmlns:inkscape="http://www.inkscape.org/namespaces/inkscape"
   width="45"
   height="45"
   version="1.1"
   id="svg1696"
   sodipodi:docname="wB_right.svg"
   inkscape:version="1.0.2 (e86c870879, 2021-01-15)">
  <metadata
     id="metadata1702">
    <rdf:RDF>
      <cc:Work
         rdf:about="">
        <dc:format>image/svg+xml</dc:format>
        <dc:type
           rdf:resource="http://purl.org/dc/dcmitype/StillImage" />
        <dc:title />
      </cc:Work>
    </rdf:RDF>
  </metadata>
  <defs
     id="defs1700" />
  <sodipodi:namedview
     pagecolor="#ffffff"
     bordercolor="#666666"
     borderopacity="1"
     objecttolerance="10"
     gridtolerance="10"
     guidetolerance="10"
     inkscape:pageopacity="0"
     inkscape:pageshadow="2"
     inkscape:window-width="1366"
     inkscape:window-height="741"
     id="namedview1698"
     showgrid="false"
     inkscape:zoom="12.777778"
     inkscape:cx="17.37879"
     inkscape:cy="18.790539"
     inkscape:window-x="0"
     inkscape:window-y="0"
     inkscape:window-maximized="1"
     inkscape:current-layer="svg1696"
     inkscape:document-rotation="0" />
  <g
     fill="#ffffff"
     stroke-linecap="butt"
     id="g1690"
     style="fill-rule:evenodd;stroke:#000000;stroke-width:1.5;stroke-linejoin:round"
     transform="matrix(-1,0,0,1,44.999995,0)">
    <path
       d="m 35.999107,8.3163007 c -3.39,0.97 -10.11,-0.43 -13.5,2.0000003 -3.39,-2.4300003 -10.11,-1.0300003 -13.4999997,-2.0000003 0,0 -1.65,-0.54 -3,-2 0.68,-0.97 1.65,-0.99 3,-0.5 3.3899997,0.97 10.1099997,-0.46 13.4999997,1 3.39,-1.46 10.11,-0.03 13.5,-1 1.354,-0.49 2.323,-0.47 3,0.5 -1.354,1.94 -3,2 -3,2 z"
       id="path1684" />
    <path
       d="m 29.999107,12.316301 c -2.5,-2.5000003 -12.5,-2.5000003 -15,0 -0.5,1.5 0,2 0,2 0,2.5 2.5,4 2.5,4 -5.5,1.5 -6,11.5 5,15.5 11,-4 10.5,-14 5,-15.5 0,0 2.5,-1.5 2.5,-4 0,0 0.5,-0.5 0,-2 z"
       id="path1686" />
    <path
       d="m 19.999107,36.316301 a -2.5,-2.5 0 1 1 5,0 -2.5,-2.5 0 1 1 -5,0 z"
       id="path1688" />
  </g>
  <path
     id="path1692"
     style="fill:none;fill-rule:evenodd;stroke:#000000;stroke-width:1.5;stroke-linecap:round"
     d="m 17.500888,18.316301 h 10 z m -2.5,-4 h 15 z" />
  <path
     style="fill:none;stroke:#000000;stroke-width:2.4;stroke-linecap:butt;stroke-linejoin:miter;stroke-miterlimit:4;stroke-dasharray:none;stroke-opacity:0.5"
     d="M 17.930443,30.943674 C 29.044895,19.689176 29.044895,19.689176 29.044895,19.689176"
     id="path2265" />
</svg>
